<svg id="Lager_1" data-name="Lager 1" xmlns="http://www.w3.org/2000/svg" xmlns:xlink="http://www.w3.org/1999/xlink" viewBox="0 0 58.08 58.46"><defs><style>.cls-1{fill:url(#Namnlös_övertoning_114);}.cls-2,.cls-3{fill:none;stroke-miterlimit:10;}.cls-2{stroke:#c5ffb9;}.cls-3{stroke:#53ff00;}</style><linearGradient id="Namnlös_övertoning_114" x1="-4.57" y1="22.08" x2="59.01" y2="35.25" gradientUnits="userSpaceOnUse"><stop offset="0" stop-color="#4ce900"/><stop offset="1" stop-color="#d2ffbf"/></linearGradient></defs><title>Namnlöst-13</title><polygon class="cls-1" points="36.21 58.08 0 58.08 0 0 58.08 0 58.08 39.73 36.21 58.08"/><path class="cls-2" d="M667.53,662.35c2.32-2,5.48-9.26,5.48-20.71" transform="translate(-631.32 -604.27)"/><path class="cls-3" d="M673,641.64c0,1.3,7.33,2.36,16.39,2.36" transform="translate(-631.32 -604.27)"/><path d="M649.93,625.16a8.11,8.11,0,0,0-1.11,1.55c-.27.49-.78,1.36-.11,1.76a1.27,1.27,0,0,0,.92.08,2.17,2.17,0,0,0,.78-.41,4.85,4.85,0,0,0,.55-.56,7.77,7.77,0,0,0,.54-.74,1.57,1.57,0,0,0,.24-1.05,1,1,0,0,0-.53-.77.4.4,0,0,0-.52.14.37.37,0,0,0,.14.51l.06,0s.05,0,0,0,.06.09,0,0l0,.07s0-.06,0,0,0,.14,0,.09a.33.33,0,0,1,0,.14c0,.06,0-.06,0,0l0,.06a1.09,1.09,0,0,1-.14.31,4.46,4.46,0,0,1-.8,1,1.65,1.65,0,0,1-.47.33,1,1,0,0,1-.42.06s-.08,0-.09,0l.06.07s0-.06,0,0,0-.05,0,0,0,0,0,0l0-.08v0a5.08,5.08,0,0,1,.33-.66,7.44,7.44,0,0,1,1-1.34.39.39,0,0,0,0-.53.37.37,0,0,0-.53,0Z" transform="translate(-631.32 -604.27)"/><path d="M654.91,624a1,1,0,0,0-1.41,0c-.45.46-.44,1.18-.59,1.76a8.3,8.3,0,0,1-1.73,3.44l.59.46.66-1.24a7.24,7.24,0,0,0,.57-1.15.87.87,0,0,0-.29-1,.69.69,0,0,0-.9.06.38.38,0,0,0,.17.63,2.74,2.74,0,0,0,1.82-.24,3.34,3.34,0,0,1,1.73-.43c.48.08.68-.64.2-.73a3.23,3.23,0,0,0-1.85.33,2.7,2.7,0,0,1-1.7.35l.16.62h-.07l0,0a1.64,1.64,0,0,1,0,.19,6.76,6.76,0,0,1-.36.71l-.78,1.46c-.19.36.3.8.59.45a9.39,9.39,0,0,0,1.68-2.93,10.7,10.7,0,0,0,.4-1.6,1.24,1.24,0,0,1,.24-.67.23.23,0,0,1,.34,0c.32.37.84-.17.54-.53Z" transform="translate(-631.32 -604.27)"/><path d="M658.4,626.05c-.11.62-.64,2,.27,2.28s1.38-.89,2.12-1.22l-.55-.42A17.13,17.13,0,0,1,659,630a15.9,15.9,0,0,1-.84,1.44,5,5,0,0,1-.33.47l-.44-.12c-.12-.19.19-.92.27-1.07a7,7,0,0,1,2.77-2.32l3.21-2-.38-.65c-.6.41-1.29.94-1.29,1.75a1.18,1.18,0,0,0,.92,1.19c1.23.2,2.47-1.89,1.37-2.7l-.09.69,2.36-.67-.42-.55c-.28.58-1.52,2.23-.58,2.75s2.06-1.05,2.59-1.54l-.59-.08c.25.33-.22,1.07,0,1.51a.68.68,0,0,0,.78.4c1.08-.19,1.85-1.64,2.07-2.59a.38.38,0,0,0-.26-.46.84.84,0,0,0-1.1.65.38.38,0,0,0,.46.46l2.76-.48-.29-.68c-.73.35-1.64,1-1.36,1.93a1.64,1.64,0,0,0,1.82,1c.75-.09,2.15-.53,2.38-1.39a.88.88,0,0,0-1.12-1.08c-.44.18-.25.91.19.72.07.28,0,.45-.2.53a3.32,3.32,0,0,1-.54.25,2.13,2.13,0,0,1-.93.2c-.49,0-1.3-.24-.62-1.07a2.58,2.58,0,0,1,.75-.45c.41-.2.11-.75-.28-.68l-2.76.48.46.46.18-.13-.26-.46a3.27,3.27,0,0,1-.57,1.26c-.09.12-.78.9-.9.71s.17-.59.18-.75a.92.92,0,0,0-.18-.72.38.38,0,0,0-.59-.07l-.64.59c-.07.07-.55.6-.64.6-.43,0,.36-1.31.45-1.49a.38.38,0,0,0-.43-.55l-2.36.66a.38.38,0,0,0-.09.69c.58.42-1,1.74-1.16.86-.09-.48.61-.89.92-1.1s0-.91-.38-.65a56.71,56.71,0,0,0-5,3.2c-.93.72-2,2.15-1.52,3.42s1.67.08,2.08-.55a17.46,17.46,0,0,0,2.17-4.92c.1-.35-.26-.55-.55-.43a2.24,2.24,0,0,0-.8.7l-.22.29q-.67.24-.42-.3a2.85,2.85,0,0,1,.16-.9c.08-.47-.64-.68-.73-.2Z" transform="translate(-631.32 -604.27)"/><path d="M655.19,643.92a6.66,6.66,0,0,1,2.63.11.39.39,0,0,0,.46-.27.38.38,0,0,0-.26-.46,7.55,7.55,0,0,0-3-.1.37.37,0,0,0,.2.72Z" transform="translate(-631.32 -604.27)"/><path d="M658,641.85a.38.38,0,0,0,0-.75.38.38,0,0,0,0,.75Z" transform="translate(-631.32 -604.27)"/><path d="M657.6,643.29l-1.52,1.41a5.25,5.25,0,0,1-.65.6.82.82,0,0,1-.25.12h-.09s0,0,0,0l-.33.57a14.63,14.63,0,0,1,3.91.09.39.39,0,0,0,.46-.27.37.37,0,0,0-.26-.46,15.29,15.29,0,0,0-4.11-.11c-.26,0-.5.3-.32.56.46.69,1.27.22,1.73-.21l1.92-1.79c.35-.33-.18-.86-.53-.53Z" transform="translate(-631.32 -604.27)"/><path d="M660.47,643.62c-.39.49-1.16,1.58-.85,2.25s1.42.45,1.92.2a1.93,1.93,0,0,0,1.16-1.71.93.93,0,0,0-1.43-.78.37.37,0,0,0,.29.68l1.22-.3a4.68,4.68,0,0,1,1.21-.31l0-.1a.79.79,0,0,1-.1.27,4.94,4.94,0,0,1-.3.49l-.59,1c-.26.42.37.77.64.38a5.57,5.57,0,0,1,1-1,6.58,6.58,0,0,0,.61-.42c.19-.06.2-.09,0-.1l0,.13a.83.83,0,0,0,.77,1.13c.89,0,3.44-1.49,2.22-2.55a1,1,0,0,0-1.41.28,1.48,1.48,0,0,0,.29,1.78,2.23,2.23,0,0,0,1.76,1.1,3.2,3.2,0,0,0,2-1.23c.33-.35-.2-.88-.53-.53a3,3,0,0,1-1.36,1c-.58.12-1-.38-1.31-.79-.17-.22-.42-.57-.27-.85.06-.12.12-.19.24-.12s0,.26-.1.37a2.72,2.72,0,0,1-.71.49c-.18.1-.5.33-.73.31s-.13-.25-.1-.44a.86.86,0,0,0,0-.45.61.61,0,0,0-.78-.33,4.77,4.77,0,0,0-2.19,1.88l.64.38a17,17,0,0,0,1-1.58.91.91,0,0,0,0-1c-.3-.33-.75-.18-1.11-.09l-2.13.54.29.68c.42-.29.24.5.22.55a1.4,1.4,0,0,1-.3.39,1.43,1.43,0,0,1-.83.37c-.09,0-.37.05-.44,0,0,.09,0,.08,0,0a2,2,0,0,1,.07-.26,3.45,3.45,0,0,1,.59-1.08c.29-.38-.24-.91-.53-.53Z" transform="translate(-631.32 -604.27)"/><path d="M651.51,614.79a8.11,8.11,0,0,0-1.71-.61,2.9,2.9,0,0,0-1.82,0,1.62,1.62,0,0,0-1,1.45,1.53,1.53,0,0,0,.9,1.33,5.39,5.39,0,0,0,1.57.43c.28.05.56.08.84.11s-.09,0,0,0l.17,0a2,2,0,0,1,.33.08.87.87,0,0,1,.32.16s.09.15,0,0l.06.11c-.07-.13,0,0,0,0s0,.08,0,0a.31.31,0,0,1,0,.1.92.92,0,0,1,0,.16h0a.56.56,0,0,0,0,.12c0,.2,0-.06,0,0a.64.64,0,0,1-.08.14c.07-.1,0,0,0,0l-.12.12s0,0,0,0l-.09.06-.16.08c.13-.06-.07,0-.08,0a2,2,0,0,1-.35.08c.14,0,0,0,0,0h-.4c.17,0,0,0-.05,0l-.12,0-.16-.05-.09,0-.16-.1s.1.09,0,0-.11-.17,0,0-.1-.17-.05-.07,0-.23,0,0a.76.76,0,0,0-.75-.75c-.36,0-.8.33-.75.75.3,2.51,4.45,2.38,5,.06a2,2,0,0,0-.36-1.72,2.33,2.33,0,0,0-1.35-.74c-.56-.12-1-.14-1.58-.25l-.72-.18c-.11,0,.14.08,0,0l-.11-.06-.06,0h0c-.08-.13.07.1,0,0,.07.1,0,.06,0,0a.33.33,0,0,1,0,.14c0-.08,0-.09,0,0s0-.08,0-.08.11-.07,0,0a.41.41,0,0,1,.11-.07c-.15.07.18,0,.1,0h.38c-.11,0,.06,0,.09,0l.3.06.42.12a5.37,5.37,0,0,1,.88.34.77.77,0,0,0,1-.27.76.76,0,0,0-.27-1Z" transform="translate(-631.32 -604.27)"/><path d="M653.13,615.55l.31,4a.75.75,0,0,0,1.5,0l-.31-4a.75.75,0,0,0-1.5,0Z" transform="translate(-631.32 -604.27)"/><path d="M652.57,616.12a16.06,16.06,0,0,0,4.38,0,.77.77,0,0,0,.75-.75c0-.36-.33-.81-.75-.75a15.57,15.57,0,0,1-2.05.14l-1,0-.48,0-.24,0-.16,0h0a.76.76,0,0,0-.92.52c-.08.35.11.87.52.92Z" transform="translate(-631.32 -604.27)"/><path d="M656.8,615.32a9.52,9.52,0,0,0-.31,3.33,3.42,3.42,0,0,0,.24,1.14,1.87,1.87,0,0,0,2,.78,4.53,4.53,0,0,0,2.08-.68.77.77,0,0,0,.27-1,.77.77,0,0,0-1-.27l-.34.2-.15.07-.11,0-.38.11-.18,0c-.23,0,.14,0-.09,0l-.4,0h-.18s-.24,0-.08,0l-.17,0c-.07,0,.07.06.1.08s0,0,0,0l0,.06A1,1,0,0,1,658,619s0-.16,0-.1,0-.12,0-.14,0-.32,0-.49a8.84,8.84,0,0,1,0-.89c0-.13,0-.27,0-.4s0-.24,0-.12l0-.2a9.21,9.21,0,0,1,.2-.91.75.75,0,1,0-1.44-.4Z" transform="translate(-631.32 -604.27)"/><path d="M657.25,618l1.62-.12a.77.77,0,0,0,.53-.22.75.75,0,0,0,.22-.53.77.77,0,0,0-.22-.53.75.75,0,0,0-.53-.22l-1.62.12a.73.73,0,0,0-.53.22.75.75,0,0,0,0,1.06.75.75,0,0,0,.53.22Z" transform="translate(-631.32 -604.27)"/><path d="M657.89,616.35a7.37,7.37,0,0,0,2.93-.55.82.82,0,0,0,.45-.35.75.75,0,0,0,.07-.57.75.75,0,0,0-.92-.53,5.93,5.93,0,0,1-1.32.4,3,3,0,0,1-.32.06h.05l-.09,0h-.15a5.51,5.51,0,0,1-.7,0,.75.75,0,0,0,0,1.5Z" transform="translate(-631.32 -604.27)"/><path d="M660.86,615.44l.51,4.08a.77.77,0,0,0,.75.75.75.75,0,0,0,.75-.75l0-2.67c0-.42,0-.84,0-1.26,0,0,0-.3,0-.16,0,0,0-.21,0-.09h0c-.08,0-.09.06,0,0-.1,0-.11,0,0,0s.07,0,0,0,.22,0,0,0c.06,0,.25.11.1,0,0,0,.16.13,0,0a.6.6,0,0,1,.08.08c-.06-.08-.06-.08,0,0s0-.1,0,.08a.83.83,0,0,1,0,.15c0-.08,0-.07,0,0a1.62,1.62,0,0,1,0,.22c0-.14,0,.14,0,.17a1.82,1.82,0,0,1-.07.25v0a.41.41,0,0,1-.07.11c0,.08,0,.08,0,0s-.06.07,0,0c-.19.15.1-.05.06,0h-.14c.08,0,.08,0,0,0s0,0-.1,0a3.36,3.36,0,0,1-.51-.32.75.75,0,0,0-1,.26.78.78,0,0,0,.27,1,1.87,1.87,0,0,0,2.52.12,2.57,2.57,0,0,0,.45-2.59,1.68,1.68,0,0,0-2.07-1,1.43,1.43,0,0,0-.93,1,5.33,5.33,0,0,0-.06,1.38l0,3.14h1.5l-.51-4.08a.78.78,0,0,0-.75-.75c-.37,0-.81.34-.75.75Z" transform="translate(-631.32 -604.27)"/><path d="M665.67,615.5l-.24,1.58a2.85,2.85,0,0,0,0,1.89,2.19,2.19,0,0,0,2.54.76,2.48,2.48,0,0,0,1.08-.72,2.45,2.45,0,0,0,.54-1.39,2.68,2.68,0,0,0-1.22-2.35c-.89-.57-2.43-.39-2.71.78a.75.75,0,1,0,1.45.4c0-.09.07-.1,0,0a.59.59,0,0,0,0-.08c0-.07-.14.15,0,.06s.09,0-.05,0l.06,0c.07-.05.13,0-.05,0,.05,0,.16-.08.2,0s-.21,0-.08,0h.19c.08,0,.12,0,0,0l.18,0s.15.06,0,0,0,0,.05,0l.09.05c.05,0,.08.1,0,0l.16.14a2,2,0,0,0,.14.16c-.14-.13-.06-.08,0,0l.06.11c0,.06.06.13.1.18-.11-.15,0-.1,0,0l0,.1c0,.07,0,.16,0,.22s0-.2,0-.08a.76.76,0,0,1,0,.15c0,.07,0,.15,0,.22s0-.19,0-.07l0,.12s0,0,0,.08-.09.1,0,0c0,.06-.07.14-.11.21s.1-.12,0,0l-.06.07-.14.14c-.11.09.15-.1,0,0l-.06.05a1.39,1.39,0,0,0-.21.11c.15-.11.12,0,0,0l-.08,0-.18.05c-.08,0-.16,0,0,0h-.32c-.1,0,.2,0,.07,0l-.12,0-.07,0c-.07,0-.13-.08,0,0l-.17-.08-.06,0c.09.08.11.09,0,0l-.06-.07s.08.14,0,0,0-.06,0,0c0-.08,0-.07,0,0s0-.1,0-.11,0-.08,0,0l0-.12c0-.24.07-.49.11-.73l.22-1.46a.84.84,0,0,0-.08-.58.77.77,0,0,0-.45-.34.76.76,0,0,0-.92.52Z" transform="translate(-631.32 -604.27)"/><path d="M669.68,615.44a5.37,5.37,0,0,0-.31,2.38,2.26,2.26,0,0,0,1.14,1.62,1.86,1.86,0,0,0,1.92,0,2.17,2.17,0,0,0,.76-1.05,6,6,0,0,0,.29-.91,3,3,0,0,0-.32-2.4.75.75,0,1,0-1.29.76s.07.11.11.17.1.19,0,.08,0,.06,0,.09,0,.15.05.22v-.08a.33.33,0,0,0,0,.1,1.27,1.27,0,0,1,0,.2,1,1,0,0,0,0,.17.22.22,0,0,0,0,.08c0,.17,0-.12,0,0a7.44,7.44,0,0,1-.2.78l-.06.16a.67.67,0,0,0-.07.18c0-.09,0-.11,0,0l0,.1a.41.41,0,0,0-.05.09c0,.1,0,0,0,0a.77.77,0,0,0-.12.13s.15-.1,0,0l0,0h0c.12-.05,0,0,0,0l-.07,0c-.11,0,.17,0,.08,0h-.21s.2,0,.09,0l-.13,0-.06,0c-.13,0,.16.08,0,0a2.1,2.1,0,0,0-.24-.14l0,0-.06-.05-.11-.12c-.09-.09.09.15,0,0a.64.64,0,0,1-.08-.14c-.08-.13,0,.16,0,0a1.41,1.41,0,0,1-.06-.22.35.35,0,0,1,0-.11c0,.15,0,.06,0,0a2.26,2.26,0,0,1,0-.26c0-.08,0-.15,0-.23s0,0,0,0a.8.8,0,0,1,0-.15,8.64,8.64,0,0,1,.26-1,.75.75,0,0,0-.52-.92.76.76,0,0,0-.92.52Z" transform="translate(-631.32 -604.27)"/><path d="M673.92,615.33a11.94,11.94,0,0,0,0,3.63.75.75,0,0,0,.92.53.78.78,0,0,0,.52-.93,1.1,1.1,0,0,1,0-.18c0,.19,0,0,0-.08s0-.25,0-.37,0-.52,0-.78,0-.5,0-.75l0-.37a1.64,1.64,0,0,0,0-.22l0-.09c0,.09,0,.1,0,0a.73.73,0,0,0-.52-.92.76.76,0,0,0-.92.52Z" transform="translate(-631.32 -604.27)"/><path d="M673.71,616.32a11.4,11.4,0,0,0,3-.5.75.75,0,0,0-.4-1.45,10.33,10.33,0,0,1-1.33.33,1.33,1.33,0,0,1-.34,0h0l-.19,0c-.23,0-.46,0-.7.05a.78.78,0,0,0-.75.75.76.76,0,0,0,.75.75Z" transform="translate(-631.32 -604.27)"/><path d="M647.88,633.83a2.77,2.77,0,0,0-2.58-.77,2.56,2.56,0,0,0-1.54,2.24,5.39,5.39,0,0,0,.06,2.82,2.47,2.47,0,0,0,2.07,1.53,4.15,4.15,0,0,0,1.57,0,1.36,1.36,0,0,0,1-1.37.78.78,0,0,0-.75-.75.76.76,0,0,0-.75.75c0,.16,0,0,0,0s.15,0,0,0h-.4a3.36,3.36,0,0,1-.92-.16h0l-.14-.07-.07,0,0,0a.66.66,0,0,1-.2-.3,1.79,1.79,0,0,0-.06-.2s0-.24,0-.13a5.06,5.06,0,0,1,0-.55,5.14,5.14,0,0,1,.12-1.18,2.8,2.8,0,0,1,.3-.95l.08-.07c-.06,0,0,0,0,0s-.06,0,.09,0,.22,0,.09,0h.2l.23.06a.31.31,0,0,1,.14.07,2.47,2.47,0,0,1,.43.29.77.77,0,0,0,1.06,0,.75.75,0,0,0,0-1.06Z" transform="translate(-631.32 -604.27)"/><path d="M649.19,633.92a14.12,14.12,0,0,1-.43,1.55,4.3,4.3,0,0,0,0,1.82,3.13,3.13,0,0,0,2.23,2.45c1.27.21,2.06-.83,2.34-1.94a4.37,4.37,0,0,0-.14-3.37,3.4,3.4,0,0,0-1.51-1.24,1.61,1.61,0,0,0-1.16-.15,1.16,1.16,0,0,0-.8.86.77.77,0,0,0,.53.92.75.75,0,0,0,.92-.52c0-.18-.07.11-.16.15s-.13,0,0,.06l.17.08.29.17a1.75,1.75,0,0,1,.33.28,1.2,1.2,0,0,1,.22.35,2.39,2.39,0,0,1,.06,1.11,1.88,1.88,0,0,1,0,.19c0,.1,0,.2-.05.3s-.07.32-.11.48,0,.16-.07.24-.1.23,0,.11l-.12.21a.41.41,0,0,1-.05.09c.07-.12,0,0,0,0s-.11.11,0,.05l0,0-.12.06h0l-.11,0c.12,0,0,0,0,0h0l-.18,0c.07,0-.12-.08-.14-.09a.79.79,0,0,1-.14-.12,1.43,1.43,0,0,1-.29-.36,2.75,2.75,0,0,1-.38-1c0-.09,0,0,0,0s0-.14,0-.21V636a2.51,2.51,0,0,1,.12-.55,5.65,5.65,0,0,0,.39-1.57.75.75,0,0,0-1.5,0Z" transform="translate(-631.32 -604.27)"/><path d="M654.07,634.19A43.44,43.44,0,0,1,654,639a.75.75,0,0,0,1.5,0,15.05,15.05,0,0,1,.41-2.4c.1-.41.22-.81.35-1.2l.21-.56a1.62,1.62,0,0,0,.11-.28s0,0,0,0c-.16.12-.19.15-.08.1l-.38.1a.32.32,0,0,1-.27-.12,1,1,0,0,1,.08.14c0-.06,0,0,0,.05a.83.83,0,0,1,0,.15,2.1,2.1,0,0,1,.09.52c.07.53.13,1.06.19,1.6a.75.75,0,0,0,1.47.2,8.17,8.17,0,0,1,.79-1.76l.3-.47.14-.19c0-.07,0,0,0-.06s0,0,0,0a.42.42,0,0,1-.41-.16c.08.09,0,0,0,0s0,.22,0,.14,0,.08,0,.1v.32c0,.19,0,.39,0,.58,0,.39,0,.78,0,1.16,0,.8,0,1.59,0,2.38a.75.75,0,0,0,1.5,0c0-1,0-2,0-3,0-.49,0-1,0-1.48a2,2,0,0,0-.35-1.15,1.14,1.14,0,0,0-1.43-.3,2.73,2.73,0,0,0-.92,1,9.85,9.85,0,0,0-1.13,2.44l1.47.2-.16-1.35a6.52,6.52,0,0,0-.19-1.24,1.86,1.86,0,0,0-.78-1.13,1,1,0,0,0-1.38.48,11.11,11.11,0,0,0-.86,2.51A18.62,18.62,0,0,0,654,639h1.5a43.44,43.44,0,0,0,.1-4.84.75.75,0,0,0-1.5,0Z" transform="translate(-631.32 -604.27)"/><path d="M661.31,634.55v5a.75.75,0,0,0,1.5,0v-5a.75.75,0,0,0-.75-.75.76.76,0,0,0-.75.75Z" transform="translate(-631.32 -604.27)"/><path d="M661.89,635.13l3.2-.23a.77.77,0,0,0,.75-.75.76.76,0,0,0-.75-.75l-3.2.23a.75.75,0,0,0,0,1.5Z" transform="translate(-631.32 -604.27)"/><path d="M662.33,637.53a5.56,5.56,0,0,0,1.72-.21.81.81,0,0,0,.45-.34.78.78,0,0,0,.07-.58.81.81,0,0,0-.34-.45.78.78,0,0,0-.58-.07,4.69,4.69,0,0,1-.65.14l.2,0a5.07,5.07,0,0,1-.87,0,.75.75,0,0,0-.75.75.77.77,0,0,0,.22.53.79.79,0,0,0,.53.22Z" transform="translate(-631.32 -604.27)"/><path d="M666.42,634.26a6.56,6.56,0,0,0-.49,3.1,2.7,2.7,0,0,0,1.5,2.68,2.07,2.07,0,0,0,2.51-1.22,4.44,4.44,0,0,0,.08-3.15,3.31,3.31,0,0,0-2.39-2,.75.75,0,1,0-.39,1.44,2.25,2.25,0,0,1,.42.13l.12.06a1.64,1.64,0,0,1,.22.14c.11.07,0,0,.08.06l.16.15.08.09s.1.13.06.06,0,0,0,0l.07.12a1.28,1.28,0,0,1,.11.2c-.05-.1,0,.08,0,.11a2.31,2.31,0,0,1,.11.52c0,.19,0,.38,0,.56s0,.17,0,.25a.49.49,0,0,1,0,.12c0,.14,0-.15,0,.09,0,.08,0,.16-.05.24s-.07.2,0,.13a2.25,2.25,0,0,1-.12.21s-.07.1,0,0l-.06.06-.07.07,0,0s-.19.09-.09.05-.2,0-.08,0H668c-.11,0,.09,0,0,0l-.1,0s.11.06,0,0,0,0-.08-.06-.14-.15-.08-.07a1.59,1.59,0,0,1-.13-.22c0-.07,0,0,0,0s0-.09-.05-.13,0-.21-.07-.31a3.08,3.08,0,0,1,0-.48,5.31,5.31,0,0,1,.28-2.35.76.76,0,0,0-.27-1,.74.74,0,0,0-1,.27Z" transform="translate(-631.32 -604.27)"/><path d="M670.57,634.63a19.48,19.48,0,0,1-.38,4.34.76.76,0,0,0,.52.92.75.75,0,0,0,.92-.52,21,21,0,0,0,.44-4.74.75.75,0,0,0-1.5,0Z" transform="translate(-631.32 -604.27)"/><path d="M671.2,635.28a9.3,9.3,0,0,0,1.54-.59,2,2,0,0,1,.31-.08h.15c-.1,0,0,0,.08,0s-.06-.06.07,0,.09.08,0,0a.46.46,0,0,1,.18.23.47.47,0,0,1,0,.37.86.86,0,0,1-.29.49,1.12,1.12,0,0,1-.57.26A1.73,1.73,0,0,1,672,636l-.4,1.44c1.33.2,2,1.47,2.61,2.58.46.85,1.75.09,1.29-.76-.76-1.41-1.76-3-3.5-3.26a.77.77,0,0,0-.92.52.75.75,0,0,0,.52.92,2.87,2.87,0,0,0,2.65-.49,2.3,2.3,0,0,0,.74-2.37,2,2,0,0,0-2-1.47c-.84,0-1.46.61-2.23.72a.75.75,0,1,0,.4,1.45Z" transform="translate(-631.32 -604.27)"/><path d="M676.37,634.46c.15,1.66.25,3.33.28,5a.75.75,0,0,0,1.5,0c0-1.66-.13-3.33-.28-5a.75.75,0,0,0-1.5,0Z" transform="translate(-631.32 -604.27)"/><path d="M675.57,635.07a9.92,9.92,0,0,1,4.06-.05.75.75,0,1,0,.4-1.44,11.54,11.54,0,0,0-4.86,0,.75.75,0,0,0,.4,1.45Z" transform="translate(-631.32 -604.27)"/><path d="M639.79,628.88h-1.56a.77.77,0,0,0-.53.22.75.75,0,0,0-.22.53.77.77,0,0,0,.75.75h1.56a.75.75,0,0,0,.75-.75.76.76,0,0,0-.75-.75Z" transform="translate(-631.32 -604.27)"/><path d="M642,623.56l-1.8-1.07a.78.78,0,0,0-.58-.08.82.82,0,0,0-.45.35.76.76,0,0,0,.27,1l1.8,1.07a.78.78,0,0,0,.58.08.82.82,0,0,0,.45-.35.76.76,0,0,0-.27-1Z" transform="translate(-631.32 -604.27)"/><path d="M640.18,637l-1.79,1.08a.75.75,0,0,0-.35.45.71.71,0,0,0,.08.57.75.75,0,0,0,1,.27l1.8-1.07a.75.75,0,1,0-.76-1.3Z" transform="translate(-631.32 -604.27)"/><path d="M682.82,628.56h2.08a.75.75,0,1,0,0-1.5h-2.08a.75.75,0,0,0,0,1.5Z" transform="translate(-631.32 -604.27)"/><path d="M681.73,621.79l2.07-.77a.82.82,0,0,0,.45-.35.78.78,0,0,0,.07-.58.76.76,0,0,0-.34-.45.78.78,0,0,0-.58-.07l-2.07.78a.77.77,0,0,0-.45.34.83.83,0,0,0-.08.58.79.79,0,0,0,.35.45.74.74,0,0,0,.58.07Z" transform="translate(-631.32 -604.27)"/><path d="M682.47,635.93l1.54.8a.79.79,0,0,0,.58.07.74.74,0,0,0,.45-.34.79.79,0,0,0,.08-.58.75.75,0,0,0-.35-.45l-1.54-.8a.77.77,0,0,0-1,.27.74.74,0,0,0,.27,1Z" transform="translate(-631.32 -604.27)"/></svg>