<svg id="Lager_1" data-name="Lager 1" xmlns="http://www.w3.org/2000/svg" xmlns:xlink="http://www.w3.org/1999/xlink" viewBox="0 0 70.84 71.22"><defs><style>.cls-1{fill:url(#Namnlös_övertoning_114);}.cls-2,.cls-3{fill:none;stroke-miterlimit:10;}.cls-2{stroke:#c5ffb9;}.cls-3{stroke:#53ff00;}</style><linearGradient id="Namnlös_övertoning_114" x1="-5.58" y1="26.93" x2="71.97" y2="42.99" gradientUnits="userSpaceOnUse"><stop offset="0" stop-color="#4ce900"/><stop offset="1" stop-color="#d2ffbf"/></linearGradient></defs><title>Namnlöst-13</title><polygon class="cls-1" points="44.16 70.84 0 70.84 0 0 70.84 0 70.84 48.45 44.16 70.84"/><path class="cls-2" d="M669.1,668.73c2.83-2.38,6.69-11.3,6.69-25.26" transform="translate(-624.94 -597.89)"/><path class="cls-3" d="M675.79,643.47c0,1.59,8.94,2.88,20,2.88" transform="translate(-624.94 -597.89)"/><path d="M635.56,627.6l-.31,6.92c0,1,1.45,1,1.5,0l.31-6.92c.05-1-1.45-1-1.5,0Z" transform="translate(-624.94 -597.89)"/><path d="M635.9,628.51a3.8,3.8,0,0,1,1.92.13,3.09,3.09,0,0,1,.81.41,1,1,0,0,1,.41.5.27.27,0,0,1,0,.23l-.12.22a1.92,1.92,0,0,1-.7.5,3.49,3.49,0,0,1-2,.29c-.66-.07-1,.86-.53,1.28a12.45,12.45,0,0,0,2.67,1.95c1,.52,2.19,1.11,3.31.69a.77.77,0,0,0,.52-.93.75.75,0,0,0-.92-.52c-.77.29-1.68-.27-2.34-.64a11.07,11.07,0,0,1-2.18-1.61l-.53,1.28a4.81,4.81,0,0,0,2.9-.59,2.37,2.37,0,0,0,1.36-2.46,3,3,0,0,0-2-2,5.33,5.33,0,0,0-3-.23.75.75,0,0,0,.4,1.45Z" transform="translate(-624.94 -597.89)"/><path d="M642.23,627.89c.06,1.07.12,2.15.19,3.23a6.32,6.32,0,0,0,.55,2.39,2.54,2.54,0,0,0,2,1.41,2.5,2.5,0,0,0,2.29-1.18c.51-.82-.78-1.57-1.29-.75a1,1,0,0,1-1.08.4.73.73,0,0,1-.29-.15c.09.06-.08-.07-.08-.08s-.16-.17-.09-.08a1.74,1.74,0,0,1-.33-.67,7.19,7.19,0,0,1-.25-1.81l-.16-2.71a.75.75,0,1,0-1.5,0Z" transform="translate(-624.94 -597.89)"/><path d="M643.26,631.56a4.33,4.33,0,0,0,1.48,0,3.74,3.74,0,0,0,1.22-.48.75.75,0,0,0-.76-1.29c-.13.07-.25.14-.39.2l.18-.08a3.06,3.06,0,0,1-.8.22l.2,0a3.75,3.75,0,0,1-.82,0l.2,0-.11,0a.83.83,0,0,0-.58.08.74.74,0,0,0-.34.44.73.73,0,0,0,.07.58.72.72,0,0,0,.45.35Z" transform="translate(-624.94 -597.89)"/><path d="M643.18,628.51a29.89,29.89,0,0,0,4-.37.74.74,0,0,0,.52-.92.77.77,0,0,0-.92-.53l-.48.07-.11,0h0l-.22,0-.93.1c-.63.05-1.25.09-1.87.1a.75.75,0,0,0,0,1.5Z" transform="translate(-624.94 -597.89)"/><path d="M648.79,628.31a50.88,50.88,0,0,0,.14,5.92.77.77,0,0,0,.75.75.75.75,0,0,0,.75-.75,50.88,50.88,0,0,1-.14-5.92.75.75,0,0,0-1.5,0Z" transform="translate(-624.94 -597.89)"/><path d="M650.09,629.06a13.09,13.09,0,0,0,3.3-.35.76.76,0,0,0,.52-.92.77.77,0,0,0-.92-.53l-.77.16a1.41,1.41,0,0,1-.35.05c.18,0,0,0,0,0l-.21,0a13,13,0,0,1-1.53.06.75.75,0,0,0,0,1.5Z" transform="translate(-624.94 -597.89)"/><path d="M649.53,632a23.79,23.79,0,0,0,2.39-.18.79.79,0,0,0,.53-.22.75.75,0,0,0,.22-.53.77.77,0,0,0-.22-.53.75.75,0,0,0-.53-.22,23.79,23.79,0,0,1-2.39.18.75.75,0,0,0,0,1.5Z" transform="translate(-624.94 -597.89)"/><path d="M653.57,627.88c0,1,0,2.09,0,3.13a4.7,4.7,0,0,0,.73,2.94,2.49,2.49,0,0,0,2.46.79,2.52,2.52,0,0,0,1.79-1.85.77.77,0,0,0-.52-.92.75.75,0,0,0-.92.52,1,1,0,0,1-.85.82,1,1,0,0,1-1-.68,4.39,4.39,0,0,1-.13-1q0-.6-.06-1.2c0-.84,0-1.69,0-2.53a.75.75,0,0,0-1.5,0Z" transform="translate(-624.94 -597.89)"/><path d="M658.25,628a13.14,13.14,0,0,0,0,2.43,6.63,6.63,0,0,0,.59,2.24,2.47,2.47,0,0,0,3.75,1,.75.75,0,0,0,0-1.06.76.76,0,0,0-1.06,0c.11-.1-.23.1-.07,0l-.2.05c.11,0,0,0,0,0h-.17c.11,0,0,0,0,0l-.17,0c-.18,0,.08.06-.09,0l-.12-.07s-.18-.14-.08,0a3.45,3.45,0,0,1-.26-.28c.06.08,0,0,0-.07l-.1-.17-.1-.21c0,.09,0,0,0-.08a9.15,9.15,0,0,1-.32-3.65.75.75,0,0,0-1.5,0Z" transform="translate(-624.94 -597.89)"/><path d="M659.12,630.74a8.72,8.72,0,0,0,2.6-.16.75.75,0,0,0,.53-.92.78.78,0,0,0-.93-.53,5.58,5.58,0,0,1-.59.1l.2,0a7.82,7.82,0,0,1-1.81,0,.73.73,0,0,0-.53.22.79.79,0,0,0-.22.53.81.81,0,0,0,.22.53.89.89,0,0,0,.53.22Z" transform="translate(-624.94 -597.89)"/><path d="M659.13,628.66l4.23-.19a.75.75,0,0,0,0-1.5l-4.23.19a.75.75,0,0,0,0,1.5Z" transform="translate(-624.94 -597.89)"/><path d="M666.27,627.11a2.79,2.79,0,0,0-3.24,2.17,3.3,3.3,0,0,0,1.91,3.57,4.19,4.19,0,0,0,2.59.24.75.75,0,1,0-.4-1.44l-.16,0-.25,0a2.79,2.79,0,0,1-.5,0h0l-.14,0-.28-.07-.2-.07c.13.05-.12-.06-.15-.08l-.18-.1-.12-.08c.06,0,.05,0,0,0a2,2,0,0,1-.32-.33l-.05-.07-.13-.23s-.08-.18,0-.06a2.5,2.5,0,0,1-.09-.25c0-.08,0-.16,0-.23s0,0,0,0a.62.62,0,0,0,0-.13v-.23a.31.31,0,0,0,0-.1c0,.09,0,.09,0,0s0-.18.07-.26-.06.09,0-.06a2.53,2.53,0,0,1,.13-.22c.1-.16-.09.09,0-.05l.18-.18s.18-.14.05,0a2.88,2.88,0,0,1,.38-.22c-.16.07.09,0,.12,0l.18,0c-.18,0,.08,0,.12,0h.12c-.09,0-.1,0,0,0a.76.76,0,0,0,.92-.53.75.75,0,0,0-.52-.92Z" transform="translate(-624.94 -597.89)"/><path d="M669.39,627.74a10.53,10.53,0,0,0,1,5.3.76.76,0,0,0,1,.27.78.78,0,0,0,.27-1,9.27,9.27,0,0,1-.69-2.22,8.64,8.64,0,0,1-.09-2.32.75.75,0,0,0-1.5,0Z" transform="translate(-624.94 -597.89)"/><path d="M667.73,628.8A17.36,17.36,0,0,0,673,628a.75.75,0,1,0-.39-1.45,15.55,15.55,0,0,1-4.87.77.75.75,0,0,0,0,1.5Z" transform="translate(-624.94 -597.89)"/><path d="M673.71,627.74l.38,5.08a.75.75,0,0,0,1.5,0l-.38-5.08a.75.75,0,0,0-1.5,0Z" transform="translate(-624.94 -597.89)"/><path d="M677.62,627.33a8.3,8.3,0,0,0,.24,3.71c.46,1.24,1.74,2.65,3.21,2.12,1.22-.44,1.6-1.87,1.58-3s-.5-2.75-1.87-3.19a3.9,3.9,0,0,0-2.59.11,2,2,0,0,0-1.2,2.15.75.75,0,0,0,.92.52.77.77,0,0,0,.53-.92c0,.14,0-.08,0,0s0-.12,0-.11.13-.17,0-.06a.71.71,0,0,1,.5-.29,2.52,2.52,0,0,1,.69,0,1.79,1.79,0,0,1,.76.12c-.09,0,.1.07.13.09l0,0,.12.12h0l.07.11a1.09,1.09,0,0,1,.08.15.41.41,0,0,1,.05.09v0a4.24,4.24,0,0,1,.17.61s0,.19,0,0c0,0,0,.09,0,.14s0,.23,0,.35a4,4,0,0,1,0,.6c0-.16,0,0,0,0l0,.17c0,.11-.06.21-.09.32l0,.09,0,.08a1.07,1.07,0,0,1-.13.21c.13-.17-.21.16,0,0l-.1.06c-.11.09.11,0,0,0l-.12,0c.13,0,0,0-.07,0s.13.06-.08,0l-.15,0-.05,0-.18-.11c-.11-.08.1.11-.07-.06l-.16-.16a2.54,2.54,0,0,1-.52-.94c0-.13-.07-.26-.09-.39l0-.15s0-.24,0-.09c0-.27,0-.53-.05-.8,0-.55,0-1.1.09-1.64a.75.75,0,0,0-.75-.75.76.76,0,0,0-.75.75Z" transform="translate(-624.94 -597.89)"/><path d="M683,628.59a11.23,11.23,0,0,0,.34,4.16.75.75,0,0,0,.82.54.77.77,0,0,0,.65-.74,17.44,17.44,0,0,0-.1-4.21l-.19.73c.06-.07.06-.07,0,0h0c-.09,0-.09,0,0,0h0l.1,0c-.07,0-.07,0,0,0s.14.19.08.1a7.67,7.67,0,0,1,.62,1.21l1.39,2.83c.34.7,1.39.33,1.4-.37,0-1,0-2,0-3,0-.21,0-.41,0-.62a3.38,3.38,0,0,1,0-.51,2.07,2.07,0,0,1,.42-1,.74.74,0,0,0-.27-1,.77.77,0,0,0-1,.27,4.46,4.46,0,0,0-.68,2.7c0,1.08,0,2.15,0,3.23l1.39-.38-1.33-2.74c-.4-.81-.76-1.86-1.73-2.13a1.44,1.44,0,0,0-1.38.29.91.91,0,0,0-.28.84c0,.25.06.51.08.76a17.15,17.15,0,0,1,0,3l1.47-.2a10.13,10.13,0,0,1-.28-3.76.75.75,0,0,0-1.5,0Z" transform="translate(-624.94 -597.89)"/><path d="M654.5,637.52a19.65,19.65,0,0,0-3.75,4.28c-.26.41.39.79.65.38a18.57,18.57,0,0,1,3.63-4.13.39.39,0,0,0,0-.53.37.37,0,0,0-.53,0Z" transform="translate(-624.94 -597.89)"/><path d="M649,640.11a20.94,20.94,0,0,1,9.46-2.15.38.38,0,0,0,0-.75,21.48,21.48,0,0,0-9.83,2.26c-.44.21-.06.86.37.64Z" transform="translate(-624.94 -597.89)"/><path d="M654.39,642.35a30.66,30.66,0,0,0,3.33-2.56l-.59-.45c-.3.51-1.37,2.1-.46,2.55a1.06,1.06,0,0,0,1-.14c.69-.36,1.34-.85,2-1.27l-.46-.59a3.54,3.54,0,0,0-1,1.54.38.38,0,0,0,.55.42l3.21-2.23-.51-.13a1,1,0,0,1-.29,1.26l.53.53a4.43,4.43,0,0,1,2.92-1.59l-.36-.28a2.09,2.09,0,0,1-.41,1.71.38.38,0,0,0,.23.55c1.5.62,3-.79,3.57-2.07a1.15,1.15,0,0,0-.19-1.5,1,1,0,0,0-1.35.29,1.25,1.25,0,0,0,.24,1.56,3,3,0,0,0,2.07.6c1.07,0,3.69-.09,3.06-1.87-.16-.45-.89-.25-.73.2.43,1.2-3.77,1.24-3.87.54l.17-.33a2.07,2.07,0,0,1-.28.53,5.9,5.9,0,0,1-.58.74,1.67,1.67,0,0,1-1.91.59l.22.55a2.87,2.87,0,0,0,.49-2.29.38.38,0,0,0-.37-.27,5.17,5.17,0,0,0-3.45,1.81.37.37,0,0,0,.53.53,1.73,1.73,0,0,0,.41-2.17.39.39,0,0,0-.52-.14l-3.21,2.23.56.43a2.7,2.7,0,0,1,.81-1.21c.33-.27-.09-.81-.45-.59-.58.37-1.15.76-1.75,1.11-.33.2-.4.36-.31-.05a4.76,4.76,0,0,1,.59-1.17c.23-.38-.28-.73-.59-.46A27.92,27.92,0,0,1,654,641.7c-.4.26,0,.91.38.65Z" transform="translate(-624.94 -597.89)"/><path d="M658,638.56a.38.38,0,0,0,0-.75.38.38,0,0,0,0,.75Z" transform="translate(-624.94 -597.89)"/><path d="M659.85,617.7a40.5,40.5,0,0,0,.24-5.17.75.75,0,0,0-1.5,0,40.5,40.5,0,0,1-.24,5.17.74.74,0,0,0,.75.75.77.77,0,0,0,.75-.75Z" transform="translate(-624.94 -597.89)"/><path d="M667.83,618.65l2.41-3a.81.81,0,0,0,.22-.53.73.73,0,0,0-.22-.53.75.75,0,0,0-1.06,0l-2.41,3a.77.77,0,0,0-.22.53.81.81,0,0,0,.22.53.76.76,0,0,0,1.06,0Z" transform="translate(-624.94 -597.89)"/><path d="M652.58,617.91l-.12-.16-.07-.08s.08.1,0,0l-.25-.33c-.16-.23-.32-.47-.47-.71a13.71,13.71,0,0,1-.79-1.46.75.75,0,0,0-1.3.75,14.81,14.81,0,0,0,1.91,3,.77.77,0,0,0,.53.22.73.73,0,0,0,.53-.22.75.75,0,0,0,.22-.53.81.81,0,0,0-.22-.53Z" transform="translate(-624.94 -597.89)"/><path d="M659.72,649.15l.22,4.58a.75.75,0,0,0,1.5,0l-.22-4.58a.75.75,0,1,0-1.5,0Z" transform="translate(-624.94 -597.89)"/><path d="M669.54,647.34a8.83,8.83,0,0,1,.8.43l.39.25.18.13.1.07s.14.11,0,0,0,0,0,0l.1.08.17.14c.12.1.23.21.34.32a8.39,8.39,0,0,1,.65.68.75.75,0,0,0,1.06,0,.77.77,0,0,0,0-1.06,9.52,9.52,0,0,0-3.1-2.39.75.75,0,0,0-.75,1.3Z" transform="translate(-624.94 -597.89)"/><path d="M651.36,647.2a8.41,8.41,0,0,0-3.51,2.61.79.79,0,0,0-.22.53.75.75,0,0,0,1.28.53,7.65,7.65,0,0,1,.65-.74l.36-.34.18-.15.1-.08s.13-.07,0,0c.13-.07.25-.19.38-.27s.27-.18.42-.26.28-.16.43-.24l.23-.11.1,0c.16-.07-.16.06,0,0a.87.87,0,0,0,.45-.35.78.78,0,0,0,.07-.58.75.75,0,0,0-.92-.52Z" transform="translate(-624.94 -597.89)"/></svg>