<svg id="Lager_1" data-name="Lager 1" xmlns="http://www.w3.org/2000/svg" xmlns:xlink="http://www.w3.org/1999/xlink" viewBox="0 0 63.71 64.09"><defs><style>.cls-1{fill:url(#Namnlös_övertoning_99);}.cls-2,.cls-3{fill:none;stroke-miterlimit:10;}.cls-2{stroke:#ffcd97;}.cls-3{stroke:#ffa017;}</style><linearGradient id="Namnlös_övertoning_99" x1="-5.02" y1="24.22" x2="64.73" y2="38.66" gradientUnits="userSpaceOnUse"><stop offset="0" stop-color="#ff8000"/><stop offset="1" stop-color="#ffca9d"/></linearGradient></defs><title>Namnlöst-13</title><polygon class="cls-1" points="39.72 63.71 0 63.71 0 0 63.71 0 63.71 43.58 39.72 63.71"/><path class="cls-2" d="M668.22,665.17c2.55-2.14,6-10.16,6-22.72" transform="translate(-628.51 -601.46)"/><path class="cls-3" d="M674.23,642.45c0,1.43,8,2.59,18,2.59" transform="translate(-628.51 -601.46)"/><path d="M646.25,609.34a5.31,5.31,0,0,0,.35,2.26,3,3,0,0,0,1.23,1.63,1.32,1.32,0,0,0,1.66-.32,3,3,0,0,0,.55-1.67,21,21,0,0,0,.07-2.86.38.38,0,0,0-.75,0,22.62,22.62,0,0,1-.05,2.73c0,.46-.1,1.18-.55,1.46s-1.09-.47-1.3-.89a4.51,4.51,0,0,1-.46-2.34c0-.49-.73-.49-.75,0Z" transform="translate(-628.51 -601.46)"/><path d="M648.53,613.42v2.52a.38.38,0,0,0,.75,0v-2.52a.38.38,0,1,0-.75,0Z" transform="translate(-628.51 -601.46)"/><path d="M651.51,612.87a3.8,3.8,0,0,0,0,2.24,1.63,1.63,0,0,0,1.44,1,1.59,1.59,0,0,0,1.44-1.1,1.8,1.8,0,0,0-.52-1.78,2.24,2.24,0,0,0-2.14-.43.37.37,0,0,0,.2.72,1.54,1.54,0,0,1,1.29.15,1.1,1.1,0,0,1,.48,1c0-.05,0,0,0,0a.29.29,0,0,1,0,.09l0,.08c0,.06,0,0,0,0a1,1,0,0,1-.16.22.6.6,0,0,1-.22.17l-.07,0h0l-.16,0h-.21l-.12,0s0,0,0,0l-.1-.06c-.05,0,0,0,0,0l-.06,0-.11-.11,0,0a.43.43,0,0,1,0-.07,1,1,0,0,1-.1-.17l0-.11a1.8,1.8,0,0,1-.05-.19,2.38,2.38,0,0,1,0-.46,6.71,6.71,0,0,1,.13-1,.37.37,0,0,0-.72-.2Z" transform="translate(-628.51 -601.46)"/><path d="M655.36,613.18c0,.53,0,1.07,0,1.61a1.28,1.28,0,0,0,.57,1.2,1.39,1.39,0,0,0,1.24,0,1.76,1.76,0,0,0,.86-1,3.85,3.85,0,0,0,.17-1.69l-.7.19a1.24,1.24,0,0,1,0,.74,2.69,2.69,0,0,0,0,1,1,1,0,0,0,1.4.73c.42-.23,0-.88-.38-.65h-.1l-.07,0s-.06-.06-.07-.08,0-.06,0-.06a.3.3,0,0,1,0-.15,1.07,1.07,0,0,1,0-.31,2.61,2.61,0,0,0-.1-1.54.38.38,0,0,0-.7.19,3.49,3.49,0,0,1-.12,1.45,1.2,1.2,0,0,1-.32.45.79.79,0,0,1-.39.15h-.07l-.15,0,0,0-.08-.05a.26.26,0,0,1-.13-.16.9.9,0,0,1,0-.25c0-.57,0-1.15,0-1.72a.38.38,0,0,0-.75,0Z" transform="translate(-628.51 -601.46)"/><path d="M662.44,610.05l0,5.77a.37.37,0,0,0,.73.1,6.83,6.83,0,0,1,.54-1.27c.12-.2.24-.4.37-.59s.25-.4.41-.44.38.47.37.66a4.33,4.33,0,0,0,0,1.39.37.37,0,0,0,.72-.2c-.15-.58.17-1.18,0-1.77a1.11,1.11,0,0,0-1.09-.84c-.57.07-.93.67-1.21,1.11a7.28,7.28,0,0,0-.79,1.75l.74.1,0-5.77a.38.38,0,0,0-.75,0Z" transform="translate(-628.51 -601.46)"/><path d="M668.07,613.53a1,1,0,0,0-1.17-.39,1.26,1.26,0,0,0-.83,1,2.59,2.59,0,0,0,.13,1.38,1.16,1.16,0,0,0,1,.83.87.87,0,0,0,.89-1,.37.37,0,0,0-.46-.26.38.38,0,0,0-.26.46c0,.07,0-.08,0,0v0s0-.08,0,0l0,0s.06-.06,0,0l0,0s0,0,0,0l0,0,0,0c-.07,0,0,0,0,0l-.08,0h0s.08,0,0,0h0c.07,0-.05,0-.05,0h0l0,0,0,0s0,0,0,0l-.07-.08s0,0,0,0a.41.41,0,0,1,0-.09l0,0c0-.09,0,0,0,0s-.08-.29-.11-.44,0,0,0,0a.11.11,0,0,0,0-.05v-.12a1,1,0,0,1,0-.24s0-.13,0-.06a.5.5,0,0,1,0-.12l0-.11,0,0c0-.05,0,.07,0,0l0-.09s0,0,0,0l0,0,.07-.07c-.06.06,0,0,0,0l0,0s-.07,0,0,0l.1,0h0c-.05,0,0,0,0,0h.09c.05,0-.06,0,0,0h.07s0,0,0,0l0,0s0,0,0,0l0,0c.06.06,0-.07,0,0a.38.38,0,0,0,.51.13.38.38,0,0,0,.14-.51Z" transform="translate(-628.51 -601.46)"/><path d="M667.87,616.09a.75.75,0,0,0,0-1.5.75.75,0,0,0,0,1.5Z" transform="translate(-628.51 -601.46)"/><path d="M667.37,613.9a5.26,5.26,0,0,0,.52,2.56.75.75,0,0,0,1.37-.18.87.87,0,0,0-.08-.57l-.08-.18.08.17a4.37,4.37,0,0,1-.31-1.14l0,.2a4.1,4.1,0,0,1,0-.86.75.75,0,0,0-.75-.75.77.77,0,0,0-.75.75Z" transform="translate(-628.51 -601.46)"/><path d="M669.33,613.2a2.41,2.41,0,0,0,.63,2.11c.27.29.71.63,1.14.49s.52-.73.61-1.14l.33-1.52a.37.37,0,0,0-.26-.46.39.39,0,0,0-.46.26l-.33,1.47c0,.21-.08.43-.14.65a.14.14,0,0,0,0,.06s0,0,0,0,0,0,0,0a.05.05,0,0,1,0,0h0l-.08,0-.08-.05-.11-.08c.06,0,0,0-.06-.05a1.8,1.8,0,0,1-.19-.2h0l0,0-.06-.09c0-.08-.09-.16-.13-.24s0,0,0,0l0-.07s0-.08,0-.13a1.31,1.31,0,0,1-.06-.27c0,.08,0-.06,0-.07a.66.66,0,0,1,0-.14c0-.05,0-.09,0-.14h0s0-.05,0-.07a.37.37,0,0,0-.72-.2Z" transform="translate(-628.51 -601.46)"/><path d="M673.51,614.44a3,3,0,0,0,1.11-.48c.33-.23.74-.54.68-1a1,1,0,0,0-.91-.76,1.41,1.41,0,0,0-1,.41,2.36,2.36,0,0,0-.61,2,1.74,1.74,0,0,0,1.26,1.48,1.42,1.42,0,0,0,1.71-1,.38.38,0,0,0-.26-.46.37.37,0,0,0-.46.26s0,0,0,.07l0,.05s0,0,0,0l-.05.07,0,0,0,0c.06,0,0,0,0,0a.85.85,0,0,1-.47.12.74.74,0,0,1-.41-.15,1.12,1.12,0,0,1-.34-.51,1.71,1.71,0,0,1,.11-1.33,1,1,0,0,1,.44-.44l.12,0h.11c.08,0,.11,0,.19.09s0,0,0,0,0,.05,0,0,0,0,0,0-.05.06-.05.07a1.81,1.81,0,0,1-.34.28,2.53,2.53,0,0,1-.87.35.38.38,0,0,0,.2.73Z" transform="translate(-628.51 -601.46)"/><path d="M653.93,618.82l-.56,6.39a.76.76,0,0,0,.75.75.78.78,0,0,0,.75-.75,23.46,23.46,0,0,1,.51-3.43,10.16,10.16,0,0,1,.54-1.58,2.91,2.91,0,0,1,.75-1.11c-.09.07-.1-.11,0,.12,0,.07.08.38.09.42.09.68.14,1.36.21,2l.41,4.06a.78.78,0,0,0,.75.75.76.76,0,0,0,.75-.75l-.39-3.84-.19-1.88a4.48,4.48,0,0,0-.34-1.54,1.44,1.44,0,0,0-1.19-.85,1.69,1.69,0,0,0-1.44.7,8.2,8.2,0,0,0-1.39,3.08,25.87,25.87,0,0,0-.56,3.82h1.5l.56-6.39a.75.75,0,0,0-.75-.75.77.77,0,0,0-.75.75Z" transform="translate(-628.51 -601.46)"/><path d="M654.65,623.46l3.2-.3a.75.75,0,0,0,0-1.5l-3.2.3a.77.77,0,0,0-.75.75.76.76,0,0,0,.75.75Z" transform="translate(-628.51 -601.46)"/><path d="M659.26,618.69v5.5c0,.78-.11,1.86.81,2.19a4.3,4.3,0,0,0,2.6-.21.77.77,0,0,0,.53-.92.76.76,0,0,0-.93-.52,3.8,3.8,0,0,1-.94.23,4.7,4.7,0,0,1-.53,0,2.46,2.46,0,0,0-.26,0s.18.14.21.14,0,0,0,0a1.21,1.21,0,0,0,0-.18v-6.26a.75.75,0,0,0-1.5,0Z" transform="translate(-628.51 -601.46)"/><path d="M663.19,618.63v5.44a4.21,4.21,0,0,0,.07,1.28,1.37,1.37,0,0,0,.89.85,5,5,0,0,0,2.67.1.75.75,0,0,0-.4-1.45,4.45,4.45,0,0,1-1.82-.07c.12,0,0,.12.09,0a1.88,1.88,0,0,0,0-.53v-5.64a.75.75,0,0,0-1.5,0Z" transform="translate(-628.51 -601.46)"/><path d="M653.44,632.77c1.84-1.13,4.7-3,4.49-5.47a.38.38,0,0,0-.27-.36c-1.3-.41-1.89,1.34-2.16,2.27a9.37,9.37,0,0,0-.38,2.3c0,.46-.12,1.2.31,1.53,1,.75,1.39-1.46,1.17-2.06a1.26,1.26,0,0,0-2.18-.36.38.38,0,0,0,.33.57A6.67,6.67,0,0,0,660,628.5l-.65-.38a31.69,31.69,0,0,0-1.92,4.77c-.13.4.5.67.68.29a5.07,5.07,0,0,1,1-1.45,2.8,2.8,0,0,1,.57-.46c.3-.16.11,0,.12.28A1.58,1.58,0,0,0,661,633c1.68.55,2.66-1.32,2.25-2.74a.37.37,0,0,0-.46-.26,1.22,1.22,0,0,0-.14,2.17c1.13.76,3,.51,4.17.14.46-.14.27-.86-.19-.72a6.63,6.63,0,0,1-2.25.28,3.76,3.76,0,0,1-.94-.15c-.24-.08-1.11-.76-.45-1l-.47-.26c.24.8-.15,2.17-1.24,1.85s-.38-1.1-.83-1.68c-.86-1.13-2.65,1.54-2.94,2.17l.68.29A30.37,30.37,0,0,1,660,628.5a.38.38,0,0,0-.65-.38,5.82,5.82,0,0,1-4.61,2.32l.32.56c.2-.28.63-.09.78.12a1.09,1.09,0,0,1,.07.75,2.44,2.44,0,0,1-.21.53c.2.19.15-.57.15-.54,0-.31,0-.63,0-.94.08-.65.53-3.58,1.55-3.25l-.28-.37a3.51,3.51,0,0,1-1.41,2.79,17.32,17.32,0,0,1-2.71,2c-.41.25,0,.9.38.64Z" transform="translate(-628.51 -601.46)"/><path d="M644,635.82v2.4a.38.38,0,0,0,.37.37.38.38,0,0,0,.38-.37v-2.4a.38.38,0,1,0-.75,0Z" transform="translate(-628.51 -601.46)"/><path d="M644.41,635.34a.75.75,0,0,0,0-1.5.75.75,0,0,0,0,1.5Z" transform="translate(-628.51 -601.46)"/><path d="M645.45,636.06a7.8,7.8,0,0,0,.28,2.35.38.38,0,0,0,.74-.1,2.43,2.43,0,0,1,.26-1.43,1.5,1.5,0,0,1,.38-.48,1.25,1.25,0,0,1,.24-.15h0l.08,0s.15,0,.08,0a.75.75,0,0,1,.46.08l.06,0s0,0,0,0,.1.11.06.06a.69.69,0,0,1,.11.28,3.52,3.52,0,0,1,0,.72,6.85,6.85,0,0,1-.13.79.38.38,0,1,0,.73.2,7,7,0,0,0,.18-1.58,1.33,1.33,0,0,0-.69-1.2,1.52,1.52,0,0,0-1.33,0,2.18,2.18,0,0,0-.93,1,3.27,3.27,0,0,0-.32,1.74l.73-.1a7.44,7.44,0,0,1-.25-2.15.38.38,0,0,0-.38-.37.37.37,0,0,0-.37.37Z" transform="translate(-628.51 -601.46)"/><path d="M651.78,634c-.47-.09-1.18-.19-1.55.18a1.05,1.05,0,0,0-.26.69c0,.29-.08.59-.1.89a14.75,14.75,0,0,0,.17,3.51c.08.47.8.27.72-.2a14.07,14.07,0,0,1-.17-2.75,12.3,12.3,0,0,1,.12-1.35c0-.18,0-.26.15-.28a2.18,2.18,0,0,1,.72,0c.47.1.67-.63.2-.72Z" transform="translate(-628.51 -601.46)"/><path d="M649.93,637a11.53,11.53,0,0,1,2.49-.21.37.37,0,0,0,.37-.37.38.38,0,0,0-.37-.38,12.81,12.81,0,0,0-2.69.23.38.38,0,0,0,.2.73Z" transform="translate(-628.51 -601.46)"/><path d="M653.52,635.89a1.2,1.2,0,0,0-.84.42,1.7,1.7,0,0,0-.36,1,1.44,1.44,0,0,0,.23,1,2.21,2.21,0,0,0,.87.49,1.52,1.52,0,0,0,1,.06,1.51,1.51,0,0,0,.76-.65,1.94,1.94,0,0,0,.32-1,1.36,1.36,0,0,0-.34-.87,1.3,1.3,0,0,0-1.88,0,.39.39,0,0,0,0,.53.37.37,0,0,0,.53,0l.06-.05.12-.07c.06,0,0,0,0,0l.07,0,.07,0c.1,0-.07,0,0,0h.14c-.08,0,0,0,.07,0l.06,0s-.05,0,0,0l.06,0c.06,0,0,0,0,0l.1.09h0l0,.06,0,.06s0,0,0,0a.83.83,0,0,1,0,.15c0-.07,0,0,0,0v.09a.49.49,0,0,1,0,.11,1.2,1.2,0,0,1-.13.31.64.64,0,0,1-.08.14l0,.07s0,.05,0,0l-.1.12-.06.05,0,0s-.1,0-.06,0-.15,0-.1,0H654l-.15,0a2.55,2.55,0,0,1-.59-.25l-.07,0,0,0,0,0s0,0,0,0,0,0,0,0,0-.12,0-.19v-.21a.9.9,0,0,1,0-.13.67.67,0,0,1,.1-.3l0-.06,0,0,0,0,0,0,.06,0s.1,0,0,0l.06,0h0a.38.38,0,0,0,.38-.37.39.39,0,0,0-.38-.38Z" transform="translate(-628.51 -601.46)"/><path d="M656.12,636.13a14.1,14.1,0,0,0,.06,2.43.38.38,0,0,0,.32.37.37.37,0,0,0,.41-.27c.06-.34.08-.74.13-1.06,0-.15.06-.3.1-.45s.05-.14.08-.22v0a.47.47,0,0,0,0-.1l.12-.18,0,0,.07-.07.06,0,.05,0,.09,0c.09,0-.05,0,0,0l.1,0h.06s.06,0,.07,0h.09c.1,0-.06,0,0,0l.1,0c-.06,0,0,0,0,0s.09.06,0,0a.39.39,0,0,0,.53,0,.38.38,0,0,0,0-.53,1.33,1.33,0,0,0-1.12-.26,1.62,1.62,0,0,0-.92.64,4.86,4.86,0,0,0-.57,2.23l.74.1a14.1,14.1,0,0,1-.06-2.43.39.39,0,0,0-.38-.38.38.38,0,0,0-.37.38Z" transform="translate(-628.51 -601.46)"/><path d="M658.87,636.06v1.77a.38.38,0,0,0,.75,0,4,4,0,0,1,1-2.46l.1-.09c.06-.07.06,0,0,0s-.08-.06,0,0l0,0,.06.16a2.62,2.62,0,0,1,.11.69,7.21,7.21,0,0,1-.19,1.46l.72.2a5.41,5.41,0,0,1,.42-1.29,4.88,4.88,0,0,1,.34-.58c.06-.09.17-.31.29-.31s.24.15.28.26a1.68,1.68,0,0,1,.07.63c0,.52,0,1.05,0,1.58a.38.38,0,0,0,.75,0c0-.64,0-1.28,0-1.91a1.27,1.27,0,0,0-1-1.3c-.64-.08-1,.56-1.27,1.05a5.86,5.86,0,0,0-.6,1.67.37.37,0,0,0,.26.46.37.37,0,0,0,.46-.26,6.13,6.13,0,0,0,.19-2c-.06-.55-.34-1.6-1.12-1.24a1.9,1.9,0,0,0-.65.64,4,4,0,0,0-.45.77,5.17,5.17,0,0,0-.44,1.85h.75v-1.77a.38.38,0,0,0-.75,0Z" transform="translate(-628.51 -601.46)"/><path d="M666.08,636.11a.78.78,0,0,0-.51-.49,1,1,0,0,0-.71.07,1.39,1.39,0,0,0-.59,1.3,2,2,0,0,0,.52,1.38c.45.48,1-.06,1.2-.49.1-.21.18-.43.27-.66a.86.86,0,0,1,.11-.24.54.54,0,0,1,.07-.13.43.43,0,0,1,0-.07c0-.06,0,0,0,0l-.64-.26a4.1,4.1,0,0,0,.07,1.16,1.71,1.71,0,0,0,.4.91.79.79,0,0,0,.95.13,1.41,1.41,0,0,0,.56-.71.38.38,0,0,0-.13-.51.39.39,0,0,0-.52.13,1.47,1.47,0,0,1-.14.28l-.05.07s0,0,0,0L667,638s0,0,0,0l-.06,0s.13,0,0,0,0,0,0,0h0s0,0,0,0l0-.07a1,1,0,0,1-.09-.26c0-.12-.06-.25-.08-.37a3.86,3.86,0,0,1,0-.83.38.38,0,0,0-.64-.27,3.42,3.42,0,0,0-.56,1.09l-.08.19a.83.83,0,0,0-.07.13l0,.07-.07.08-.06.05s0,0,0,0c.25.1.33.1.23,0l0,0a.43.43,0,0,1-.07-.1,1.47,1.47,0,0,1-.16-1.1l0-.08a.89.89,0,0,1,0-.1l.06-.06h0l.05,0h0l.07,0s0,0,0,0h0s0,0,0,0a.1.1,0,0,1,0,0h0a.06.06,0,0,1,0-.06.39.39,0,0,0,.46.27.37.37,0,0,0,.26-.46Z" transform="translate(-628.51 -601.46)"/><path d="M668.51,633c-.09,1.47-.17,3-.18,4.44,0,.55.25,1.15.9,1.08s.9-.7.94-1.28-.73-.48-.75,0c0,.16,0,.4-.17.5s-.13,0-.16-.06a2.83,2.83,0,0,1,0-.65c0-.27,0-.54,0-.8,0-1.08.08-2.16.15-3.23,0-.49-.72-.48-.75,0Z" transform="translate(-628.51 -601.46)"/><path d="M668,636.36c.55-.12,1.1-.22,1.65-.31l.83-.13.42-.06H671c.08,0,0,0-.1-.09s0,.07,0,.1a2.89,2.89,0,0,1-.15,1.27,3.39,3.39,0,0,0-.13,1.48.38.38,0,0,0,.46.27.4.4,0,0,0,.26-.47,3.91,3.91,0,0,1,.21-1.43,2.21,2.21,0,0,0,0-1.62c-.21-.32-.55-.27-.87-.22l-1,.14c-.63.1-1.26.21-1.88.35a.37.37,0,0,0-.26.46.39.39,0,0,0,.46.26Z" transform="translate(-628.51 -601.46)"/><path d="M671.07,634.72a.75.75,0,0,0,0-1.5.75.75,0,0,0,0,1.5Z" transform="translate(-628.51 -601.46)"/><path d="M673,636.1a2,2,0,0,0,.18,1.7,1.5,1.5,0,0,0,1.36.68.94.94,0,0,0,.79-.47,1.59,1.59,0,0,0,.1-.84,2.42,2.42,0,0,0-.69-1.42.78.78,0,0,0-1.45.4.38.38,0,0,0,.73.2.5.5,0,0,1,0-.12s0-.13,0-.06l.05-.1s0,0,0,0-.06,0,0,0l-.09,0h0c-.05,0,0,0,0,0l.06,0h0l.05,0,.1.1.1.1,0,.05s0-.05,0,0a1.76,1.76,0,0,1,.14.23l.06.13c0-.06,0,0,0,.07a1.38,1.38,0,0,1,.08.29v0h0a.66.66,0,0,1,0,.14v.14s0,0,0,.07,0,0,0,0,0,.12,0,0,0,0,0,0,0,0,0,0l-.06,0h0l-.06,0h-.12s-.14,0-.06,0l-.13,0-.06,0c-.07,0,0,0,0,0l-.11-.06,0,0-.09-.09,0,0s0,0,0,0a1,1,0,0,1-.08-.14.16.16,0,0,1,0-.07v0c0-.05,0-.11,0-.16l0-.08c0,.06,0,0,0,0a1.3,1.3,0,0,1,0-.34c0-.06,0,0,0,0s0-.07,0-.1,0-.12.05-.18a.37.37,0,0,0-.26-.46.38.38,0,0,0-.46.26Z" transform="translate(-628.51 -601.46)"/><path d="M675.62,635.88a15.1,15.1,0,0,0,.13,2.33.37.37,0,0,0,.33.37.38.38,0,0,0,.41-.27c.11-.44.22-.89.35-1.34a2.44,2.44,0,0,1,.5-1,.57.57,0,0,1,.16-.11l.07,0h0a.57.57,0,0,1,.32.2,1.62,1.62,0,0,1,.18,1.09,2.79,2.79,0,0,0,.25,1.48c.24.42.88,0,.65-.38a2.49,2.49,0,0,1-.14-1.3,2,2,0,0,0-.42-1.43,1.12,1.12,0,0,0-1.35-.29,2.16,2.16,0,0,0-.88,1.21c-.2.55-.32,1.14-.47,1.7l.74.1a15.1,15.1,0,0,1-.13-2.33.38.38,0,0,0-.75,0Z" transform="translate(-628.51 -601.46)"/><path d="M655.72,640.84c.07.62-.38,1.15-.32,1.79a1,1,0,0,0,.77.91c1.22.24,1.44-1.27,2.1-1.86l-.62-.37a15.33,15.33,0,0,1-.88,3c-.19.46-.41.91-.64,1.34,0,.08-.41.68-.16.3.13-.21.25-.42.39-.62a13.7,13.7,0,0,1,4.15-4h-.38a4.65,4.65,0,0,1-.25.61,1,1,0,0,0,0,.57.69.69,0,0,0,.8.45,1.12,1.12,0,0,0,.67-1.71l-.23.55a5.38,5.38,0,0,1,1.82-.29l-.37-.38c0,.53-.56,1.32.29,1.56a1.12,1.12,0,0,0,.86-.24c.47-.3.9-.67,1.35-1l-.51-.13a1.91,1.91,0,0,0,2.54.94c.44-.2.06-.84-.38-.65a1.17,1.17,0,0,1-1.52-.67.37.37,0,0,0-.51-.13l-.67.5a3.55,3.55,0,0,1-.68.49c-.27.1-.17.11-.09-.17a1.41,1.41,0,0,0,.07-.5.38.38,0,0,0-.38-.37,6,6,0,0,0-2,.31.38.38,0,0,0-.22.55c.05.07.13.62,0,.53a4,4,0,0,1,.2-.57.79.79,0,0,0-.32-.9.39.39,0,0,0-.38,0,15,15,0,0,0-3.07,2.54,15.52,15.52,0,0,0-1.25,1.56,2.74,2.74,0,0,0-.69,1.48.67.67,0,0,0,.79.66c.55-.11.83-.83,1.05-1.26a14.92,14.92,0,0,0,1.41-4.21.38.38,0,0,0-.63-.36,2.32,2.32,0,0,0-.53.71c-.15.28-.28.71-.6.86-.63.3-.43-.53-.32-.83a2.35,2.35,0,0,0,.18-1c-.05-.48-.8-.48-.75,0Z" transform="translate(-628.51 -601.46)"/><path d="M651.67,648.33a26.21,26.21,0,0,0,.39,3.74.75.75,0,0,0,1.47-.2,17.75,17.75,0,0,1-.09-2.06,4.56,4.56,0,0,1,.09-.87,4.21,4.21,0,0,1,.12-.48,1.55,1.55,0,0,1,.08-.23l0-.12a.38.38,0,0,1-.17.21l-.38.1a.36.36,0,0,1-.33-.16h0s.07.16,0,.08c.05.12.09.25.13.38a6.69,6.69,0,0,1,.16.75,12.12,12.12,0,0,0,.3,1.48,3.1,3.1,0,0,0,2,2.16.77.77,0,0,0,1-.73c0-1.49,0-3,.09-4.49a.75.75,0,0,0-1.5,0c-.09,1.5-.12,3-.09,4.49l.95-.72-.15,0-.11-.06-.08,0s.11.09,0,0l-.16-.16s-.14-.19-.07-.07a1.63,1.63,0,0,0-.11-.17c0-.06-.07-.13-.11-.2s-.1-.22-.05-.09a11.55,11.55,0,0,1-.44-2c-.16-.75-.55-2.13-1.6-1.84-.51.14-.68.66-.82,1.11a7.15,7.15,0,0,0-.22,1.21,14.1,14.1,0,0,0,0,2.6l1.48-.2a21.6,21.6,0,0,1-.34-3.34.77.77,0,0,0-.75-.75.76.76,0,0,0-.75.75Z" transform="translate(-628.51 -601.46)"/><path d="M656.57,648.33c0,.72,0,1.44,0,2.16a4.21,4.21,0,0,0,.35,1.89,1.8,1.8,0,0,0,.72.7,3.45,3.45,0,0,0,1.14.27,1.68,1.68,0,0,0,1.92-1.05.75.75,0,1,0-1.45-.4c0-.08,0-.09,0,0s0,0,0,0,0,0,0,0l-.07,0,0,0s-.19,0-.11,0h-.13l-.19,0-.19,0c-.23,0,.14,0-.08,0l-.14,0s-.19-.09-.08,0-.16-.11-.08,0,0,0,0-.06,0,.08,0,0a.83.83,0,0,1-.07-.13c.09.15,0,0,0,0l0-.14,0-.15c0-.15,0,.08,0,0l0-.3c0-.28,0-.56,0-.84q0-.87,0-1.74a.75.75,0,0,0-.75-.75.77.77,0,0,0-.75.75Z" transform="translate(-628.51 -601.46)"/><path d="M657.49,651h1.2a.75.75,0,0,0,.75-.75.77.77,0,0,0-.22-.53.79.79,0,0,0-.53-.22h-1.2a.81.81,0,0,0-.53.22.77.77,0,0,0-.22.53.73.73,0,0,0,.22.53.77.77,0,0,0,.53.22Z" transform="translate(-628.51 -601.46)"/><path d="M657.32,648.92a16.14,16.14,0,0,0,3-.33.75.75,0,0,0,.52-.92.77.77,0,0,0-.92-.53l-.7.13-.16,0s-.22.05,0,0l-.35,0c-.46,0-.92.07-1.39.08a.76.76,0,0,0-.75.75.77.77,0,0,0,.75.75Z" transform="translate(-628.51 -601.46)"/><path d="M660.88,648.14c0,1.24-.25,2.55.45,3.66a2.45,2.45,0,0,0,1.44,1.1,2.1,2.1,0,0,0,1.84-.4.75.75,0,0,0,0-1.06.78.78,0,0,0-1.07,0c.16-.12,0,0,0,0s.09,0,0,0l-.13,0c-.15,0,.16,0,0,0h-.14c-.15,0,0,0,0,0l-.15,0-.07,0c.11,0,0,0-.06,0l-.14-.08c-.11-.08.06.06,0,0l-.11-.1-.11-.13c.06.07,0,0,0,0s-.17-.23-.16-.29l0,.08,0-.09s0-.09-.05-.14,0-.21-.07-.31a.8.8,0,0,1,0-.15v0c0-.12,0-.24,0-.36,0-.54.06-1.09.07-1.64a.75.75,0,0,0-1.5,0Z" transform="translate(-628.51 -601.46)"/><path d="M661.78,650.54a4.64,4.64,0,0,0,.83-.06,3.33,3.33,0,0,0,.64-.16.79.79,0,0,0,.45-.35.72.72,0,0,0,.08-.57.72.72,0,0,0-.35-.45.74.74,0,0,0-.58-.08,3.22,3.22,0,0,1-.68.17l.2,0a3,3,0,0,1-.59,0,.77.77,0,0,0-.54.22.74.74,0,0,0-.21.53.76.76,0,0,0,.21.53.84.84,0,0,0,.54.22Z" transform="translate(-628.51 -601.46)"/><path d="M661.78,648.83a10.37,10.37,0,0,0,3.18-.41.76.76,0,0,0,.53-.92.77.77,0,0,0-.93-.53c-.23.07-.47.14-.71.19l-.37.07-.2,0c-.16,0,.15,0,0,0a10.55,10.55,0,0,1-1.48.07.75.75,0,0,0,0,1.5Z" transform="translate(-628.51 -601.46)"/><path d="M665.22,648.33v3.9h1.5c0-.73,0-1.46,0-2.19,0-.37,0-.74.09-1.1,0-.06,0-.24,0-.09l0-.13a.93.93,0,0,0,0,.1l-.08.06s.1,0,0,0,0,0,0,0h.08s.24.08.1,0a1.4,1.4,0,0,1,.17.09s.1.06,0,0,0,0,0,0a1.21,1.21,0,0,1,.16.16c-.07-.09,0,.06,0,.09a1.62,1.62,0,0,1,.1.18c0-.11,0,0,0,0a.74.74,0,0,1,0,.14,1.6,1.6,0,0,1,0,.21l0,.14s0-.11,0,0,0,.32,0,.49,0,.21,0,.14,0,.11,0,.14a2,2,0,0,1-.07.23l0,.1c0,.1.05-.08,0,0s-.1.16-.14.23,0,0,0,0l-.08.09s-.21.18-.08.09l-.19.12-.08,0h0l-.21.05s.13,0,0,0h-.16s-.12,0,0,0-.08,0-.08,0a.75.75,0,0,0-.4,1.44,2.34,2.34,0,0,0,2.37-.81,3.42,3.42,0,0,0,.61-2.72,2.6,2.6,0,0,0-1.67-2.11,1.51,1.51,0,0,0-2.1,1.59,23.94,23.94,0,0,0-.12,3.17.75.75,0,0,0,1.5,0v-3.9a.76.76,0,0,0-.75-.75.77.77,0,0,0-.75.75Z" transform="translate(-628.51 -601.46)"/><path d="M639,628.48a21,21,0,0,0-4.55.18.75.75,0,0,0-.52.92.77.77,0,0,0,.92.52l1-.1,1.06-.07c.72,0,1.43,0,2.14.05a.75.75,0,0,0,0-1.5Z" transform="translate(-628.51 -601.46)"/><path d="M641.24,621a33.15,33.15,0,0,0-3-1.34.75.75,0,1,0-.4,1.45l.72.28.2.09s.2.08,0,0l.36.15c.47.21.94.43,1.4.66a.75.75,0,0,0,.75-1.3Z" transform="translate(-628.51 -601.46)"/><path d="M639.67,637.43l-1.85,1.05a.77.77,0,0,0-.27,1,.78.78,0,0,0,1,.27l1.85-1.06a.75.75,0,0,0,.34-.44.78.78,0,0,0-.07-.58.76.76,0,0,0-1-.27Z" transform="translate(-628.51 -601.46)"/><path d="M682.44,628.15l5.16-.52a.75.75,0,0,0,0-1.5l-5.16.52a.78.78,0,0,0-.75.75.76.76,0,0,0,.75.75Z" transform="translate(-628.51 -601.46)"/><path d="M681.61,622.17a9,9,0,0,1,.7-.68l.2-.16s.06-.07.09-.07l0,0,0,0L683,621a9.09,9.09,0,0,1,.86-.49l.22-.11.11-.05s.13,0,0,0l.06,0,.11,0,.26-.1a.75.75,0,1,0-.4-1.45,9.09,9.09,0,0,0-3.72,2.43.75.75,0,1,0,1.06,1.06Z" transform="translate(-628.51 -601.46)"/><path d="M681.82,635.28h.09l.2,0a3,3,0,0,1,.43.09,6.94,6.94,0,0,1,.78.22l.39.14.09,0,.16.07a8.14,8.14,0,0,1,.77.41.75.75,0,0,0,.76-1.3,9.52,9.52,0,0,0-3.67-1.21.75.75,0,0,0-.75.75.77.77,0,0,0,.75.75Z" transform="translate(-628.51 -601.46)"/></svg>