<svg id="Lager_1" data-name="Lager 1" xmlns="http://www.w3.org/2000/svg" xmlns:xlink="http://www.w3.org/1999/xlink" viewBox="0 0 56.18 56.56"><defs><style>.cls-1{fill:url(#Namnlös_övertoning_61);}.cls-2,.cls-3{fill:none;stroke-miterlimit:10;}.cls-2{stroke:#ff94f0;}.cls-3{stroke:#ff3ef0;}</style><linearGradient id="Namnlös_övertoning_61" x1="-4.43" y1="21.35" x2="57.07" y2="34.1" gradientUnits="userSpaceOnUse"><stop offset="0" stop-color="#f908c0"/><stop offset="1" stop-color="#ff94f0"/></linearGradient></defs><title>Namnlöst-13</title><polygon class="cls-1" points="35.02 56.18 0 56.18 0 0 56.18 0 56.18 38.42 35.02 56.18"/><path class="cls-2" d="M667.29,661.4c2.25-1.89,5.3-9,5.3-20" transform="translate(-632.27 -605.22)"/><path class="cls-3" d="M672.59,641.37c0,1.26,7.09,2.28,15.86,2.28" transform="translate(-632.27 -605.22)"/><path d="M652.16,621.31a2.93,2.93,0,0,0-3.91-.86A3,3,0,0,0,647,622.1a1.74,1.74,0,0,0,.85,2.08,4,4,0,0,0,2.16.26,8.79,8.79,0,0,0,1.23-.21,2,2,0,0,1,.49-.1.48.48,0,0,1,.31,0,1.08,1.08,0,0,1,.41.34,1.06,1.06,0,0,1,.21.7,1.31,1.31,0,0,1-.21.54,1.54,1.54,0,0,1-.59.51,2,2,0,0,1-1.8-.08,2.46,2.46,0,0,1-.82-.64l-.06-.09c-.12-.1.1-.17-.07.07a.3.3,0,0,1-.43,0,.75.75,0,0,0,1.06,0,.76.76,0,0,0,0-1.06,1.24,1.24,0,0,0-2.05.61c-.22.94.56,1.7,1.25,2.19a3.44,3.44,0,0,0,4.47-.32,2.56,2.56,0,0,0-.56-4,2.3,2.3,0,0,0-1.12-.28,10.41,10.41,0,0,0-1.46.27,5.42,5.42,0,0,1-1.14.07,1.42,1.42,0,0,1-.65-.15c-.06-.05-.07-.07-.06-.22a1,1,0,0,1,.18-.42,1.37,1.37,0,0,1,2.27-.11.77.77,0,0,0,1,.27.76.76,0,0,0,.27-1Z" transform="translate(-632.27 -605.22)"/><path d="M654.57,624.06c0,1.58.08,3.17.23,4.75a.75.75,0,0,0,1.5,0c-.15-1.58-.22-3.17-.23-4.75a.75.75,0,0,0-.75-.75.76.76,0,0,0-.75.75Z" transform="translate(-632.27 -605.22)"/><path d="M655.12,624.52l.88-.45.43-.22.16-.08.09,0c.08-.05-.15,0,0,0a1.92,1.92,0,0,1,.37-.11s.11,0,0,0,0,0,0,0h.09c.09,0-.17,0-.05,0l.08,0s-.16-.08-.06,0-.12-.1,0,0-.08-.13,0,0l.05.08c0,.08-.05-.15,0-.06s0,.08,0,.11,0,.06,0,.09,0,0,0-.06,0,.12,0,.16,0,.26,0,.39,0,.1,0-.06c0,0,0,.06,0,.09l0,.16c0,.06,0,.12-.05.17a.25.25,0,0,0,0,.07l0,.06c0,.06,0,0,0-.07s-.06.11-.08.16l-.09.13c-.1.15.1-.11,0,0l-.14.15c-.09.08.13-.08,0,0l-.13.07c-.08,0,.16,0,.07,0l0,0-.19,0s-.1,0,0,0,0,0,0,0h-.17c.14,0,0,0,0,0l-.16,0c-.08,0,.15.08.08,0l-.08,0-.06,0s.14.13,0,0l0-.05c-.09-.09,0,0,0,.05s-.07-.11-.09-.16a.76.76,0,0,0-1-.27.78.78,0,0,0-.27,1,1.85,1.85,0,0,0,1.71,1,2.2,2.2,0,0,0,1.83-1.07,3.17,3.17,0,0,0,.42-2,1.77,1.77,0,0,0-.53-1.19,1.61,1.61,0,0,0-1.37-.35,4,4,0,0,0-1.14.45l-1.21.61a.76.76,0,0,0-.27,1,.77.77,0,0,0,1,.27Z" transform="translate(-632.27 -605.22)"/><path d="M659.4,624.46l2.42-.54a.76.76,0,0,0,.55-.72,1.63,1.63,0,0,0-1.68-1.64,2.19,2.19,0,0,0-1.91,1.57,4.19,4.19,0,0,0-.18,1.27,4,4,0,0,0,.11,1.15,1.66,1.66,0,0,0,.8,1.05,2.19,2.19,0,0,0,1.21.22,2.26,2.26,0,0,0,2-1.49.76.76,0,0,0-.52-.93.78.78,0,0,0-.93.53.25.25,0,0,1,0,.07c0,.08,0-.07,0-.07a.91.91,0,0,1-.08.13s.1-.11,0,0l0,0s0,0-.05.05-.08,0,0,0a1,1,0,0,0-.27.15s.14,0,.06,0l-.07,0-.17,0s-.2,0-.08,0,0,0-.08,0h-.25s.15,0,0,0l-.11,0s-.1,0,0,0-.11-.11,0,0,0,0,0,0,0-.07,0,0,0,0,0,0,0,0,0,0a1.4,1.4,0,0,0-.09-.31s0,.15,0,.06a.22.22,0,0,0,0-.08,1.15,1.15,0,0,0,0-.19v-.43c0-.06,0-.13,0-.2a.34.34,0,0,1,0-.1s0-.16,0-.07,0,0,0,0a.44.44,0,0,1,0-.1,1.33,1.33,0,0,1,.05-.19l0-.1s0-.11,0,0v0l0-.1s.14-.18.07-.1,0-.06.07-.07.15-.12.07-.07l.11-.06s.1,0,0,0,0,0,0,0l.08,0h0s0,0,0,0h0l.08,0s-.14-.07,0,0l.09,0s-.11-.1,0,0l0,.06c.08.06-.09-.11,0,0s0,.07,0,.07l0-.09v0s0,.12,0,0,0,0,0,.05l.56-.73L659,623a.75.75,0,0,0,.4,1.45Z" transform="translate(-632.27 -605.22)"/><path d="M664,623l.24-.16a.39.39,0,0,0,.11-.06h0l.28-.09.12,0s.2,0,.09,0h.22c.06,0,.28,0,.12,0l.12,0c.12,0,0,0,0,0s0-.08-.09-.12,0,0,0,0a.29.29,0,0,1,0,.09c0,.07,0,.06,0,0a.77.77,0,0,0,0,.15l0,.35q0,.33.06.66c0,.46.06.93.06,1.4h1.5a2.33,2.33,0,0,0-.94-1.95,1.64,1.64,0,0,0-2,.13c-.88.77-1.16,3,.34,3.25a2.52,2.52,0,0,0,2.2-.75.75.75,0,1,0-1.06-1.06l-.13.12c-.11.12.09,0,0,0l-.15.09c-.14.09.1,0-.05,0l-.17.05-.12,0h.08a.55.55,0,0,1-.18,0h-.13l.09,0c-.08,0-.15-.07,0,0a.34.34,0,0,1,.12.12l0,.09a.36.36,0,0,1,0-.1v.09s0-.13,0-.16,0-.11,0-.16,0-.07,0-.1V625s.07-.29.08-.33l0-.07q-.06.14,0,.06l.07-.14,0-.06h0s0,0,0,0a.12.12,0,0,1,.05-.05s-.14.1,0,0-.06,0,0,0H665c-.09,0-.11,0,0,0h0l.08,0c-.08,0-.09,0,0,0s.17.11.09.05l.08.08s0,0,0,0l0,.09a.56.56,0,0,1,0,.08c0-.07,0-.08,0,0l.06.19s0,.07,0,.1,0-.09,0,0,0,.16,0,.24a.75.75,0,0,0,1.5,0c0-.56,0-1.12-.08-1.67,0-.27,0-.55-.08-.82a2.11,2.11,0,0,0-.25-.92,1.71,1.71,0,0,0-1.63-.59,3.37,3.37,0,0,0-1.57.55.77.77,0,0,0-.27,1,.76.76,0,0,0,1,.27Z" transform="translate(-632.27 -605.22)"/><path d="M667.17,620.42c.17.81.31,1.63.4,2.45s.12,1.76.24,2.63a.76.76,0,0,0,.73.55.78.78,0,0,0,.72-.55,10.2,10.2,0,0,1,.79-1.85c.08-.15.18-.3.27-.45a1.89,1.89,0,0,1,.25-.31,3.06,3.06,0,0,1,.36-.36s.19-.14.08-.07l.25-.16a.75.75,0,0,0-.75-1.3c-1.48.91-2.14,2.54-2.7,4.1h1.45c0-.32,0-.77-.08-1.14s-.08-.86-.13-1.29c-.11-.89-.25-1.77-.43-2.65a.76.76,0,0,0-.92-.53.77.77,0,0,0-.53.93Z" transform="translate(-632.27 -605.22)"/><path d="M669.16,623.51a7.41,7.41,0,0,0,1,1.26,2.76,2.76,0,0,0,1.46.81.81.81,0,0,0,.57-.08.75.75,0,0,0,.35-.45.76.76,0,0,0-.08-.57.72.72,0,0,0-.45-.35,1.42,1.42,0,0,1-.4-.12l.18.08a2.32,2.32,0,0,1-.46-.27l.15.11a4,4,0,0,1-.67-.69l.12.15c-.16-.2-.3-.42-.44-.63a.82.82,0,0,0-.45-.35.78.78,0,0,0-.58.08.75.75,0,0,0-.27,1Z" transform="translate(-632.27 -605.22)"/><path d="M658,629.46a4.73,4.73,0,0,0-1.28,2.15,9.26,9.26,0,0,1-1.81,3l.59.46c.31-.54.62-1.08.92-1.63a1.24,1.24,0,0,0,.26-1c-.27-.8-1.18-.53-1.68-.16a.38.38,0,0,0-.08.59c.48.5,1.11.35,1.7.13,1-.4,2-.82,3.08-1.23l-.48-.36a2.71,2.71,0,0,1-.57,1.82l.63.36a2.85,2.85,0,0,1,.69-1.09c.14-.14.37-.41.54-.43s.14-.12.11,0a1.7,1.7,0,0,1,0,.22,1.28,1.28,0,0,0,.19,1.13.37.37,0,0,0,.36.1,4.83,4.83,0,0,0,1.75-1.16c.35-.38.9-1,.81-1.55a.91.91,0,0,0-.93-.72c-.59,0-.93.54-1.12,1s.37.57.63.37a3.19,3.19,0,0,1,2.06-.7l-.36-.48a15.5,15.5,0,0,1-.71,2.22.37.37,0,0,0,.62.37,14.61,14.61,0,0,1,2.66-2.55l-.56-.23a2,2,0,0,1-.34,1.7l.65.38a5.2,5.2,0,0,1,2.44-2.17l-.56-.33a5.24,5.24,0,0,1-.45,2.31.38.38,0,0,0,.42.55c1.35-.2,2.87-1.27,2.25-2.82a.38.38,0,0,0-.55-.22l-.41.28c-.4.27,0,.92.38.64l.41-.27-.55-.23c.47,1.17-.79,1.75-1.72,1.9l.42.55a6.24,6.24,0,0,0,.55-2.69.38.38,0,0,0-.56-.32,5.86,5.86,0,0,0-2.72,2.44c-.25.42.38.77.65.38a2.75,2.75,0,0,0,.42-2.28.38.38,0,0,0-.55-.22,15.8,15.8,0,0,0-2.81,2.67l.63.36a15.5,15.5,0,0,0,.71-2.22.38.38,0,0,0-.36-.47,4,4,0,0,0-2.59.92l.62.36c0-.24.13-.33.33-.25s.27,0,.08.21a2,2,0,0,1-.5.63,3.68,3.68,0,0,1-1.34.88l.37.1c-.16-.2.12-.8.06-1.07a.65.65,0,0,0-.67-.56c-1,0-1.84,1.31-2.14,2.13-.12.34.4.66.63.37a3.52,3.52,0,0,0,.79-2.35c0-.22-.24-.46-.47-.36l-2,.8c-.38.15-1.65.9-2,.49l-.07.59.19-.14c.32-.06.41,0,.27.16s-.28.49-.33.59l-.66,1.16c-.2.36.3.78.59.45a9.56,9.56,0,0,0,1.72-2.63,6,6,0,0,1,1.37-2.55c.37-.3-.16-.83-.53-.53Z" transform="translate(-632.27 -605.22)"/><path d="M650.58,637.08l-.59,5.3a.75.75,0,0,0,1.5,0l.59-5.3a.75.75,0,0,0-1.5,0Z" transform="translate(-632.27 -605.22)"/><path d="M649.77,641.46a12.64,12.64,0,0,0,3.15-.72.85.85,0,0,0,.45-.34.78.78,0,0,0,.07-.58.75.75,0,0,0-.92-.52,11.77,11.77,0,0,1-1.43.43c-.23.06-.46.1-.7.14l-.19,0c-.05,0-.26,0-.05,0l-.38.05a.79.79,0,0,0-.53.22.75.75,0,0,0,.53,1.28Z" transform="translate(-632.27 -605.22)"/><path d="M652.79,636.63a22.73,22.73,0,0,1-.53,5.52.75.75,0,0,0,1.45.4,6.77,6.77,0,0,1,.81-1.64c0-.07.54-.7.54-.68h0s0,0-.1,0l-.18-.17c-.15-.24-.21-.26-.18-.07a2.39,2.39,0,0,0-.05.6,1.22,1.22,0,0,0,1.51,1.22,3.52,3.52,0,0,0,1.49-1.4,3.17,3.17,0,0,0,.6-2c0-.74-.52-1.71-1.43-1.35-.67.27-.83,1.19-.83,1.82a3.33,3.33,0,0,0,.53,1.81,2.57,2.57,0,0,0,1.87,1.22,1.68,1.68,0,0,0,1.78-1.22c.23-.94-1.21-1.34-1.44-.4,0,.14-.17.16-.33.11a1.17,1.17,0,0,1-.61-.51,2,2,0,0,1-.29-.77,3.51,3.51,0,0,1,0-.46,2.8,2.8,0,0,0,.06-.28c0-.12.1-.09-.08,0l-.38.1c-.34-.39-.47-.47-.4-.26a.75.75,0,0,1,0,.16.6.6,0,0,1,0,.23,1.25,1.25,0,0,1-.11.5,2.67,2.67,0,0,1-.56.85c-.09.1-.39.3-.43.43.05-.17.34,0,.43.05s0,.14.07.07a1.63,1.63,0,0,0-.26-1.45,1.21,1.21,0,0,0-1.39-.21,3.14,3.14,0,0,0-1,1,8.17,8.17,0,0,0-1.15,2.26l1.45.4a24.53,24.53,0,0,0,.58-5.92.75.75,0,0,0-1.5,0Z" transform="translate(-632.27 -605.22)"/><path d="M665.85,635.83l-.47,4.48a.74.74,0,0,0,.75.75.76.76,0,0,0,.75-.75l.47-4.48a.75.75,0,0,0-.75-.75.78.78,0,0,0-.75.75Z" transform="translate(-632.27 -605.22)"/><path d="M664.12,636.72a2,2,0,0,0,1.3-.18l.47-.22.07,0,.24-.09a8.84,8.84,0,0,1,1-.3l.45-.1.27,0c.08,0,.08,0,0,0l.14,0a.77.77,0,0,0,.75-.75c0-.37-.34-.8-.75-.75a9.34,9.34,0,0,0-2,.44c-.33.12-.66.25-1,.4l-.23.11c-.15.08.09,0-.06,0a.94.94,0,0,1-.24.06c.1,0,.11,0,0,0,.1,0,.1,0,0,0a.75.75,0,1,0-.4,1.45Z" transform="translate(-632.27 -605.22)"/><path d="M664.92,641.48l.37-.19.21-.1,0,0a4,4,0,0,1,.82-.28c.27-.07.55-.13.82-.18h.09c-.1,0-.11,0,0,0l.21,0,.45,0a.75.75,0,0,0,0-1.5,8.2,8.2,0,0,0-3.75,1,.75.75,0,1,0,.76,1.29Z" transform="translate(-632.27 -605.22)"/><path d="M670.84,634a37.15,37.15,0,0,1-.15,4,.75.75,0,0,0,.75.75.77.77,0,0,0,.75-.75,37.15,37.15,0,0,0,.15-4,.75.75,0,0,0-1.5,0Z" transform="translate(-632.27 -605.22)"/><path d="M671.5,640.88a.75.75,0,0,0,0-1.5.75.75,0,0,0,0,1.5Z" transform="translate(-632.27 -605.22)"/><path d="M656.15,615.39a10.31,10.31,0,0,0-.88-1.55.75.75,0,0,0-.45-.35.74.74,0,0,0-.58.08.72.72,0,0,0-.34.44.73.73,0,0,0,.08.58,11.3,11.3,0,0,1,.87,1.56.74.74,0,0,0,.45.34.78.78,0,0,0,.58-.07.76.76,0,0,0,.34-.45l0-.2a.83.83,0,0,0-.1-.38Z" transform="translate(-632.27 -605.22)"/><path d="M661.12,615.1c-.11-1.38-.18-2.77-.2-4.15a.76.76,0,0,0-.75-.75.77.77,0,0,0-.75.75c0,1.38.09,2.77.2,4.15a.75.75,0,0,0,1.5,0Z" transform="translate(-632.27 -605.22)"/><path d="M665.62,615.13a2.55,2.55,0,0,1,.18-.53l-.08.18a3.87,3.87,0,0,1,.5-.86l-.11.15a3.23,3.23,0,0,1,.35-.4.79.79,0,0,0,.22-.53.81.81,0,0,0-.22-.53.76.76,0,0,0-1.06,0,4.64,4.64,0,0,0-1.23,2.12.78.78,0,0,0,.08.58.75.75,0,0,0,.44.34.77.77,0,0,0,.93-.52Z" transform="translate(-632.27 -605.22)"/><path d="M657.19,644.58a3.81,3.81,0,0,0-.81,1.76.61.61,0,0,0,0,.3.49.49,0,0,0,.09.28.77.77,0,0,0,.45.34.75.75,0,0,0,.92-.52,2.57,2.57,0,0,1,.2-.72l-.08.18a2.8,2.8,0,0,1,.39-.67l-.12.15,0,0a.54.54,0,0,0,.16-.24.48.48,0,0,0,.06-.29.77.77,0,0,0-.22-.53.75.75,0,0,0-.53-.22.77.77,0,0,0-.53.22Z" transform="translate(-632.27 -605.22)"/><path d="M661.75,645.25c.06.34.12.67.17,1l0,.23c0-.13,0,.11,0,.11l.06.5c.07.66.12,1.33.14,2a.76.76,0,0,0,.75.75.77.77,0,0,0,.75-.75,28.52,28.52,0,0,0-.47-4.23.75.75,0,0,0-.92-.53.77.77,0,0,0-.52.92Z" transform="translate(-632.27 -605.22)"/><path d="M666.66,644.89h.12l-.2,0,.13,0-.18-.07a.51.51,0,0,1,.16.09l-.16-.12a1.21,1.21,0,0,1,.2.19l-.12-.15a4.65,4.65,0,0,1,.34.62,1.74,1.74,0,0,0,.68.74.79.79,0,0,0,.58.08.75.75,0,0,0,.45-.35.74.74,0,0,0-.27-1l-.1-.07.15.12-.17-.17.12.15c-.18-.24-.27-.54-.44-.79a1.89,1.89,0,0,0-.54-.55,1.11,1.11,0,0,0-.35-.16,1.37,1.37,0,0,0-.28-.05h-.12a.77.77,0,0,0-.53.22.75.75,0,0,0-.22.53.77.77,0,0,0,.22.53.75.75,0,0,0,.53.22Z" transform="translate(-632.27 -605.22)"/></svg>