<svg height="512" viewBox="0 0 64 64" width="512" xmlns="http://www.w3.org/2000/svg"><g id="flat"><path d="m32 3a8 8 0 0 1 8 8v16a0 0 0 0 1 0 0h-16a0 0 0 0 1 0 0v-16a8 8 0 0 1 8-8z" fill="#8ec13f"/><path d="m24 17h3a3 3 0 0 1 3 3v1a0 0 0 0 1 0 0h-3a3 3 0 0 1 -3-3v-1a0 0 0 0 1 0 0z" fill="#fcf05a"/><path d="m37 17h3a0 0 0 0 1 0 0v1a3 3 0 0 1 -3 3h-3a0 0 0 0 1 0 0v-1a3 3 0 0 1 3-3z" fill="#fcf05a" transform="matrix(-1 0 0 -1 74 38)"/><path d="m44 27v4h-24v-4h-4v4a4 4 0 0 0 4 4h6v22h4v-8a2 2 0 0 1 2-2 2 2 0 0 1 2 2v8h4v-22h6a4 4 0 0 0 4-4v-4z" fill="#d9176c"/><path d="m24 57h6a0 0 0 0 1 0 0v4a0 0 0 0 1 0 0h-8a0 0 0 0 1 0 0v-2a2 2 0 0 1 2-2z" fill="#b11e48"/><path d="m34 57h8a0 0 0 0 1 0 0v4a0 0 0 0 1 0 0h-6a2 2 0 0 1 -2-2v-2a0 0 0 0 1 0 0z" fill="#b11e48" transform="matrix(-1 0 0 -1 76 118)"/><path d="m17.5 20a2.5 2.5 0 0 0 -2.5 2.5v.5a2 2 0 0 0 -2 2 2 2 0 0 0 2 2h5v-4.5a2.5 2.5 0 0 0 -2.5-2.5z" fill="#8ec13f"/><path d="m4 37.5a2.5 2.5 0 0 0 2.5 2.5h.5a2 2 0 0 0 2 2 2 2 0 0 0 2-2v-5h-4.5a2.5 2.5 0 0 0 -2.5 2.5z" fill="#c8d952"/><path d="m46.5 20a2.5 2.5 0 0 1 2.5 2.5v.5a2 2 0 0 1 2 2 2 2 0 0 1 -2 2h-5v-4.5a2.5 2.5 0 0 1 2.5-2.5z" fill="#8ec13f"/><path d="m18 11h2a4 4 0 0 1 4 4v2a0 0 0 0 1 0 0h-3a3 3 0 0 1 -3-3v-3a0 0 0 0 1 0 0z" fill="#c8d952"/><path d="m43 11h3a0 0 0 0 1 0 0v2a4 4 0 0 1 -4 4h-2a0 0 0 0 1 0 0v-3a3 3 0 0 1 3-3z" fill="#c8d952" transform="matrix(-1 0 0 -1 86 28)"/><g fill="#d9176c"><path d="m29 7h2v2h-2z"/><path d="m33 9h2v2h-2z"/><path d="m28 12h2v2h-2z"/></g><path d="m11 35h15v4h-15z" fill="#b11e48"/><path d="m17.5 54a2.5 2.5 0 0 0 2.5-2.5v-.5a2 2 0 0 0 2-2 2 2 0 0 0 -2-2h-5v4.5a2.5 2.5 0 0 0 2.5 2.5z" fill="#8ec13f"/><path d="m26 39h-7a4 4 0 0 0 -4 4v4h4v-4h7z" fill="#db527d"/><path d="m60 37.5a2.5 2.5 0 0 1 -2.5 2.5h-.5a2 2 0 0 1 -2 2 2 2 0 0 1 -2-2v-5h4.5a2.5 2.5 0 0 1 2.5 2.5z" fill="#c8d952"/><path d="m38 35h15v4h-15z" fill="#b11e48" transform="matrix(-1 0 0 -1 91 74)"/><path d="m46.5 54a2.5 2.5 0 0 1 -2.5-2.5v-.5a2 2 0 0 1 -2-2 2 2 0 0 1 2-2h5v4.5a2.5 2.5 0 0 1 -2.5 2.5z" fill="#8ec13f"/><path d="m38 39h7a4 4 0 0 1 4 4v4h-4v-4h-7z" fill="#db527d"/><circle cx="32" cy="43" fill="#fcf05a" r="2"/><circle cx="32" cy="35" fill="#fcf05a" r="2"/></g></svg>