<svg height="512" viewBox="0 0 64 64" width="512" xmlns="http://www.w3.org/2000/svg"><g id="monster-4" data-name="monster"><path d="m22 6h2v8h-2z" fill="#3e3d42"/><path d="m40 6h2v9h-2z" fill="#3e3d42"/><path d="m50.97 42.34a2.072 2.072 0 0 1 -2.08 1.66h-7.89v11.81a5.992 5.992 0 0 1 9 5.19h-12v-8a1 1 0 0 0 -1-1h-10a1 1 0 0 0 -1 1v8h-12a5.992 5.992 0 0 1 9-5.19v-8.81h-8a2 2 0 0 1 -1.97-2.34 2.072 2.072 0 0 1 2.08-1.66h7.89v-2a8.932 8.932 0 0 1 1.08-4.27 15 15 0 1 1 15.84 0 8.871 8.871 0 0 1 1.02 3.27h8.06a2 2 0 0 1 1.97 2.34z" fill="#ea348b"/><circle cx="32" cy="22" fill="#ffda44" r="8"/><circle cx="41" cy="5" fill="#ea348b" r="2"/><circle cx="23" cy="5" fill="#ea348b" r="2"/><path d="m32 24a2 2 0 1 1 2-2 2 2 0 0 1 -2 2z" fill="#d80027"/><ellipse cx="28" cy="17.5" fill="#fff" rx="1.5" ry="1" transform="matrix(.707 -.707 .707 .707 -4.173 24.925)"/></g></svg>