<svg id="Lager_1" data-name="Lager 1" xmlns="http://www.w3.org/2000/svg" xmlns:xlink="http://www.w3.org/1999/xlink" viewBox="0 0 85.08 85.05"><defs><style>.cls-1{fill:url(#Namnlös_övertoning_18);}.cls-2{fill:url(#Namnlös_övertoning_15);}.cls-3{fill:url(#Namnlös_övertoning_15-2);}.cls-4{fill:url(#Namnlös_övertoning_15-3);}.cls-5{fill:url(#Namnlös_övertoning_15-4);}.cls-6{fill:url(#Namnlös_övertoning_15-5);}.cls-7{fill:url(#Namnlös_övertoning_15-6);}.cls-8{fill:url(#Namnlös_övertoning_15-7);}.cls-9{font-size:16px;fill:#fff;font-family:Arial-Black, Arial Black;font-weight:800;}.cls-10{fill:url(#Namnlös_övertoning_114);}.cls-11,.cls-12{fill:none;stroke-miterlimit:10;}.cls-11{stroke:#c5ffb9;}.cls-12{stroke:#53ff00;}</style><linearGradient id="Namnlös_övertoning_18" y1="42.52" x2="85.08" y2="42.52" gradientUnits="userSpaceOnUse"><stop offset="0" stop-color="#1a1a1a"/><stop offset="0.55" stop-color="#090909"/><stop offset="1"/></linearGradient><linearGradient id="Namnlös_övertoning_15" y1="4.32" x2="85.08" y2="4.32" gradientUnits="userSpaceOnUse"><stop offset="0"/><stop offset="0.46" stop-color="#030303"/><stop offset="0.75" stop-color="#0b0b0b"/><stop offset="1" stop-color="#1a1a1a"/><stop offset="1" stop-color="#1a1a1a"/></linearGradient><linearGradient id="Namnlös_övertoning_15-2" y1="17.28" x2="85.08" y2="17.28" xlink:href="#Namnlös_övertoning_15"/><linearGradient id="Namnlös_övertoning_15-3" y1="30.24" x2="85.08" y2="30.24" xlink:href="#Namnlös_övertoning_15"/><linearGradient id="Namnlös_övertoning_15-4" y1="43.2" x2="85.08" y2="43.2" xlink:href="#Namnlös_övertoning_15"/><linearGradient id="Namnlös_övertoning_15-5" y1="56.17" x2="85.08" y2="56.17" xlink:href="#Namnlös_övertoning_15"/><linearGradient id="Namnlös_övertoning_15-6" y1="68.45" x2="85.08" y2="68.45" xlink:href="#Namnlös_övertoning_15"/><linearGradient id="Namnlös_övertoning_15-7" y1="80.73" x2="85.08" y2="80.73" xlink:href="#Namnlös_övertoning_15"/><linearGradient id="Namnlös_övertoning_114" x1="59.9" y1="66.75" x2="76.32" y2="70.15" gradientUnits="userSpaceOnUse"><stop offset="0" stop-color="#4ce900"/><stop offset="1" stop-color="#d2ffbf"/></linearGradient></defs><title>Namnlöst-13</title><rect class="cls-1" width="85.08" height="85.05"/><rect class="cls-2" width="85.08" height="8.64"/><rect class="cls-3" y="12.96" width="85.08" height="8.64"/><rect class="cls-4" y="25.92" width="85.08" height="8.64"/><rect class="cls-5" y="38.88" width="85.08" height="8.64"/><rect class="cls-6" y="51.85" width="85.08" height="8.64"/><rect class="cls-7" y="64.13" width="85.08" height="8.64"/><rect class="cls-8" y="76.41" width="85.08" height="8.64"/><text x="-617.82" y="-590.98"/><text class="cls-9" transform="translate(29.54 47.24)">PM</text><polygon class="cls-10" points="70.43 76.05 61.08 76.05 61.08 61.05 76.08 61.05 76.08 71.31 70.43 76.05"/><path class="cls-11" d="M688.25,667c.6-.5,1.42-2.39,1.42-5.35" transform="translate(-617.82 -590.98)"/><path class="cls-12" d="M689.67,661.68c0,.34,1.89.61,4.23.61" transform="translate(-617.82 -590.98)"/></svg>