<svg xmlns="http://www.w3.org/2000/svg" xmlns:xlink="http://www.w3.org/1999/xlink" viewBox="0 0 63.71 64.09"><defs><style>.cls-1{fill:url(#Namnlös_övertoning_61);}.cls-2,.cls-3{fill:none;stroke-miterlimit:10;}.cls-2{stroke:#ff94f0;}.cls-3{stroke:#ff3ef0;}</style><linearGradient id="Namnlös_övertoning_61" x1="-5.02" y1="24.21" x2="64.73" y2="38.67" gradientUnits="userSpaceOnUse"><stop offset="0" stop-color="#f908c0"/><stop offset="1" stop-color="#ff94f0"/></linearGradient></defs><title>post-it-why</title><g id="Lager_2" data-name="Lager 2"><g id="Lager_2-2" data-name="Lager 2"><polygon class="cls-1" points="39.72 63.71 0 63.71 0 0 63.71 0 63.71 43.58 39.72 63.71"/><path class="cls-2" d="M39.71,63.71c2.55-2.14,6-10.16,6-22.72"/><path class="cls-3" d="M45.73,41c0,1.43,8,2.59,18,2.59"/><path d="M18.53,25.11A15,15,0,0,0,18.71,29a9.23,9.23,0,0,0,1.12,3.39,2.38,2.38,0,0,0,1.26,1.16,1.34,1.34,0,0,0,1.45-.81,6.48,6.48,0,0,0,.7-3.67l-1.47.2.42,1.9a5,5,0,0,0,.52,1.61,2.06,2.06,0,0,0,2.89.57,3.61,3.61,0,0,0,1.39-3,8.26,8.26,0,0,0-.53-3.75,5.12,5.12,0,0,0-2.41-2.69c-.87-.42-1.63.87-.76,1.29,2,1,2.47,3.57,2.16,5.6A1.84,1.84,0,0,1,24.87,32a.69.69,0,0,1-.75.11c-.35-.25-.39-.93-.47-1.3l-.44-2c-.18-.81-1.55-.65-1.47.2a5.49,5.49,0,0,1-.35,2.6,3.27,3.27,0,0,0-.23.46l.35,0-.14-.15c0-.05-.09-.1-.13-.16a4.14,4.14,0,0,1-.55-1.09A13.39,13.39,0,0,1,20,25.11a.75.75,0,0,0-.75-.75.77.77,0,0,0-.75.75Z"/><path d="M28.22,25.32v8.5a.75.75,0,0,0,1.5,0c.07-1.2.09-2.72.9-3.69.05-.06.2-.24.29-.24s-.08,0,0,0,.14.45.16.59c.13.79.22,1.59.33,2.39a.75.75,0,0,0,1.45-.4l-.23-1.67a5.75,5.75,0,0,0-.25-1.3,1.51,1.51,0,0,0-2.22-.87A3.85,3.85,0,0,0,28.58,31a13.19,13.19,0,0,0-.37,2.86h1.5v-8.5a.75.75,0,0,0-1.5,0Z"/><path d="M34,29.09a5.49,5.49,0,0,0,4,4.25.75.75,0,0,0,.4-1.45,2.07,2.07,0,0,1-.61-.19c.15.1,0,0,0,0a.61.61,0,0,0-.14-.07l-.28-.16-.27-.17L37,31.2c-.13-.1.1.08,0,0a5.23,5.23,0,0,1-.49-.45l-.21-.24-.05-.07,0,0-.1-.13a4.37,4.37,0,0,1-.32-.55.91.91,0,0,1-.07-.14s-.08-.19,0-.08,0-.06,0-.09l-.06-.15a4.61,4.61,0,0,1-.16-.64.75.75,0,0,0-.92-.53.78.78,0,0,0-.52.93Z"/><path d="M38.24,28.76a10.38,10.38,0,0,1-1.36,6.52,9.89,9.89,0,0,1-2.13,2.56c-.36.3-1,.77-1.49.58s-.65-.78-.83-1.17a.76.76,0,0,0-1-.27.77.77,0,0,0-.27,1,3.42,3.42,0,0,0,1.26,1.66,2.38,2.38,0,0,0,2.1.07,8.11,8.11,0,0,0,3.24-3,11.94,11.94,0,0,0,1.95-8.35.76.76,0,0,0-.93-.53.77.77,0,0,0-.52.92Z"/><path d="M43.33,24c-.1-.2.57-.46.68-.49a1.65,1.65,0,0,1,1.23.19A1.85,1.85,0,0,1,45.85,26a2.22,2.22,0,0,1-.94,1c-.47.26-1,.28-1.49.58a2,2,0,0,0-.84,1.54c-.07.62.19,1.23.11,1.85a.78.78,0,0,0,.53.92.76.76,0,0,0,.92-.52,14,14,0,0,0-.08-2,.85.85,0,0,1,.12-.54c.14-.16.47-.19.66-.24a3.77,3.77,0,0,0,2.42-2.11A3.25,3.25,0,0,0,44,22c-1.29.15-2.76,1.37-2,2.77.46.85,1.75.09,1.29-.76Z"/><path d="M43.53,34.7a.75.75,0,0,0,0-1.5.75.75,0,0,0,0,1.5Z"/><path d="M32.86,17.59v-4a.75.75,0,1,0-1.5,0v4a.75.75,0,1,0,1.5,0Z"/><path d="M40.4,18.91l.18-.49.09-.23h0a.61.61,0,0,0,0-.12c.15-.32.3-.64.48-.95s.35-.59.54-.87.2-.29.3-.42l0-.05,0,0,.18-.23a.75.75,0,0,0-1.06-1.06A12.58,12.58,0,0,0,39,18.51a.74.74,0,0,0,.52.92.75.75,0,0,0,.92-.52Z"/><path d="M26.22,40.1c-.75,1.32-1.53,2.63-2.35,3.91a.75.75,0,0,0,1.29.75q1.23-1.92,2.35-3.9a.75.75,0,1,0-1.29-.76Z"/><path d="M33.1,43.53v2.36a.76.76,0,0,0,.75.75.77.77,0,0,0,.75-.75V43.53a.75.75,0,0,0-1.5,0Z"/><path d="M40.77,40.7a4.81,4.81,0,0,1,.69.74l-.11-.15a4.94,4.94,0,0,1,.54.88.79.79,0,0,0,.45.35.83.83,0,0,0,.58-.08.74.74,0,0,0,.34-.45.84.84,0,0,0-.07-.58,5.86,5.86,0,0,0-1.36-1.77.79.79,0,0,0-.53-.22.75.75,0,0,0-.75.75.75.75,0,0,0,.22.53Z"/><path d="M25.35,18.18,23.63,15.9a.77.77,0,0,0-1-.27.74.74,0,0,0-.34.45.78.78,0,0,0,.07.58l1.72,2.28a.81.81,0,0,0,.45.34.78.78,0,0,0,.58-.07.76.76,0,0,0,.34-.45.78.78,0,0,0-.07-.58Z"/></g></g></svg>