<svg xmlns="http://www.w3.org/2000/svg" xmlns:xlink="http://www.w3.org/1999/xlink" viewBox="0 0 62 62.38"><defs><style>.cls-1{fill:url(#Namnlös_övertoning_99);}.cls-2,.cls-3{fill:none;stroke-miterlimit:10;}.cls-2{stroke:#ffcd97;}.cls-3{stroke:#ffa017;}</style><linearGradient id="Namnlös_övertoning_99" x1="-4.88" y1="23.57" x2="62.99" y2="37.62" gradientUnits="userSpaceOnUse"><stop offset="0" stop-color="#ff8000"/><stop offset="1" stop-color="#ffca9d"/></linearGradient></defs><title>post-it-information</title><g id="Lager_2" data-name="Lager 2"><g id="Lager_2-2" data-name="Lager 2"><polygon class="cls-1" points="38.65 62 0 62 0 0 62 0 62 42.41 38.65 62"/><path class="cls-2" d="M38.65,62c2.48-2.08,5.85-9.89,5.85-22.11"/><path class="cls-3" d="M44.5,39.89c0,1.39,7.83,2.52,17.5,2.52"/><path d="M17.25,7.67a5.35,5.35,0,0,0,.35,2.2,3,3,0,0,0,1.2,1.59,1.28,1.28,0,0,0,1.63-.31A2.94,2.94,0,0,0,21,9.52,20,20,0,0,0,21,6.73c0-.48-.77-.48-.75,0a21.48,21.48,0,0,1-.06,2.66c0,.45-.09,1.15-.52,1.42s-1.06-.46-1.26-.87A4.56,4.56,0,0,1,18,7.67c0-.49-.72-.49-.75,0Z"/><path d="M19.48,11.64v2.45a.38.38,0,1,0,.75,0V11.64a.38.38,0,1,0-.75,0Z"/><path d="M22.38,11.11a3.6,3.6,0,0,0,0,2.18,1.6,1.6,0,0,0,1.41,1,1.54,1.54,0,0,0,1.41-1.08,1.75,1.75,0,0,0-.51-1.74,2.2,2.2,0,0,0-2.09-.42.38.38,0,0,0-.27.46.39.39,0,0,0,.47.26,1.46,1.46,0,0,1,1.24.14,1.07,1.07,0,0,1,.47,1c0-.05,0,0,0,0s0,.06,0,.09l0,.08c0,.06,0,0,0,0l-.08.13c0,.06,0,0,0,0l-.06.07a.82.82,0,0,1-.22.16l-.06,0c-.06,0,0,0,0,0l-.16,0c.06,0,0,0,0,0h-.08s-.08,0,0,0,0,0,0,0l-.08,0h0l0,0-.09-.06c-.06,0,0,0,0,0l-.05-.05-.11-.11c0-.05,0,0,0,0l-.05-.06L23.11,13s0-.08,0-.05,0,0,0-.06a1.05,1.05,0,0,1,0-.19,2.12,2.12,0,0,1,0-.44,6,6,0,0,1,.13-.95.4.4,0,0,0-.26-.47.38.38,0,0,0-.46.27Z"/><path d="M26.13,11.4c0,.53,0,1,0,1.58a1.24,1.24,0,0,0,.57,1.17,1.35,1.35,0,0,0,1.22,0,1.74,1.74,0,0,0,.83-1,3.65,3.65,0,0,0,.17-1.64l-.7.19a1.21,1.21,0,0,1,0,.71,2.81,2.81,0,0,0,0,1,1,1,0,0,0,1.38.71c.42-.23,0-.88-.38-.65h-.08l-.07,0s-.06-.06-.07-.08l0-.05,0-.14c0-.1,0-.21,0-.31a2.44,2.44,0,0,0-.1-1.49.37.37,0,0,0-.69.19,7.45,7.45,0,0,1,0,.82c0,.11,0,.22-.05.33A1.67,1.67,0,0,1,28,13a1,1,0,0,1-.31.44.73.73,0,0,1-.37.15h-.07l-.14,0-.05,0s-.12-.09-.08,0l-.07-.07-.05-.08a1.42,1.42,0,0,1,0-.24c0-.56,0-1.12,0-1.68a.38.38,0,0,0-.75,0Z"/><path d="M33,8.37l0,5.6a.38.38,0,0,0,.74.1,6.06,6.06,0,0,1,.52-1.23,5.5,5.5,0,0,1,.36-.57c.08-.11.24-.39.39-.43s.35.46.35.64a4.43,4.43,0,0,0,0,1.36.37.37,0,0,0,.72-.2c-.15-.57.16-1.15,0-1.72A1.07,1.07,0,0,0,35,11.09c-.56.06-.91.65-1.18,1.08a7.26,7.26,0,0,0-.78,1.7l.74.1,0-5.6a.38.38,0,0,0-.75,0Z"/><path d="M38.51,11.74a1,1,0,0,0-1.15-.38,1.26,1.26,0,0,0-.82,1,2.6,2.6,0,0,0,.14,1.35,1.11,1.11,0,0,0,1,.81.86.86,0,0,0,.87-1,.37.37,0,0,0-.46-.26.39.39,0,0,0-.26.46c0,.07,0-.07,0,0v0s0-.08,0,0v0s0-.06,0,0l0,0,0,0,0,0,0,0h0l-.08,0h0s.09,0,0,0h-.05c.07,0,0,0,0,0s.08.05,0,0l0,0,0,0s0,0,0,0l-.08-.07c.05,0,0,0,0,0a.41.41,0,0,1-.05-.09l0,0c0-.09,0,0,0,0a3.77,3.77,0,0,1-.1-.43c0-.06,0,.06,0,0a.43.43,0,0,0,0-.05.49.49,0,0,0,0-.12v-.24s0-.13,0-.05l0-.12,0-.11,0,0c0-.06,0,.07,0,0a.41.41,0,0,0,0-.09c0-.05,0,0,0,0l0,0s0,0,.07-.06l0,0,.06,0,0,0s-.07,0,0,0l.1,0s0,0,0,0,0,0,0,0h.09s-.07,0,0,0h.07l0,0s0,0,0,0l0,0c.06.06,0-.06,0,0a.38.38,0,0,0,.65-.38Z"/><path d="M38.31,14.26a.75.75,0,0,0,0-1.5.75.75,0,0,0,0,1.5Z"/><path d="M37.8,12.1a5.17,5.17,0,0,0,.51,2.51.74.74,0,0,0,1,.27.79.79,0,0,0,.35-.45.81.81,0,0,0-.08-.57,1.42,1.42,0,0,0-.08-.18l.08.18a4.35,4.35,0,0,1-.3-1.11l0,.2a4,4,0,0,1,0-.85.76.76,0,0,0-.75-.75.77.77,0,0,0-.75.75Z"/><path d="M39.72,11.42a2.38,2.38,0,0,0,.61,2.07c.27.28.71.61,1.12.48s.51-.72.6-1.12l.33-1.48a.39.39,0,0,0-.26-.46.38.38,0,0,0-.46.26l-.32,1.43c-.05.21-.08.42-.14.63a.14.14,0,0,0,0,.06h0s0,0,0,0l.06,0h0l-.07,0s-.07,0-.08-.05L41,13.11l-.06,0a1.7,1.7,0,0,1-.19-.19h0l0-.06-.06-.08c0-.08-.09-.16-.13-.24s0,0,0,0,0,0,0-.06a.5.5,0,0,1,0-.13,1.1,1.1,0,0,1-.06-.26c0,.09,0,0,0-.07a.66.66,0,0,1,0-.14s0-.08,0-.13h0s0,0,0-.07a.39.39,0,0,0-.26-.46.38.38,0,0,0-.46.26Z"/><path d="M43.8,12.64a3,3,0,0,0,1.08-.46c.33-.23.72-.54.66-1a.91.91,0,0,0-.89-.74,1.34,1.34,0,0,0-1,.4,2.29,2.29,0,0,0-.6,2A1.69,1.69,0,0,0,44.3,14.3,1.4,1.4,0,0,0,46,13.36a.4.4,0,0,0-.27-.47.38.38,0,0,0-.46.27s0,0,0,.06l0,0s0,0,0,0l-.05.07,0,0s0,0,0,.05,0,0,0,0l-.12.06-.07,0-.09,0h-.17a.61.61,0,0,1-.4-.14,1,1,0,0,1-.33-.49A1.63,1.63,0,0,1,44,11.67a.88.88,0,0,1,.42-.43l.11,0h.1c.08,0,.11,0,.18.07s0,0,0,0h0s0,0,0,0,0,0,0,0,0,.06,0,.06a1.22,1.22,0,0,1-.33.27,2.58,2.58,0,0,1-.84.35.37.37,0,0,0-.26.46.38.38,0,0,0,.46.26Z"/><path d="M24.73,16.89l-.56,6.22a.75.75,0,0,0,1.5,0,23.13,23.13,0,0,1,.5-3.32,9,9,0,0,1,.53-1.54,5.35,5.35,0,0,1,.41-.74,3.28,3.28,0,0,1,.3-.33c-.08.09-.14-.17,0,.11,0-.06,0,.13,0,.16s0,.28,0,.24c.08.65.13,1.31.2,2l.4,3.95a.78.78,0,0,0,.75.75.76.76,0,0,0,.75-.75l-.38-3.74L29,18a4.34,4.34,0,0,0-.32-1.51,1.49,1.49,0,0,0-1.18-.84,1.7,1.7,0,0,0-1.42.69,7.89,7.89,0,0,0-1.35,3,25.89,25.89,0,0,0-.56,3.72h1.5l.56-6.22a.75.75,0,0,0-1.5,0Z"/><path d="M25.44,21.44l3.11-.3a.77.77,0,0,0,.53-.22.75.75,0,0,0-.53-1.28l-3.11.3a.77.77,0,0,0-.53.22.79.79,0,0,0-.22.53.78.78,0,0,0,.75.75Z"/><path d="M29.91,16.77v5.35c0,.77-.1,1.83.81,2.15a4.19,4.19,0,0,0,2.54-.2.77.77,0,0,0,.52-.92.75.75,0,0,0-.92-.52,4.25,4.25,0,0,1-.92.22,4.35,4.35,0,0,1-.51,0l-.25,0a2,2,0,0,1,.22.14s0,0,0,.05a1.15,1.15,0,0,0,0-.18V16.77a.75.75,0,0,0-1.5,0Z"/><path d="M33.74,16.71V22a4.08,4.08,0,0,0,.08,1.26,1.35,1.35,0,0,0,.87.84,4.92,4.92,0,0,0,2.61.09.74.74,0,0,0,.52-.92.76.76,0,0,0-.92-.52,3.54,3.54,0,0,1-.92.06,3.67,3.67,0,0,1-.84-.14s.1,0,.06.06c.28-.36-.24.41,0,0,.06-.09,0-.41,0-.52V16.71a.75.75,0,0,0-1.5,0Z"/><path d="M24.27,30.48c1.79-1.1,4.58-2.9,4.38-5.33a.4.4,0,0,0-.28-.36c-1.27-.4-1.85,1.31-2.11,2.21a9.53,9.53,0,0,0-.37,2.24c0,.46-.12,1.18.31,1.5,1,.74,1.37-1.43,1.15-2a1.23,1.23,0,0,0-2.14-.35.38.38,0,0,0,.33.56,6.47,6.47,0,0,0,5.13-2.62L30,25.94a30.41,30.41,0,0,0-1.87,4.64c-.13.4.5.68.68.29a4.75,4.75,0,0,1,1-1.4,2.93,2.93,0,0,1,.55-.45c.29-.16.1,0,.11.27a1.56,1.56,0,0,0,1.11,1.42c1.65.53,2.6-1.3,2.2-2.69a.38.38,0,0,0-.46-.26,1.2,1.2,0,0,0-.14,2.13c1.1.75,2.89.51,4.07.15.47-.15.27-.87-.19-.73a6,6,0,0,1-2.19.27,4.1,4.1,0,0,1-.91-.14c-.23-.08-1.07-.72-.44-1l-.46-.27c.22.78-.15,2.11-1.21,1.79s-.36-1.07-.79-1.63c-.85-1.11-2.59,1.5-2.88,2.11l.68.29a30.14,30.14,0,0,1,1.8-4.46.38.38,0,0,0-.65-.38,5.67,5.67,0,0,1-4.48,2.25l.32.57c.19-.27.6-.09.74.11a1,1,0,0,1,.06.73,1.84,1.84,0,0,1-.19.51c.18.25.16-.59.16-.52,0-.31,0-.61.05-.92.07-.62.52-3.47,1.49-3.16l-.27-.36a3.44,3.44,0,0,1-1.38,2.71,16.84,16.84,0,0,1-2.62,2c-.41.25,0,.9.37.64Z"/><path d="M15.1,33.44v2.33a.38.38,0,1,0,.75,0V33.44a.38.38,0,0,0-.37-.38.39.39,0,0,0-.38.38Z"/><path d="M15.48,33a.75.75,0,0,0,0-1.5.75.75,0,0,0,0,1.5Z"/><path d="M16.48,33.68A8,8,0,0,0,16.75,36a.38.38,0,0,0,.41.27.38.38,0,0,0,.33-.37,2.32,2.32,0,0,1,.26-1.39,1.34,1.34,0,0,1,.37-.46l0,0,.06-.05.14-.07.09,0s.16,0,.08,0h.22s0,0,0,0l.14,0s.05,0,0,0l.06,0,.06,0s0,0,0,0l.06.06a.64.64,0,0,1,.11.27,2.82,2.82,0,0,1,0,.31l0,.39a6.88,6.88,0,0,1-.13.77.38.38,0,0,0,.73.2A6.68,6.68,0,0,0,20,34.39a1.31,1.31,0,0,0-.68-1.18,1.47,1.47,0,0,0-1.31,0,2.12,2.12,0,0,0-.9,1,3.09,3.09,0,0,0-.32,1.69l.73-.1a7.31,7.31,0,0,1-.24-2.08.39.39,0,0,0-.38-.38.37.37,0,0,0-.37.38Z"/><path d="M22.65,31.69c-.45-.09-1.15-.19-1.52.17a1.11,1.11,0,0,0-.25.68c0,.29-.07.58-.1.87A14.52,14.52,0,0,0,21,36.83a.37.37,0,0,0,.46.26.39.39,0,0,0,.26-.46A13.27,13.27,0,0,1,21.5,34c0-.44.05-.88.11-1.31,0-.18,0-.25.14-.27a2.05,2.05,0,0,1,.7,0c.47.09.67-.63.2-.72Z"/><path d="M20.86,34.6a11.37,11.37,0,0,1,2.41-.19.38.38,0,0,0,.37-.38.37.37,0,0,0-.37-.37,11.42,11.42,0,0,0-2.61.22.37.37,0,1,0,.2.72Z"/><path d="M24.35,33.5a1.21,1.21,0,0,0-.83.41,1.73,1.73,0,0,0-.35,1,1.4,1.4,0,0,0,.22,1,2.18,2.18,0,0,0,.85.48,1.47,1.47,0,0,0,1,.06,1.49,1.49,0,0,0,.74-.64,1.75,1.75,0,0,0,.32-1,1.3,1.3,0,0,0-.33-.86,1.28,1.28,0,0,0-1.85,0,.39.39,0,0,0,0,.53.38.38,0,0,0,.53,0l.06-.05a.41.41,0,0,1,.11-.07c.07,0,0,0,0,0l.06,0,.07,0c.09,0-.07,0,0,0h.2l.07,0h0l.06,0c.06,0,0,0,0,0l.1.09s0,0,0,0l0,.05,0,.06s0-.05,0,0a.74.74,0,0,1,0,.14c0-.07,0,0,0,0v.11s0,.06,0,.08a1.66,1.66,0,0,1-.12.31l-.08.13,0,.06s0,.06,0,0l-.1.11s0,0-.05,0l0,0-.06,0s0,0,0,0l-.08,0c-.06,0,0,0,0,0h-.15l-.14,0a2.26,2.26,0,0,1-.58-.25l-.06,0s-.07,0,0,0,0-.05,0,0,0,0,0,0,0,0,0,0,0,0,0,0a1.09,1.09,0,0,1,0-.18,1.47,1.47,0,0,1,0-.21v-.12h0A1.21,1.21,0,0,1,24,34.6a.51.51,0,0,1,.05-.12l0-.06s0,0,0,0l.05,0s.06,0,0,0l.06,0,0,0,.06,0c.08,0,0,0,0,0a.38.38,0,0,0,0-.75Z"/><path d="M26.86,33.74a13.41,13.41,0,0,0,.06,2.37.39.39,0,0,0,.32.37.39.39,0,0,0,.42-.27c0-.19.05-.38.07-.57s0-.34.05-.46a3.13,3.13,0,0,1,.1-.44,1.72,1.72,0,0,1,.07-.21s0,0,0,0l.06-.1a1,1,0,0,1,.1-.17c0,.05,0,0,0,0l.06-.07.06,0,0,0,.09,0c.09-.05-.06,0,0,0l.09,0h.21c.1,0-.06,0,0,0l.1,0h0s.09.07,0,0a.37.37,0,1,0,.53-.53,1.28,1.28,0,0,0-1.1-.25,1.52,1.52,0,0,0-.9.62,2.44,2.44,0,0,0-.4,1c0,.21-.07.42-.09.64s0,.39-.07.57l.74.1a13.41,13.41,0,0,1-.06-2.37.38.38,0,0,0-.38-.38.38.38,0,0,0-.37.38Z"/><path d="M29.54,33.68V35.4a.38.38,0,0,0,.75,0A3.82,3.82,0,0,1,31.23,33l.08-.09c.08-.08.05,0,0,0s-.08-.06,0,0l0,0a.67.67,0,0,1,.06.15,2.18,2.18,0,0,1,.1.67,6.21,6.21,0,0,1-.18,1.42l.73.2a4.93,4.93,0,0,1,.4-1.25,5.15,5.15,0,0,1,.33-.56c.06-.09.16-.3.28-.3s.22.14.26.24a1.79,1.79,0,0,1,.07.61c0,.51,0,1,0,1.53a.38.38,0,0,0,.75,0c0-.61,0-1.24,0-1.85a1.25,1.25,0,0,0-1-1.27c-.63-.08-1,.54-1.25,1a5.59,5.59,0,0,0-.59,1.63.38.38,0,0,0,.26.46.39.39,0,0,0,.47-.26,6.07,6.07,0,0,0,.18-2c-.06-.55-.34-1.57-1.11-1.21a1.7,1.7,0,0,0-.63.62,4.74,4.74,0,0,0-.44.75,5,5,0,0,0-.43,1.81h.75V33.68a.38.38,0,0,0-.75,0Z"/><path d="M36.58,33.71a.81.81,0,0,0-.51-.48.92.92,0,0,0-.69.07,1.33,1.33,0,0,0-.58,1.28,2,2,0,0,0,.5,1.35c.45.47,1-.06,1.18-.48.11-.2.18-.43.27-.64l0-.07s0-.09,0,0l.06-.14.08-.13,0-.06c0-.06,0,0,0,0l-.64-.26a4.27,4.27,0,0,0,.07,1.13,1.6,1.6,0,0,0,.39.89.79.79,0,0,0,.94.14,1.47,1.47,0,0,0,.55-.7.38.38,0,0,0-.14-.51.37.37,0,0,0-.51.13,1.38,1.38,0,0,1-.14.27.43.43,0,0,1,0,.07s0,0,0,0a.12.12,0,0,1-.05.05s0,0,0,0,0,0,0,0l-.06,0s.13,0,0,0,0,0,0,0h0l0-.06a2.07,2.07,0,0,1-.17-.62,3.57,3.57,0,0,1,0-.8.38.38,0,0,0-.64-.27,3.57,3.57,0,0,0-.55,1.06l0,.07v0a.93.93,0,0,1,0,.1.75.75,0,0,1-.07.12s-.08.13,0,.07a.27.27,0,0,1-.07.08l0,.05h0c.25.1.33.1.24,0l0,0a.43.43,0,0,1-.07-.1,1.42,1.42,0,0,1-.16-1.06l0-.07a.16.16,0,0,1,0-.07s0,0,0,0L35.7,34h0l0,0h0l.07,0h0s0,0,0,0,0,0,0,0,0,0,0,0l0,0h0a.06.06,0,0,1,0-.06.37.37,0,1,0,.72-.2Z"/><path d="M38.92,30.68c-.09,1.44-.16,2.88-.17,4.32,0,.55.24,1.13.89,1.07s.88-.69.91-1.25-.72-.48-.75,0c0,.14,0,.37-.15.47s-.12,0-.14,0a2.22,2.22,0,0,1,0-.63c0-.26,0-.52,0-.79,0-1,.08-2.09.14-3.14,0-.48-.72-.48-.75,0Z"/><path d="M38.48,34c.53-.12,1.07-.22,1.61-.31.26,0,.53-.09.8-.12l.4-.06h.08c.07,0,0,0-.11-.1,0,0,0,.07,0,.11a2.69,2.69,0,0,1-.15,1.22A3.39,3.39,0,0,0,41,36.17a.37.37,0,0,0,.46.26.38.38,0,0,0,.26-.46,3.92,3.92,0,0,1,.21-1.39,2.1,2.1,0,0,0,0-1.58c-.2-.31-.53-.27-.85-.23l-.94.14c-.61.1-1.22.21-1.82.34a.38.38,0,0,0,.2.73Z"/><path d="M41.42,32.39a.75.75,0,0,0,0-1.5.75.75,0,0,0,0,1.5Z"/><path d="M43.26,33.71a2,2,0,0,0,.18,1.67,1.48,1.48,0,0,0,1.33.66.92.92,0,0,0,.78-.46,1.44,1.44,0,0,0,.09-.82A2.29,2.29,0,0,0,45,33.37a.92.92,0,0,0-.89-.35.9.9,0,0,0-.53.74.38.38,0,0,0,.26.46.39.39,0,0,0,.46-.26l0-.12s.05-.13,0-.05a.31.31,0,0,1,0-.1s0,.05,0,0-.07,0,0,0l-.09,0h0s0,0,0,0l.06,0s.06,0,0,0l0,0,.1.09.09.1,0,0s0,0,0,0a1.64,1.64,0,0,1,.14.22l.06.13c0-.07,0,0,0,0a.14.14,0,0,1,0,.06,1.64,1.64,0,0,1,.07.28v0c0-.07,0,0,0,0s0,.09,0,.14a.57.57,0,0,1,0,.13v.07c0-.06,0,0,0,0s0,0,0,.06,0,0,0,0,0,0,0,0,0,0,0,0l-.06,0h0l-.06,0h-.12s-.14,0-.06,0l-.12,0-.06,0c-.06,0,0,0,0,0l-.11-.06s-.1-.07,0,0l-.1-.09,0,0c0-.05,0,0,0,0L44,34.88a.43.43,0,0,0,0-.07s0,0,0,0a.75.75,0,0,1,0-.16s0,0,0-.07,0,0,0,0a1.82,1.82,0,0,1,0-.33c0-.06,0,.05,0,0s0-.06,0-.09,0-.12,0-.18a.37.37,0,0,0-.26-.46.38.38,0,0,0-.46.26Z"/><path d="M45.84,33.5A15.71,15.71,0,0,0,46,35.77a.37.37,0,0,0,.32.36.36.36,0,0,0,.41-.26c.12-.44.22-.87.35-1.3a2.41,2.41,0,0,1,.48-1,.42.42,0,0,1,.16-.11l.06,0s.11,0,0,0a.61.61,0,0,1,.3.2,1.65,1.65,0,0,1,.18,1.06,2.65,2.65,0,0,0,.24,1.44c.23.42.88,0,.64-.38A2.64,2.64,0,0,1,49,34.51a2,2,0,0,0-.41-1.4,1.1,1.1,0,0,0-1.33-.28A2,2,0,0,0,46.44,34,16.36,16.36,0,0,0,46,35.67l.74.1a15.71,15.71,0,0,1-.13-2.27.38.38,0,0,0-.75,0Z"/><path d="M26.48,38.32c.06.61-.38,1.13-.31,1.75a1,1,0,0,0,.75.89c1.19.24,1.4-1.23,2.06-1.81l-.63-.37a14.34,14.34,0,0,1-.85,3c-.19.44-.4.88-.63,1.3-.05.09-.4.64-.13.3s.24-.41.37-.6a13.43,13.43,0,0,1,4-3.87h-.38s-.23.53-.25.58a1.06,1.06,0,0,0,0,.56.7.7,0,0,0,.79.45A1.1,1.1,0,0,0,32,38.77l-.23.55A5.6,5.6,0,0,1,33.49,39l-.37-.37c0,.35-.25.63-.18,1a.66.66,0,0,0,.47.53,1.06,1.06,0,0,0,.85-.23c.45-.29.87-.65,1.31-1l-.51-.13a1.87,1.87,0,0,0,2.49.91c.44-.19.05-.84-.38-.65a1.14,1.14,0,0,1-1.47-.64.37.37,0,0,0-.51-.14l-.66.49a3.76,3.76,0,0,1-.65.48c-.26.11-.15.11-.08-.15a1.39,1.39,0,0,0,.07-.49.4.4,0,0,0-.38-.38,6.23,6.23,0,0,0-2,.31.37.37,0,0,0-.23.55c0,.06.14.57,0,.5l.21-.55a.78.78,0,0,0-.32-.88.39.39,0,0,0-.38,0,14.46,14.46,0,0,0-3,2.47,13.78,13.78,0,0,0-1.21,1.53,2.58,2.58,0,0,0-.68,1.43.67.67,0,0,0,.78.66c.54-.11.81-.81,1-1.23A14.46,14.46,0,0,0,29.07,39a.37.37,0,0,0-.62-.36,2.32,2.32,0,0,0-.52.69c-.15.28-.28.69-.58.83-.61.29-.4-.5-.3-.79a2.41,2.41,0,0,0,.18-1c-.05-.47-.8-.48-.75,0Z"/><path d="M22.52,45.61a26.42,26.42,0,0,0,.38,3.65.75.75,0,0,0,.83.53.74.74,0,0,0,.65-.73,15,15,0,0,1-.09-2,4,4,0,0,1,0-.49c0-.11,0-.16.05-.36s.07-.31.12-.46a1.55,1.55,0,0,1,.08-.23.56.56,0,0,1,0-.12.39.39,0,0,1-.18.22l-.37.1a.38.38,0,0,1-.35-.16h0s.07.15,0,.07a2.29,2.29,0,0,1,.12.37,5.93,5.93,0,0,1,.16.73,11.49,11.49,0,0,0,.3,1.44,3,3,0,0,0,1.93,2.11.75.75,0,0,0,.94-.72c0-1.46,0-2.92.09-4.37a.76.76,0,0,0-.75-.75.78.78,0,0,0-.75.75c-.08,1.45-.11,2.91-.09,4.37l.95-.73-.09,0,0,0-.1-.06-.08,0s.11.1,0,0l-.16-.15s-.13-.19-.06-.07c0-.05-.07-.1-.1-.16l-.11-.19s-.1-.22-.05-.09a11.81,11.81,0,0,1-.43-2c-.15-.75-.54-2.1-1.57-1.81-.51.14-.68.65-.82,1.1a7.68,7.68,0,0,0-.22,1.18,12.59,12.59,0,0,0,.06,2.53l1.47-.2A22.78,22.78,0,0,1,24,45.61a.75.75,0,0,0-1.5,0Z"/><path d="M27.3,45.61c0,.7,0,1.4,0,2.11a4,4,0,0,0,.35,1.84,1.63,1.63,0,0,0,.71.69,3.29,3.29,0,0,0,1.11.27,1.66,1.66,0,0,0,1.89-1,.75.75,0,0,0-1.45-.4c0-.08.05-.1,0,0s0,0,0,0,0,0,0,0l-.08,0s0,0,.05,0-.19,0-.1,0h-.12l-.19,0-.19,0c-.22,0,.15,0-.07,0l-.13,0c-.05,0-.19-.08-.08,0s-.15-.12-.07,0,0,0,0-.06.07.12,0,0a.27.27,0,0,1-.06-.12c0,.09,0,.1,0,.05l0-.08,0-.14a.58.58,0,0,1,0-.14c0-.14,0,.09,0,0s0-.2,0-.3c0-.27,0-.54,0-.81,0-.57,0-1.13,0-1.7a.75.75,0,0,0-1.5,0Z"/><path d="M28.21,48.2h1.17a.75.75,0,0,0,.75-.75.75.75,0,0,0-.75-.75H28.21a.77.77,0,0,0-.53.22.75.75,0,0,0-.22.53.77.77,0,0,0,.22.53.81.81,0,0,0,.53.22Z"/><path d="M28,46.21A16.24,16.24,0,0,0,31,45.89a.75.75,0,0,0-.4-1.45c-.23.05-.45.09-.68.12l-.16,0s-.21,0,0,0l-.34,0c-.45,0-.91.07-1.36.08a.76.76,0,0,0-.75.75.77.77,0,0,0,.75.75Z"/><path d="M31.49,45.43c0,1.21-.25,2.49.43,3.57a2.4,2.4,0,0,0,1.42,1.08,2,2,0,0,0,1.81-.4.75.75,0,0,0,0-1.06.8.8,0,0,0-1.07,0c.16-.12,0,0,0,0s.09,0,0,0l-.12,0c-.16,0,.15,0,0,0h-.13c-.14,0,0,0,0,0l-.15,0s-.17,0-.06,0,0,0-.06,0l-.13-.08c-.12-.07.06.07,0,0s-.07-.06-.1-.1-.1-.09-.11-.13l.05.07-.05-.07s-.17-.25-.15-.28.06.14,0,0,0-.09,0-.14a2.81,2.81,0,0,1-.08-.31.59.59,0,0,1,0-.14c0,.19,0,0,0,0s0-.23,0-.34c0-.54,0-1.06.07-1.6a.75.75,0,0,0-1.5,0Z"/><path d="M32.38,47.78a4.57,4.57,0,0,0,.82-.05,4.34,4.34,0,0,0,.62-.16.79.79,0,0,0,.45-.35.81.81,0,0,0,.08-.57A.76.76,0,0,0,34,46.2a.74.74,0,0,0-.58-.08,3.65,3.65,0,0,1-.67.17l.2,0a3.62,3.62,0,0,1-.57,0,.75.75,0,0,0-.53.22.77.77,0,0,0-.22.53.73.73,0,0,0,.22.53.79.79,0,0,0,.53.22Z"/><path d="M32.38,46.12a10,10,0,0,0,3.11-.4A.76.76,0,0,0,36,44.8a.77.77,0,0,0-.92-.53c-.23.07-.47.13-.7.18l-.36.07-.19,0c-.16,0,.15,0,0,0a11.56,11.56,0,0,1-1.44.06.75.75,0,0,0-.75.75.77.77,0,0,0,.75.75Z"/><path d="M35.71,45.61v3.8h1.5c0-.71,0-1.42,0-2.13q0-.54.09-1.08s0-.08,0-.12,0,0,0,0a.6.6,0,0,1,0-.12s0,.09,0,.1,0,0-.08.07.1,0,0,0,0,0,0,0-.05,0,0,0h.05s.24.08.09,0l.17.09s.1.06,0,0l0,0a.75.75,0,0,1,.15.16c-.07-.09,0,0,0,.07a1.74,1.74,0,0,1,.1.19c0-.12,0,.1,0,.15a1.17,1.17,0,0,1,.05.2.59.59,0,0,1,0,.14v0c0,.16,0,.31,0,.47s0,.07,0,.11,0,.12,0,0,0,0,0,0a.3.3,0,0,1,0,.1l-.06.23,0,.09c0,.1,0-.08,0,0a1.71,1.71,0,0,0-.13.23c0,.07,0,0,0,0l-.08.09s-.2.17-.08.08l-.18.12-.08,0c.09-.05.06,0,0,0l-.2.06s.14,0,0,0h-.16l-.08,0a.75.75,0,0,0-.4,1.45,2.31,2.31,0,0,0,2.33-.8,3.36,3.36,0,0,0,.59-2.66,2.53,2.53,0,0,0-1.63-2.07,1.48,1.48,0,0,0-2.07,1.56,22.81,22.81,0,0,0-.12,3.09.78.78,0,0,0,.75.75.76.76,0,0,0,.75-.75v-3.8a.76.76,0,0,0-.75-.75.77.77,0,0,0-.75.75Z"/><path d="M10.24,26.27a21.18,21.18,0,0,0-4.43.18.75.75,0,0,0-.52.92.77.77,0,0,0,.92.53,18.41,18.41,0,0,1,2-.17,20.57,20.57,0,0,1,2.08,0A.75.75,0,0,0,11,27a.77.77,0,0,0-.75-.75Z"/><path d="M12.41,19c-1-.48-2-.92-3-1.3a.76.76,0,0,0-.93.52.78.78,0,0,0,.53.93l.7.27.2.08s.2.08,0,0l.35.15c.46.2.91.41,1.36.64a.78.78,0,0,0,1-.27.77.77,0,0,0-.27-1Z"/><path d="M10.86,35l-1.8,1a.75.75,0,0,0-.35.45.78.78,0,0,0,.08.58.77.77,0,0,0,1,.27l1.8-1a.75.75,0,0,0,.35-.45.72.72,0,0,0-.08-.57.75.75,0,0,0-1-.27Z"/><path d="M52.49,26l5-.51a.75.75,0,0,0,0-1.5l-5,.51a.75.75,0,0,0,0,1.5Z"/><path d="M51.69,20.17a8.57,8.57,0,0,1,.69-.66l.19-.16.08-.07c-.07.06-.08.07,0,0l0,0c.13-.1.27-.19.41-.28a6.18,6.18,0,0,1,.83-.48l.22-.11.1,0s.13-.06,0,0l.07,0,.1,0,.25-.09a.77.77,0,0,0,.53-.92.76.76,0,0,0-.92-.53,9,9,0,0,0-3.64,2.37.76.76,0,0,0,0,1.06.75.75,0,0,0,1.06,0Z"/><path d="M51.89,32.94c.08,0,.07,0,0,0L52,33l.19,0,.42.09c.26.06.51.13.76.21l.38.14.08,0,.15.07c.26.12.51.25.76.39a.75.75,0,0,0,.75-1.29,9.08,9.08,0,0,0-3.57-1.18.7.7,0,0,0-.53.21.77.77,0,0,0-.22.54.73.73,0,0,0,.22.53.9.9,0,0,0,.53.22Z"/></g></g></svg>