<svg id="Lager_1" data-name="Lager 1" xmlns="http://www.w3.org/2000/svg" xmlns:xlink="http://www.w3.org/1999/xlink" viewBox="0 0 176.88 176.92"><defs><style>.cls-1{fill:url(#Namnlös_övertoning_520);}.cls-2{fill:url(#Namnlös_övertoning_486);}.cls-3{fill:url(#Namnlös_övertoning_487);}.cls-4{fill:url(#Namnlös_övertoning_516);}</style><radialGradient id="Namnlös_övertoning_520" cx="694.32" cy="671.7" r="65.36" gradientTransform="translate(-628.67 -606.6) rotate(0.02)" gradientUnits="userSpaceOnUse"><stop offset="0" stop-color="#c873ff"/><stop offset="1" stop-color="#b33fff"/></radialGradient><radialGradient id="Namnlös_övertoning_486" cx="740.46" cy="717.84" r="65.36" gradientTransform="translate(-628.67 -606.6) rotate(0.02)" gradientUnits="userSpaceOnUse"><stop offset="0" stop-color="#d791ff"/><stop offset="0.2" stop-color="#d388ff"/><stop offset="0.53" stop-color="#c86eff"/><stop offset="0.94" stop-color="#b645ff"/><stop offset="1" stop-color="#b33fff"/></radialGradient><radialGradient id="Namnlös_övertoning_487" cx="717.39" cy="629.41" r="64.01" gradientTransform="translate(-6.53 -117.34) rotate(0.02)" gradientUnits="userSpaceOnUse"><stop offset="0" stop-color="#d68fff"/><stop offset="0.32" stop-color="#cc79ff"/><stop offset="0.98" stop-color="#b440ff"/><stop offset="1" stop-color="#b33fff"/></radialGradient><radialGradient id="Namnlös_övertoning_516" cx="652.03" cy="694.77" r="64.01" gradientTransform="translate(-6.53 -117.34) rotate(0.02)" gradientUnits="userSpaceOnUse"><stop offset="0" stop-color="#c874ff"/><stop offset="0.27" stop-color="#c670ff"/><stop offset="0.55" stop-color="#c264ff"/><stop offset="0.83" stop-color="#ba50ff"/><stop offset="1" stop-color="#b33fff"/></radialGradient></defs><title>Namnlöst-13</title><rect class="cls-1" x="0.03" y="0.03" width="130.71" height="130.71" rx="0.63"/><rect class="cls-2" x="46.14" y="46.18" width="130.71" height="130.71" rx="0.63"/><path class="cls-3" d="M623.26,490.33l44.86,44.9a.64.64,0,0,0,.45.19l128.94.05a.62.62,0,0,0,.44-1.07l-44.86-44.9a.62.62,0,0,0-.44-.18l-128.95-.05A.62.62,0,0,0,623.26,490.33Z" transform="translate(-622.14 -489.26)"/><path class="cls-4" d="M622.32,620.16l44.87,44.9a.62.62,0,0,0,1.06-.44l.06-128.94a.64.64,0,0,0-.19-.45l-44.86-44.9a.63.63,0,0,0-1.07.44l-.05,129A.62.62,0,0,0,622.32,620.16Z" transform="translate(-622.14 -489.26)"/></svg>