<svg id="Lager_1" data-name="Lager 1" xmlns="http://www.w3.org/2000/svg" xmlns:xlink="http://www.w3.org/1999/xlink" viewBox="0 0 1272 632.23"><defs><style>.cls-1{fill:url(#Namnlös_övertoning_145);}.cls-2{fill:url(#Namnlös_övertoning_520);}.cls-3{fill:url(#Namnlös_övertoning_486);}.cls-4{fill:url(#Namnlös_övertoning_487);}.cls-5{fill:url(#Namnlös_övertoning_516);}.cls-6{fill:url(#Namnlös_övertoning_520-2);}.cls-7{fill:url(#Namnlös_övertoning_486-2);}.cls-8{fill:url(#Namnlös_övertoning_487-2);}.cls-9{fill:url(#Namnlös_övertoning_516-2);}.cls-10{fill:url(#Namnlös_övertoning_520-3);}.cls-11{fill:url(#Namnlös_övertoning_486-3);}.cls-12{fill:url(#Namnlös_övertoning_487-3);}.cls-13{fill:url(#Namnlös_övertoning_516-3);}.cls-14{fill:url(#Namnlös_övertoning_520-4);}.cls-15{fill:url(#Namnlös_övertoning_486-4);}.cls-16{fill:url(#Namnlös_övertoning_487-4);}.cls-17{fill:url(#Namnlös_övertoning_516-4);}.cls-18{fill:url(#Namnlös_övertoning_520-5);}.cls-19{fill:url(#Namnlös_övertoning_486-5);}.cls-20{fill:url(#Namnlös_övertoning_487-5);}.cls-21{fill:url(#Namnlös_övertoning_516-5);}.cls-22{fill:url(#Namnlös_övertoning_520-6);}.cls-23{fill:url(#Namnlös_övertoning_486-6);}.cls-24{fill:url(#Namnlös_övertoning_487-6);}.cls-25{fill:url(#Namnlös_övertoning_516-6);}.cls-26{fill:url(#Namnlös_övertoning_520-7);}.cls-27{fill:url(#Namnlös_övertoning_486-7);}.cls-28{fill:url(#Namnlös_övertoning_487-7);}.cls-29{fill:url(#Namnlös_övertoning_516-7);}.cls-30{fill:url(#Namnlös_övertoning_520-8);}.cls-31{fill:url(#Namnlös_övertoning_486-8);}.cls-32{fill:url(#Namnlös_övertoning_487-8);}.cls-33{fill:url(#Namnlös_övertoning_516-8);}.cls-34{fill:url(#Namnlös_övertoning_520-9);}.cls-35{fill:url(#Namnlös_övertoning_486-9);}.cls-36{fill:url(#Namnlös_övertoning_487-9);}.cls-37{fill:url(#Namnlös_övertoning_516-9);}.cls-38{fill:url(#Namnlös_övertoning_520-10);}.cls-39{fill:url(#Namnlös_övertoning_486-10);}.cls-40{fill:url(#Namnlös_övertoning_487-10);}.cls-41{fill:url(#Namnlös_övertoning_516-10);}.cls-42{fill:url(#Namnlös_övertoning_520-11);}.cls-43{fill:url(#Namnlös_övertoning_486-11);}.cls-44{fill:url(#Namnlös_övertoning_487-11);}.cls-45{fill:url(#Namnlös_övertoning_516-11);}.cls-46{fill:url(#Namnlös_övertoning_520-12);}.cls-47{fill:url(#Namnlös_övertoning_486-12);}.cls-48{fill:url(#Namnlös_övertoning_487-12);}.cls-49{fill:url(#Namnlös_övertoning_516-12);}</style><radialGradient id="Namnlös_övertoning_145" cx="1293.82" cy="628.68" r="307.42" gradientTransform="translate(-2488.78 -486.99) scale(2.51 1.32)" gradientUnits="userSpaceOnUse"><stop offset="0" stop-color="#d68fff" stop-opacity="0.4"/><stop offset="0.11" stop-color="#d387ff" stop-opacity="0.36"/><stop offset="0.3" stop-color="#ca73ff" stop-opacity="0.26"/><stop offset="0.55" stop-color="#bb52ff" stop-opacity="0.09"/><stop offset="0.67" stop-color="#b33fff" stop-opacity="0"/></radialGradient><radialGradient id="Namnlös_övertoning_520" cx="944.47" cy="528.94" r="65.36" gradientTransform="translate(-81.11 -378.94) rotate(0.02)" gradientUnits="userSpaceOnUse"><stop offset="0" stop-color="#c873ff"/><stop offset="1" stop-color="#b33fff"/></radialGradient><radialGradient id="Namnlös_övertoning_486" cx="990.6" cy="575.08" r="65.36" gradientTransform="translate(-81.11 -378.94) rotate(0.02)" gradientUnits="userSpaceOnUse"><stop offset="0" stop-color="#d791ff"/><stop offset="0.2" stop-color="#d388ff"/><stop offset="0.53" stop-color="#c86eff"/><stop offset="0.94" stop-color="#b645ff"/><stop offset="1" stop-color="#b33fff"/></radialGradient><radialGradient id="Namnlös_övertoning_487" cx="967.53" cy="486.65" r="64.01" gradientTransform="translate(-6.53 -117.34) rotate(0.02)" gradientUnits="userSpaceOnUse"><stop offset="0" stop-color="#d68fff"/><stop offset="0.32" stop-color="#cc79ff"/><stop offset="0.98" stop-color="#b440ff"/><stop offset="1" stop-color="#b33fff"/></radialGradient><radialGradient id="Namnlös_övertoning_516" cx="902.18" cy="552.01" r="64.01" gradientTransform="translate(-6.53 -117.34) rotate(0.02)" gradientUnits="userSpaceOnUse"><stop offset="0" stop-color="#c874ff"/><stop offset="0.27" stop-color="#c670ff"/><stop offset="0.55" stop-color="#c264ff"/><stop offset="0.83" stop-color="#ba50ff"/><stop offset="1" stop-color="#b33fff"/></radialGradient><radialGradient id="Namnlös_övertoning_520-2" cx="813.47" cy="529" r="65.36" xlink:href="#Namnlös_övertoning_520"/><radialGradient id="Namnlös_övertoning_486-2" cx="859.6" cy="575.13" r="65.36" xlink:href="#Namnlös_övertoning_486"/><radialGradient id="Namnlös_övertoning_487-2" cx="836.53" cy="486.71" r="64.01" xlink:href="#Namnlös_övertoning_487"/><radialGradient id="Namnlös_övertoning_516-2" cx="771.18" cy="552.06" r="64.01" xlink:href="#Namnlös_övertoning_516"/><radialGradient id="Namnlös_övertoning_520-3" cx="990.48" cy="574.92" r="65.36" xlink:href="#Namnlös_övertoning_520"/><radialGradient id="Namnlös_övertoning_486-3" cx="1036.62" cy="621.06" r="65.36" xlink:href="#Namnlös_övertoning_486"/><radialGradient id="Namnlös_övertoning_487-3" cx="1013.55" cy="532.64" r="64.01" xlink:href="#Namnlös_övertoning_487"/><radialGradient id="Namnlös_övertoning_516-3" cx="948.2" cy="597.99" r="64.01" xlink:href="#Namnlös_övertoning_516"/><radialGradient id="Namnlös_övertoning_520-4" cx="859.48" cy="574.98" r="65.36" xlink:href="#Namnlös_övertoning_520"/><radialGradient id="Namnlös_övertoning_486-4" cx="905.62" cy="621.11" r="65.36" xlink:href="#Namnlös_övertoning_486"/><radialGradient id="Namnlös_övertoning_487-4" cx="882.55" cy="532.69" r="64.01" xlink:href="#Namnlös_övertoning_487"/><radialGradient id="Namnlös_övertoning_516-4" cx="817.2" cy="598.05" r="64.01" xlink:href="#Namnlös_övertoning_516"/><radialGradient id="Namnlös_övertoning_520-5" cx="728.48" cy="575.03" r="65.36" xlink:href="#Namnlös_övertoning_520"/><radialGradient id="Namnlös_övertoning_486-5" cx="774.62" cy="621.17" r="65.36" xlink:href="#Namnlös_övertoning_486"/><radialGradient id="Namnlös_övertoning_487-5" cx="751.55" cy="532.74" r="64.01" xlink:href="#Namnlös_övertoning_487"/><radialGradient id="Namnlös_övertoning_516-5" cx="686.2" cy="598.1" r="64.01" xlink:href="#Namnlös_övertoning_516"/><radialGradient id="Namnlös_övertoning_520-6" cx="1036.5" cy="620.91" r="65.36" xlink:href="#Namnlös_övertoning_520"/><radialGradient id="Namnlös_övertoning_486-6" cx="1082.64" cy="667.04" r="65.36" xlink:href="#Namnlös_övertoning_486"/><radialGradient id="Namnlös_övertoning_487-6" cx="1059.57" cy="578.62" r="64.01" xlink:href="#Namnlös_övertoning_487"/><radialGradient id="Namnlös_övertoning_516-6" cx="994.21" cy="643.97" r="64.01" xlink:href="#Namnlös_övertoning_516"/><radialGradient id="Namnlös_övertoning_520-7" cx="905.5" cy="620.96" r="65.36" xlink:href="#Namnlös_övertoning_520"/><radialGradient id="Namnlös_övertoning_486-7" cx="951.64" cy="667.09" r="65.36" xlink:href="#Namnlös_övertoning_486"/><radialGradient id="Namnlös_övertoning_487-7" cx="928.57" cy="578.67" r="64.01" xlink:href="#Namnlös_övertoning_487"/><radialGradient id="Namnlös_övertoning_516-7" cx="863.21" cy="644.03" r="64.01" xlink:href="#Namnlös_övertoning_516"/><radialGradient id="Namnlös_övertoning_520-8" cx="1081.52" cy="666.89" r="65.36" xlink:href="#Namnlös_övertoning_520"/><radialGradient id="Namnlös_övertoning_486-8" cx="1127.66" cy="713.02" r="65.36" xlink:href="#Namnlös_övertoning_486"/><radialGradient id="Namnlös_övertoning_487-8" cx="1104.59" cy="624.6" r="64.01" xlink:href="#Namnlös_övertoning_487"/><radialGradient id="Namnlös_övertoning_516-8" cx="1039.23" cy="689.96" r="64.01" xlink:href="#Namnlös_övertoning_516"/><radialGradient id="Namnlös_övertoning_520-9" cx="990.43" cy="443.93" r="65.36" xlink:href="#Namnlös_övertoning_520"/><radialGradient id="Namnlös_övertoning_486-9" cx="1036.57" cy="490.06" r="65.36" xlink:href="#Namnlös_övertoning_486"/><radialGradient id="Namnlös_övertoning_487-9" cx="1013.5" cy="401.64" r="64.01" xlink:href="#Namnlös_övertoning_487"/><radialGradient id="Namnlös_övertoning_516-9" cx="948.14" cy="466.99" r="64.01" xlink:href="#Namnlös_övertoning_516"/><radialGradient id="Namnlös_övertoning_520-10" cx="859.43" cy="443.98" r="65.36" xlink:href="#Namnlös_övertoning_520"/><radialGradient id="Namnlös_övertoning_486-10" cx="905.57" cy="490.11" r="65.36" xlink:href="#Namnlös_övertoning_486"/><radialGradient id="Namnlös_övertoning_487-10" cx="882.5" cy="401.69" r="64.01" xlink:href="#Namnlös_övertoning_487"/><radialGradient id="Namnlös_övertoning_516-10" cx="817.14" cy="467.05" r="64.01" xlink:href="#Namnlös_övertoning_516"/><radialGradient id="Namnlös_övertoning_520-11" cx="1036.45" cy="489.91" r="65.36" xlink:href="#Namnlös_övertoning_520"/><radialGradient id="Namnlös_övertoning_486-11" cx="1082.58" cy="536.04" r="65.36" xlink:href="#Namnlös_övertoning_486"/><radialGradient id="Namnlös_övertoning_487-11" cx="1059.52" cy="447.62" r="64.01" xlink:href="#Namnlös_övertoning_487"/><radialGradient id="Namnlös_övertoning_516-11" cx="994.16" cy="512.97" r="64.01" xlink:href="#Namnlös_övertoning_516"/><radialGradient id="Namnlös_övertoning_520-12" cx="686.56" cy="766.05" r="65.36" xlink:href="#Namnlös_övertoning_520"/><radialGradient id="Namnlös_övertoning_486-12" cx="732.7" cy="812.18" r="65.36" xlink:href="#Namnlös_övertoning_486"/><radialGradient id="Namnlös_övertoning_487-12" cx="709.63" cy="723.76" r="64.01" xlink:href="#Namnlös_övertoning_487"/><radialGradient id="Namnlös_övertoning_516-12" cx="644.27" cy="789.12" r="64.01" xlink:href="#Namnlös_övertoning_516"/></defs><title>Namnlöst-13</title><rect class="cls-1" y="35.23" width="1272" height="597"/><rect class="cls-2" x="797.79" y="85.03" width="130.71" height="130.71" rx="0.63"/><rect class="cls-3" x="843.9" y="131.18" width="130.71" height="130.71" rx="0.63"/><path class="cls-4" d="M873.46,347.68l44.86,44.9a.67.67,0,0,0,.45.18l128.94.05a.62.62,0,0,0,.44-1.07l-44.86-44.9a.67.67,0,0,0-.44-.18l-129-.05A.63.63,0,0,0,873.46,347.68Z" transform="translate(-74.58 -261.61)"/><path class="cls-5" d="M872.52,477.5l44.87,44.91a.63.63,0,0,0,1.07-.45l0-128.94a.6.6,0,0,0-.19-.44l-44.86-44.9a.62.62,0,0,0-1.07.44l0,128.94A.59.59,0,0,0,872.52,477.5Z" transform="translate(-74.58 -261.61)"/><rect class="cls-6" x="666.79" y="85.03" width="130.71" height="130.71" rx="0.63"/><rect class="cls-7" x="712.9" y="131.18" width="130.71" height="130.71" rx="0.63"/><path class="cls-8" d="M742.46,347.68l44.86,44.9a.67.67,0,0,0,.45.18l128.94.05a.62.62,0,0,0,.44-1.07l-44.86-44.9a.67.67,0,0,0-.44-.18l-129-.05A.63.63,0,0,0,742.46,347.68Z" transform="translate(-74.58 -261.61)"/><path class="cls-9" d="M741.52,477.5l44.87,44.91a.63.63,0,0,0,1.07-.45l0-128.94a.6.6,0,0,0-.19-.44l-44.86-44.9a.62.62,0,0,0-1.07.44l0,128.94A.59.59,0,0,0,741.52,477.5Z" transform="translate(-74.58 -261.61)"/><rect class="cls-10" x="843.79" y="131.03" width="130.71" height="130.71" rx="0.63"/><rect class="cls-11" x="889.9" y="177.18" width="130.71" height="130.71" rx="0.63"/><path class="cls-12" d="M919.46,393.68l44.86,44.9a.67.67,0,0,0,.45.18l128.94.05a.62.62,0,0,0,.44-1.07l-44.86-44.9a.67.67,0,0,0-.44-.18l-128.95-.05A.63.63,0,0,0,919.46,393.68Z" transform="translate(-74.58 -261.61)"/><path class="cls-13" d="M918.52,523.5l44.87,44.91a.63.63,0,0,0,1.07-.45l0-128.94a.6.6,0,0,0-.19-.44l-44.86-44.9a.62.62,0,0,0-1.07.44l0,128.94A.59.59,0,0,0,918.52,523.5Z" transform="translate(-74.58 -261.61)"/><rect class="cls-14" x="712.79" y="131.03" width="130.71" height="130.71" rx="0.63"/><rect class="cls-15" x="758.9" y="177.18" width="130.71" height="130.71" rx="0.63"/><path class="cls-16" d="M788.46,393.68l44.86,44.9a.67.67,0,0,0,.45.18l128.94.05a.62.62,0,0,0,.44-1.07l-44.86-44.9a.67.67,0,0,0-.44-.18l-129-.05A.63.63,0,0,0,788.46,393.68Z" transform="translate(-74.58 -261.61)"/><path class="cls-17" d="M787.52,523.5l44.87,44.91a.63.63,0,0,0,1.07-.45l0-128.94a.6.6,0,0,0-.19-.44l-44.86-44.9a.62.62,0,0,0-1.07.44l0,128.94A.59.59,0,0,0,787.52,523.5Z" transform="translate(-74.58 -261.61)"/><rect class="cls-18" x="581.79" y="131.03" width="130.71" height="130.71" rx="0.63"/><rect class="cls-19" x="627.9" y="177.18" width="130.71" height="130.71" rx="0.63"/><path class="cls-20" d="M657.46,393.68l44.86,44.9a.67.67,0,0,0,.45.18l128.94.05a.62.62,0,0,0,.44-1.07l-44.86-44.9a.67.67,0,0,0-.44-.18l-129-.05A.63.63,0,0,0,657.46,393.68Z" transform="translate(-74.58 -261.61)"/><path class="cls-21" d="M656.52,523.5l44.87,44.91a.63.63,0,0,0,1.07-.45l0-128.94a.6.6,0,0,0-.19-.44l-44.86-44.9a.62.62,0,0,0-1.07.44l0,128.94A.59.59,0,0,0,656.52,523.5Z" transform="translate(-74.58 -261.61)"/><rect class="cls-22" x="889.79" y="177.03" width="130.71" height="130.71" rx="0.63"/><rect class="cls-23" x="935.9" y="223.18" width="130.71" height="130.71" rx="0.63"/><path class="cls-24" d="M965.46,439.68l44.86,44.9a.67.67,0,0,0,.45.18l128.94.05a.62.62,0,0,0,.44-1.07l-44.86-44.9a.67.67,0,0,0-.44-.18l-128.95-.05A.63.63,0,0,0,965.46,439.68Z" transform="translate(-74.58 -261.61)"/><path class="cls-25" d="M964.52,569.5l44.87,44.91a.63.63,0,0,0,1.07-.45l0-128.94a.6.6,0,0,0-.19-.44l-44.86-44.9a.62.62,0,0,0-1.07.44l0,128.94A.59.59,0,0,0,964.52,569.5Z" transform="translate(-74.58 -261.61)"/><rect class="cls-26" x="758.79" y="177.03" width="130.71" height="130.71" rx="0.63"/><rect class="cls-27" x="804.9" y="223.18" width="130.71" height="130.71" rx="0.63"/><path class="cls-28" d="M834.46,439.68l44.86,44.9a.67.67,0,0,0,.45.18l128.94.05a.62.62,0,0,0,.44-1.07l-44.86-44.9a.67.67,0,0,0-.44-.18l-129-.05A.63.63,0,0,0,834.46,439.68Z" transform="translate(-74.58 -261.61)"/><path class="cls-29" d="M833.52,569.5l44.87,44.91a.63.63,0,0,0,1.07-.45l0-128.94a.6.6,0,0,0-.19-.44l-44.86-44.9a.62.62,0,0,0-1.07.44l0,128.94A.59.59,0,0,0,833.52,569.5Z" transform="translate(-74.58 -261.61)"/><rect class="cls-30" x="934.79" y="223.03" width="130.71" height="130.71" rx="0.63"/><rect class="cls-31" x="980.9" y="269.18" width="130.71" height="130.71" rx="0.63"/><path class="cls-32" d="M1010.46,485.68l44.86,44.9a.67.67,0,0,0,.45.18l128.94,0a.62.62,0,0,0,.44-1.07l-44.86-44.9a.67.67,0,0,0-.44-.18l-128.95-.05A.63.63,0,0,0,1010.46,485.68Z" transform="translate(-74.58 -261.61)"/><path class="cls-33" d="M1009.52,615.5l44.87,44.91a.63.63,0,0,0,1.07-.45l0-128.94a.6.6,0,0,0-.19-.44l-44.86-44.9a.62.62,0,0,0-1.07.44l0,128.94A.59.59,0,0,0,1009.52,615.5Z" transform="translate(-74.58 -261.61)"/><rect class="cls-34" x="843.79" y="0.03" width="130.71" height="130.71" rx="0.63"/><rect class="cls-35" x="889.9" y="46.18" width="130.71" height="130.71" rx="0.63"/><path class="cls-36" d="M919.46,262.68l44.86,44.9a.67.67,0,0,0,.45.18l128.94.05a.62.62,0,0,0,.44-1.07l-44.86-44.9a.67.67,0,0,0-.44-.18l-128.95-.05A.63.63,0,0,0,919.46,262.68Z" transform="translate(-74.58 -261.61)"/><path class="cls-37" d="M918.52,392.5l44.87,44.91a.63.63,0,0,0,1.07-.45l0-128.94a.6.6,0,0,0-.19-.44l-44.86-44.9a.62.62,0,0,0-1.07.44l0,128.94A.59.59,0,0,0,918.52,392.5Z" transform="translate(-74.58 -261.61)"/><rect class="cls-38" x="712.79" y="0.03" width="130.71" height="130.71" rx="0.63"/><rect class="cls-39" x="758.9" y="46.18" width="130.71" height="130.71" rx="0.63"/><path class="cls-40" d="M788.46,262.68l44.86,44.9a.67.67,0,0,0,.45.18l128.94.05a.62.62,0,0,0,.44-1.07l-44.86-44.9a.67.67,0,0,0-.44-.18l-129-.05A.63.63,0,0,0,788.46,262.68Z" transform="translate(-74.58 -261.61)"/><path class="cls-41" d="M787.52,392.5l44.87,44.91a.63.63,0,0,0,1.07-.45l0-128.94a.6.6,0,0,0-.19-.44l-44.86-44.9a.62.62,0,0,0-1.07.44l0,128.94A.59.59,0,0,0,787.52,392.5Z" transform="translate(-74.58 -261.61)"/><rect class="cls-42" x="889.79" y="46.03" width="130.71" height="130.71" rx="0.63"/><rect class="cls-43" x="935.9" y="92.18" width="130.71" height="130.71" rx="0.63"/><path class="cls-44" d="M965.46,308.68l44.86,44.9a.67.67,0,0,0,.45.18l128.94.05a.62.62,0,0,0,.44-1.07l-44.86-44.9a.67.67,0,0,0-.44-.18l-128.95-.05A.63.63,0,0,0,965.46,308.68Z" transform="translate(-74.58 -261.61)"/><path class="cls-45" d="M964.52,438.5l44.87,44.91a.63.63,0,0,0,1.07-.45l0-128.94a.6.6,0,0,0-.19-.44l-44.86-44.9a.62.62,0,0,0-1.07.44l0,128.94A.59.59,0,0,0,964.52,438.5Z" transform="translate(-74.58 -261.61)"/><rect class="cls-46" x="539.79" y="322.03" width="130.71" height="130.71" rx="0.63"/><rect class="cls-47" x="585.9" y="368.18" width="130.71" height="130.71" rx="0.63"/><path class="cls-48" d="M615.46,584.68l44.86,44.9a.67.67,0,0,0,.45.18l128.94,0a.62.62,0,0,0,.44-1.07l-44.86-44.9a.67.67,0,0,0-.44-.18l-129,0A.63.63,0,0,0,615.46,584.68Z" transform="translate(-74.58 -261.61)"/><path class="cls-49" d="M614.52,714.5l44.87,44.91a.63.63,0,0,0,1.07-.45l0-128.94a.6.6,0,0,0-.19-.44l-44.86-44.9a.62.62,0,0,0-1.07.44l0,128.94A.59.59,0,0,0,614.52,714.5Z" transform="translate(-74.58 -261.61)"/></svg>