<svg id="Lager_1" data-name="Lager 1" xmlns="http://www.w3.org/2000/svg" xmlns:xlink="http://www.w3.org/1999/xlink" viewBox="0 0 1774 685.23"><defs><style>.cls-1{fill:url(#Namnlös_övertoning_145);}.cls-2{fill:url(#Namnlös_övertoning_520);}.cls-3{fill:url(#Namnlös_övertoning_486);}.cls-4{fill:url(#Namnlös_övertoning_487);}.cls-5{fill:url(#Namnlös_övertoning_516);}.cls-6{fill:url(#Namnlös_övertoning_520-2);}.cls-7{fill:url(#Namnlös_övertoning_486-2);}.cls-8{fill:url(#Namnlös_övertoning_487-2);}.cls-9{fill:url(#Namnlös_övertoning_516-2);}.cls-10{fill:url(#Namnlös_övertoning_520-3);}.cls-11{fill:url(#Namnlös_övertoning_486-3);}.cls-12{fill:url(#Namnlös_övertoning_487-3);}.cls-13{fill:url(#Namnlös_övertoning_516-3);}.cls-14{fill:url(#Namnlös_övertoning_520-4);}.cls-15{fill:url(#Namnlös_övertoning_486-4);}.cls-16{fill:url(#Namnlös_övertoning_487-4);}.cls-17{fill:url(#Namnlös_övertoning_516-4);}.cls-18{fill:url(#Namnlös_övertoning_520-5);}.cls-19{fill:url(#Namnlös_övertoning_486-5);}.cls-20{fill:url(#Namnlös_övertoning_487-5);}.cls-21{fill:url(#Namnlös_övertoning_516-5);}.cls-22{fill:url(#Namnlös_övertoning_520-6);}.cls-23{fill:url(#Namnlös_övertoning_486-6);}.cls-24{fill:url(#Namnlös_övertoning_487-6);}.cls-25{fill:url(#Namnlös_övertoning_516-6);}.cls-26{fill:url(#Namnlös_övertoning_520-7);}.cls-27{fill:url(#Namnlös_övertoning_486-7);}.cls-28{fill:url(#Namnlös_övertoning_487-7);}.cls-29{fill:url(#Namnlös_övertoning_516-7);}.cls-30{fill:url(#Namnlös_övertoning_520-8);}.cls-31{fill:url(#Namnlös_övertoning_486-8);}.cls-32{fill:url(#Namnlös_övertoning_487-8);}.cls-33{fill:url(#Namnlös_övertoning_516-8);}.cls-34{fill:url(#Namnlös_övertoning_520-9);}.cls-35{fill:url(#Namnlös_övertoning_486-9);}.cls-36{fill:url(#Namnlös_övertoning_487-9);}.cls-37{fill:url(#Namnlös_övertoning_516-9);}.cls-38{fill:url(#Namnlös_övertoning_520-10);}.cls-39{fill:url(#Namnlös_övertoning_486-10);}.cls-40{fill:url(#Namnlös_övertoning_487-10);}.cls-41{fill:url(#Namnlös_övertoning_516-10);}.cls-42{fill:url(#Namnlös_övertoning_520-11);}.cls-43{fill:url(#Namnlös_övertoning_486-11);}.cls-44{fill:url(#Namnlös_övertoning_487-11);}.cls-45{fill:url(#Namnlös_övertoning_516-11);}.cls-46{fill:url(#Namnlös_övertoning_520-12);}.cls-47{fill:url(#Namnlös_övertoning_486-12);}.cls-48{fill:url(#Namnlös_övertoning_487-12);}.cls-49{fill:url(#Namnlös_övertoning_516-12);}</style><radialGradient id="Namnlös_övertoning_145" cx="1469.46" cy="578.19" r="307.42" gradientTransform="translate(-3822 -516.18) scale(3.5 1.44)" gradientUnits="userSpaceOnUse"><stop offset="0" stop-color="#d68fff" stop-opacity="0.4"/><stop offset="0.11" stop-color="#d387ff" stop-opacity="0.36"/><stop offset="0.3" stop-color="#ca73ff" stop-opacity="0.26"/><stop offset="0.55" stop-color="#bb52ff" stop-opacity="0.09"/><stop offset="0.67" stop-color="#b33fff" stop-opacity="0"/></radialGradient><radialGradient id="Namnlös_övertoning_520" cx="1195.46" cy="502.34" r="65.36" gradientTransform="translate(169.89 -352.44) rotate(0.02)" gradientUnits="userSpaceOnUse"><stop offset="0" stop-color="#c873ff"/><stop offset="1" stop-color="#b33fff"/></radialGradient><radialGradient id="Namnlös_övertoning_486" cx="1241.59" cy="548.48" r="65.36" gradientTransform="translate(169.89 -352.44) rotate(0.02)" gradientUnits="userSpaceOnUse"><stop offset="0" stop-color="#d791ff"/><stop offset="0.2" stop-color="#d388ff"/><stop offset="0.53" stop-color="#c86eff"/><stop offset="0.94" stop-color="#b645ff"/><stop offset="1" stop-color="#b33fff"/></radialGradient><radialGradient id="Namnlös_övertoning_487" cx="1218.52" cy="460.05" r="64.01" gradientTransform="translate(-6.53 -117.34) rotate(0.02)" gradientUnits="userSpaceOnUse"><stop offset="0" stop-color="#d68fff"/><stop offset="0.32" stop-color="#cc79ff"/><stop offset="0.98" stop-color="#b440ff"/><stop offset="1" stop-color="#b33fff"/></radialGradient><radialGradient id="Namnlös_övertoning_516" cx="1153.17" cy="525.41" r="64.01" gradientTransform="translate(-6.53 -117.34) rotate(0.02)" gradientUnits="userSpaceOnUse"><stop offset="0" stop-color="#c874ff"/><stop offset="0.27" stop-color="#c670ff"/><stop offset="0.55" stop-color="#c264ff"/><stop offset="0.83" stop-color="#ba50ff"/><stop offset="1" stop-color="#b33fff"/></radialGradient><radialGradient id="Namnlös_övertoning_520-2" cx="1064.46" cy="502.4" r="65.36" xlink:href="#Namnlös_övertoning_520"/><radialGradient id="Namnlös_övertoning_486-2" cx="1110.59" cy="548.53" r="65.36" xlink:href="#Namnlös_övertoning_486"/><radialGradient id="Namnlös_övertoning_487-2" cx="1087.52" cy="460.11" r="64.01" xlink:href="#Namnlös_övertoning_487"/><radialGradient id="Namnlös_övertoning_516-2" cx="1022.17" cy="525.46" r="64.01" xlink:href="#Namnlös_övertoning_516"/><radialGradient id="Namnlös_övertoning_520-3" cx="1241.47" cy="548.32" r="65.36" xlink:href="#Namnlös_övertoning_520"/><radialGradient id="Namnlös_övertoning_486-3" cx="1287.61" cy="594.46" r="65.36" xlink:href="#Namnlös_övertoning_486"/><radialGradient id="Namnlös_övertoning_487-3" cx="1264.54" cy="506.03" r="64.01" xlink:href="#Namnlös_övertoning_487"/><radialGradient id="Namnlös_övertoning_516-3" cx="1199.18" cy="571.39" r="64.01" xlink:href="#Namnlös_övertoning_516"/><radialGradient id="Namnlös_övertoning_520-4" cx="1110.47" cy="548.38" r="65.36" xlink:href="#Namnlös_övertoning_520"/><radialGradient id="Namnlös_övertoning_486-4" cx="1156.61" cy="594.51" r="65.36" xlink:href="#Namnlös_övertoning_486"/><radialGradient id="Namnlös_övertoning_487-4" cx="1133.54" cy="506.09" r="64.01" xlink:href="#Namnlös_övertoning_487"/><radialGradient id="Namnlös_övertoning_516-4" cx="1068.18" cy="571.44" r="64.01" xlink:href="#Namnlös_övertoning_516"/><radialGradient id="Namnlös_övertoning_520-5" cx="979.47" cy="548.43" r="65.36" xlink:href="#Namnlös_övertoning_520"/><radialGradient id="Namnlös_övertoning_486-5" cx="1025.61" cy="594.56" r="65.36" xlink:href="#Namnlös_övertoning_486"/><radialGradient id="Namnlös_övertoning_487-5" cx="1002.54" cy="506.14" r="64.01" xlink:href="#Namnlös_övertoning_487"/><radialGradient id="Namnlös_övertoning_516-5" cx="937.18" cy="571.5" r="64.01" xlink:href="#Namnlös_övertoning_516"/><radialGradient id="Namnlös_övertoning_520-6" cx="1287.49" cy="594.3" r="65.36" xlink:href="#Namnlös_övertoning_520"/><radialGradient id="Namnlös_övertoning_486-6" cx="1333.63" cy="640.44" r="65.36" xlink:href="#Namnlös_övertoning_486"/><radialGradient id="Namnlös_övertoning_487-6" cx="1310.56" cy="552.02" r="64.01" xlink:href="#Namnlös_övertoning_487"/><radialGradient id="Namnlös_övertoning_516-6" cx="1245.2" cy="617.37" r="64.01" xlink:href="#Namnlös_övertoning_516"/><radialGradient id="Namnlös_övertoning_520-7" cx="1156.49" cy="594.36" r="65.36" xlink:href="#Namnlös_övertoning_520"/><radialGradient id="Namnlös_övertoning_486-7" cx="1202.63" cy="640.49" r="65.36" xlink:href="#Namnlös_övertoning_486"/><radialGradient id="Namnlös_övertoning_487-7" cx="1179.56" cy="552.07" r="64.01" xlink:href="#Namnlös_övertoning_487"/><radialGradient id="Namnlös_övertoning_516-7" cx="1114.2" cy="617.42" r="64.01" xlink:href="#Namnlös_övertoning_516"/><radialGradient id="Namnlös_övertoning_520-8" cx="1332.51" cy="640.29" r="65.36" xlink:href="#Namnlös_övertoning_520"/><radialGradient id="Namnlös_övertoning_486-8" cx="1378.65" cy="686.42" r="65.36" xlink:href="#Namnlös_övertoning_486"/><radialGradient id="Namnlös_övertoning_487-8" cx="1355.58" cy="598" r="64.01" xlink:href="#Namnlös_övertoning_487"/><radialGradient id="Namnlös_övertoning_516-8" cx="1290.22" cy="663.35" r="64.01" xlink:href="#Namnlös_övertoning_516"/><radialGradient id="Namnlös_övertoning_520-9" cx="1241.42" cy="417.32" r="65.36" xlink:href="#Namnlös_övertoning_520"/><radialGradient id="Namnlös_övertoning_486-9" cx="1287.56" cy="463.46" r="65.36" xlink:href="#Namnlös_övertoning_486"/><radialGradient id="Namnlös_övertoning_487-9" cx="1264.49" cy="375.03" r="64.01" xlink:href="#Namnlös_övertoning_487"/><radialGradient id="Namnlös_övertoning_516-9" cx="1199.13" cy="440.39" r="64.01" xlink:href="#Namnlös_övertoning_516"/><radialGradient id="Namnlös_övertoning_520-10" cx="1110.42" cy="417.38" r="65.36" xlink:href="#Namnlös_övertoning_520"/><radialGradient id="Namnlös_övertoning_486-10" cx="1156.56" cy="463.51" r="65.36" xlink:href="#Namnlös_övertoning_486"/><radialGradient id="Namnlös_övertoning_487-10" cx="1133.49" cy="375.09" r="64.01" xlink:href="#Namnlös_övertoning_487"/><radialGradient id="Namnlös_övertoning_516-10" cx="1068.13" cy="440.44" r="64.01" xlink:href="#Namnlös_övertoning_516"/><radialGradient id="Namnlös_övertoning_520-11" cx="1287.44" cy="463.3" r="65.36" xlink:href="#Namnlös_övertoning_520"/><radialGradient id="Namnlös_övertoning_486-11" cx="1333.57" cy="509.44" r="65.36" xlink:href="#Namnlös_övertoning_486"/><radialGradient id="Namnlös_övertoning_487-11" cx="1310.51" cy="421.02" r="64.01" xlink:href="#Namnlös_övertoning_487"/><radialGradient id="Namnlös_övertoning_516-11" cx="1245.15" cy="486.37" r="64.01" xlink:href="#Namnlös_övertoning_516"/><radialGradient id="Namnlös_övertoning_520-12" cx="937.55" cy="739.45" r="65.36" xlink:href="#Namnlös_övertoning_520"/><radialGradient id="Namnlös_övertoning_486-12" cx="983.69" cy="785.58" r="65.36" xlink:href="#Namnlös_övertoning_486"/><radialGradient id="Namnlös_övertoning_487-12" cx="960.62" cy="697.16" r="64.01" xlink:href="#Namnlös_övertoning_487"/><radialGradient id="Namnlös_övertoning_516-12" cx="895.26" cy="762.51" r="64.01" xlink:href="#Namnlös_övertoning_516"/></defs><title>Namnlöst-13</title><rect class="cls-1" y="35.23" width="1774" height="650"/><rect class="cls-2" x="1299.79" y="85.03" width="130.71" height="130.71" rx="0.63"/><rect class="cls-3" x="1345.9" y="131.18" width="130.71" height="130.71" rx="0.63"/><path class="cls-4" d="M1124.46,321.18l44.86,44.9a.67.67,0,0,0,.45.18l128.94.05a.62.62,0,0,0,.44-1.07l-44.86-44.9a.67.67,0,0,0-.44-.18l-128.95-.05A.63.63,0,0,0,1124.46,321.18Z" transform="translate(176.42 -235.11)"/><path class="cls-5" d="M1123.52,451l44.87,44.91a.63.63,0,0,0,1.07-.45l0-128.94a.6.6,0,0,0-.19-.44l-44.86-44.9a.62.62,0,0,0-1.07.44l-.05,128.94A.59.59,0,0,0,1123.52,451Z" transform="translate(176.42 -235.11)"/><rect class="cls-6" x="1168.79" y="85.03" width="130.71" height="130.71" rx="0.63"/><rect class="cls-7" x="1214.9" y="131.18" width="130.71" height="130.71" rx="0.63"/><path class="cls-8" d="M993.46,321.18l44.86,44.9a.67.67,0,0,0,.45.18l128.94.05a.62.62,0,0,0,.44-1.07l-44.86-44.9a.67.67,0,0,0-.44-.18l-128.95-.05A.63.63,0,0,0,993.46,321.18Z" transform="translate(176.42 -235.11)"/><path class="cls-9" d="M992.52,451l44.87,44.91a.63.63,0,0,0,1.07-.45l0-128.94a.6.6,0,0,0-.19-.44l-44.86-44.9a.62.62,0,0,0-1.07.44l0,128.94A.59.59,0,0,0,992.52,451Z" transform="translate(176.42 -235.11)"/><rect class="cls-10" x="1345.79" y="131.03" width="130.71" height="130.71" rx="0.63"/><rect class="cls-11" x="1391.9" y="177.18" width="130.71" height="130.71" rx="0.63"/><path class="cls-12" d="M1170.46,367.18l44.86,44.9a.67.67,0,0,0,.45.18l128.94.05a.62.62,0,0,0,.44-1.07l-44.86-44.9a.67.67,0,0,0-.44-.18l-128.95-.05A.63.63,0,0,0,1170.46,367.18Z" transform="translate(176.42 -235.11)"/><path class="cls-13" d="M1169.52,497l44.87,44.91a.63.63,0,0,0,1.07-.45l0-128.94a.6.6,0,0,0-.19-.44l-44.86-44.9a.62.62,0,0,0-1.07.44l-.05,128.94A.59.59,0,0,0,1169.52,497Z" transform="translate(176.42 -235.11)"/><rect class="cls-14" x="1214.79" y="131.03" width="130.71" height="130.71" rx="0.63"/><rect class="cls-15" x="1260.9" y="177.18" width="130.71" height="130.71" rx="0.63"/><path class="cls-16" d="M1039.46,367.18l44.86,44.9a.67.67,0,0,0,.45.18l128.94.05a.62.62,0,0,0,.44-1.07l-44.86-44.9a.67.67,0,0,0-.44-.18l-128.95-.05A.63.63,0,0,0,1039.46,367.18Z" transform="translate(176.42 -235.11)"/><path class="cls-17" d="M1038.52,497l44.87,44.91a.63.63,0,0,0,1.07-.45l0-128.94a.6.6,0,0,0-.19-.44l-44.86-44.9a.62.62,0,0,0-1.07.44l-.05,128.94A.59.59,0,0,0,1038.52,497Z" transform="translate(176.42 -235.11)"/><rect class="cls-18" x="1083.79" y="131.03" width="130.71" height="130.71" rx="0.63"/><rect class="cls-19" x="1129.9" y="177.18" width="130.71" height="130.71" rx="0.63"/><path class="cls-20" d="M908.46,367.18l44.86,44.9a.67.67,0,0,0,.45.18l128.94.05a.62.62,0,0,0,.44-1.07l-44.86-44.9a.67.67,0,0,0-.44-.18l-128.95-.05A.63.63,0,0,0,908.46,367.18Z" transform="translate(176.42 -235.11)"/><path class="cls-21" d="M907.52,497l44.87,44.91a.63.63,0,0,0,1.07-.45l0-128.94a.6.6,0,0,0-.19-.44l-44.86-44.9a.62.62,0,0,0-1.07.44l0,128.94A.59.59,0,0,0,907.52,497Z" transform="translate(176.42 -235.11)"/><rect class="cls-22" x="1391.79" y="177.03" width="130.71" height="130.71" rx="0.63"/><rect class="cls-23" x="1437.9" y="223.18" width="130.71" height="130.71" rx="0.63"/><path class="cls-24" d="M1216.46,413.18l44.86,44.9a.67.67,0,0,0,.45.18l128.94.05a.62.62,0,0,0,.44-1.07l-44.86-44.9a.67.67,0,0,0-.44-.18l-128.95-.05A.63.63,0,0,0,1216.46,413.18Z" transform="translate(176.42 -235.11)"/><path class="cls-25" d="M1215.52,543l44.87,44.91a.63.63,0,0,0,1.07-.45l0-128.94a.6.6,0,0,0-.19-.44l-44.86-44.9a.62.62,0,0,0-1.07.44l-.05,128.94A.59.59,0,0,0,1215.52,543Z" transform="translate(176.42 -235.11)"/><rect class="cls-26" x="1260.79" y="177.03" width="130.71" height="130.71" rx="0.63"/><rect class="cls-27" x="1306.9" y="223.18" width="130.71" height="130.71" rx="0.63"/><path class="cls-28" d="M1085.46,413.18l44.86,44.9a.67.67,0,0,0,.45.18l128.94.05a.62.62,0,0,0,.44-1.07l-44.86-44.9a.67.67,0,0,0-.44-.18l-128.95-.05A.63.63,0,0,0,1085.46,413.18Z" transform="translate(176.42 -235.11)"/><path class="cls-29" d="M1084.52,543l44.87,44.91a.63.63,0,0,0,1.07-.45l0-128.94a.6.6,0,0,0-.19-.44l-44.86-44.9a.62.62,0,0,0-1.07.44l-.05,128.94A.59.59,0,0,0,1084.52,543Z" transform="translate(176.42 -235.11)"/><rect class="cls-30" x="1436.79" y="223.03" width="130.71" height="130.71" rx="0.63"/><rect class="cls-31" x="1482.9" y="269.18" width="130.71" height="130.71" rx="0.63"/><path class="cls-32" d="M1261.46,459.18l44.86,44.9a.67.67,0,0,0,.45.18l128.94.05a.62.62,0,0,0,.44-1.07l-44.86-44.9a.67.67,0,0,0-.44-.18l-128.95-.05A.63.63,0,0,0,1261.46,459.18Z" transform="translate(176.42 -235.11)"/><path class="cls-33" d="M1260.52,589l44.87,44.91a.63.63,0,0,0,1.07-.45l0-128.94a.6.6,0,0,0-.19-.44l-44.86-44.9a.62.62,0,0,0-1.07.44l-.05,128.94A.59.59,0,0,0,1260.52,589Z" transform="translate(176.42 -235.11)"/><rect class="cls-34" x="1345.79" y="0.03" width="130.71" height="130.71" rx="0.63"/><rect class="cls-35" x="1391.9" y="46.18" width="130.71" height="130.71" rx="0.63"/><path class="cls-36" d="M1170.46,236.18l44.86,44.9a.67.67,0,0,0,.45.18l128.94.05a.62.62,0,0,0,.44-1.07l-44.86-44.9a.67.67,0,0,0-.44-.18l-128.95,0A.63.63,0,0,0,1170.46,236.18Z" transform="translate(176.42 -235.11)"/><path class="cls-37" d="M1169.52,366l44.87,44.91a.63.63,0,0,0,1.07-.45l0-128.94a.6.6,0,0,0-.19-.44l-44.86-44.9a.62.62,0,0,0-1.07.44l-.05,128.94A.59.59,0,0,0,1169.52,366Z" transform="translate(176.42 -235.11)"/><rect class="cls-38" x="1214.79" y="0.03" width="130.71" height="130.71" rx="0.63"/><rect class="cls-39" x="1260.9" y="46.18" width="130.71" height="130.71" rx="0.63"/><path class="cls-40" d="M1039.46,236.18l44.86,44.9a.67.67,0,0,0,.45.18l128.94.05a.62.62,0,0,0,.44-1.07l-44.86-44.9a.67.67,0,0,0-.44-.18l-128.95,0A.63.63,0,0,0,1039.46,236.18Z" transform="translate(176.42 -235.11)"/><path class="cls-41" d="M1038.52,366l44.87,44.91a.63.63,0,0,0,1.07-.45l0-128.94a.6.6,0,0,0-.19-.44l-44.86-44.9a.62.62,0,0,0-1.07.44l-.05,128.94A.59.59,0,0,0,1038.52,366Z" transform="translate(176.42 -235.11)"/><rect class="cls-42" x="1391.79" y="46.03" width="130.71" height="130.71" rx="0.63"/><rect class="cls-43" x="1437.9" y="92.18" width="130.71" height="130.71" rx="0.63"/><path class="cls-44" d="M1216.46,282.18l44.86,44.9a.67.67,0,0,0,.45.18l128.94.05a.62.62,0,0,0,.44-1.07l-44.86-44.9a.67.67,0,0,0-.44-.18l-128.95-.05A.63.63,0,0,0,1216.46,282.18Z" transform="translate(176.42 -235.11)"/><path class="cls-45" d="M1215.52,412l44.87,44.91a.63.63,0,0,0,1.07-.45l0-128.94a.6.6,0,0,0-.19-.44l-44.86-44.9a.62.62,0,0,0-1.07.44l-.05,128.94A.59.59,0,0,0,1215.52,412Z" transform="translate(176.42 -235.11)"/><rect class="cls-46" x="1041.79" y="322.03" width="130.71" height="130.71" rx="0.63"/><rect class="cls-47" x="1087.9" y="368.18" width="130.71" height="130.71" rx="0.63"/><path class="cls-48" d="M866.46,558.18l44.86,44.9a.67.67,0,0,0,.45.18l128.94,0a.62.62,0,0,0,.44-1.07l-44.86-44.9a.67.67,0,0,0-.44-.18l-129,0A.63.63,0,0,0,866.46,558.18Z" transform="translate(176.42 -235.11)"/><path class="cls-49" d="M865.52,688l44.87,44.91a.63.63,0,0,0,1.07-.45l0-128.94a.6.6,0,0,0-.19-.44l-44.86-44.9a.62.62,0,0,0-1.07.44l0,128.94A.59.59,0,0,0,865.52,688Z" transform="translate(176.42 -235.11)"/></svg>