<svg id="Lager_1" data-name="Lager 1" xmlns="http://www.w3.org/2000/svg" xmlns:xlink="http://www.w3.org/1999/xlink" viewBox="0 0 682.41 306.55"><defs><style>.cls-1{fill:none;stroke:#3a0659;stroke-miterlimit:10;}.cls-1,.cls-10,.cls-11,.cls-12,.cls-13,.cls-14,.cls-15,.cls-16,.cls-17,.cls-18,.cls-19,.cls-2,.cls-3,.cls-4,.cls-5,.cls-6,.cls-7,.cls-8,.cls-9{opacity:0.28;}.cls-2{fill:url(#Namnlös_övertoning_81);}.cls-3{fill:url(#Namnlös_övertoning_367);}.cls-4{fill:url(#Namnlös_övertoning_81-2);}.cls-5{fill:url(#Namnlös_övertoning_367-2);}.cls-6{fill:url(#Namnlös_övertoning_80);}.cls-7{fill:url(#Namnlös_övertoning_367-3);}.cls-8{fill:url(#Namnlös_övertoning_80-2);}.cls-9{fill:url(#Namnlös_övertoning_367-4);}.cls-10{fill:url(#Namnlös_övertoning_83);}.cls-11{fill:url(#Namnlös_övertoning_367-5);}.cls-12{fill:url(#Namnlös_övertoning_87);}.cls-13{fill:url(#Namnlös_övertoning_367-6);}.cls-14{fill:url(#Namnlös_övertoning_12);}.cls-15{fill:url(#Namnlös_övertoning_367-7);}.cls-16{fill:url(#Namnlös_övertoning_194);}.cls-17{fill:url(#Namnlös_övertoning_367-8);}.cls-18{fill:url(#Namnlös_övertoning_12-2);}.cls-19{fill:url(#Namnlös_övertoning_367-9);}</style><linearGradient id="Namnlös_övertoning_81" x1="406.31" y1="1227.12" x2="455.8" y2="1227.12" gradientTransform="translate(-547.83 -806.8) rotate(-15.88)" gradientUnits="userSpaceOnUse"><stop offset="0" stop-color="#f20c28"/><stop offset="1" stop-color="#ff632e"/></linearGradient><linearGradient id="Namnlös_övertoning_367" x1="406.31" y1="1227.12" x2="455.8" y2="1227.12" gradientTransform="translate(-547.83 -806.8) rotate(-15.88)" gradientUnits="userSpaceOnUse"><stop offset="0" stop-opacity="0.7"/><stop offset="1" stop-color="#fff" stop-opacity="0.1"/></linearGradient><linearGradient id="Namnlös_övertoning_81-2" x1="869.11" y1="1164.75" x2="934.96" y2="1164.75" xlink:href="#Namnlös_övertoning_81"/><linearGradient id="Namnlös_övertoning_367-2" x1="869.11" y1="1164.75" x2="934.96" y2="1164.75" xlink:href="#Namnlös_övertoning_367"/><linearGradient id="Namnlös_övertoning_80" x1="379.01" y1="1199.64" x2="427.63" y2="1199.64" gradientTransform="translate(-540.8 -820.71) rotate(-13.1)" gradientUnits="userSpaceOnUse"><stop offset="0" stop-color="#ff8f2e"/><stop offset="1" stop-color="#ffbc2e"/></linearGradient><linearGradient id="Namnlös_övertoning_367-3" x1="379.01" y1="1199.64" x2="427.63" y2="1199.64" gradientTransform="translate(-540.8 -820.71) rotate(-13.1)" xlink:href="#Namnlös_övertoning_367"/><linearGradient id="Namnlös_övertoning_80-2" x1="798.88" y1="1202.2" x2="850.4" y2="1202.2" gradientTransform="translate(-547.83 -806.8) rotate(-15.88)" xlink:href="#Namnlös_övertoning_80"/><linearGradient id="Namnlös_övertoning_367-4" x1="798.88" y1="1202.2" x2="850.4" y2="1202.2" xlink:href="#Namnlös_övertoning_367"/><linearGradient id="Namnlös_övertoning_83" x1="561.83" y1="1242.98" x2="612.26" y2="1242.98" gradientTransform="translate(-547.83 -806.8) rotate(-15.88)" gradientUnits="userSpaceOnUse"><stop offset="0" stop-color="#24bc2b"/><stop offset="1" stop-color="lime"/></linearGradient><linearGradient id="Namnlös_övertoning_367-5" x1="561.83" y1="1242.98" x2="612.26" y2="1242.98" xlink:href="#Namnlös_övertoning_367"/><linearGradient id="Namnlös_övertoning_87" x1="638.46" y1="1237.6" x2="688.66" y2="1237.6" gradientTransform="translate(-547.83 -806.8) rotate(-15.88)" gradientUnits="userSpaceOnUse"><stop offset="0" stop-color="#07efe3"/><stop offset="1" stop-color="#aafffd"/></linearGradient><linearGradient id="Namnlös_övertoning_367-6" x1="638.46" y1="1237.6" x2="688.66" y2="1237.6" xlink:href="#Namnlös_övertoning_367"/><linearGradient id="Namnlös_övertoning_12" x1="715.16" y1="1224.1" x2="764.47" y2="1224.1" gradientTransform="translate(-547.83 -806.8) rotate(-15.88)" gradientUnits="userSpaceOnUse"><stop offset="0" stop-color="#a40bf4"/><stop offset="1" stop-color="#a49bff"/></linearGradient><linearGradient id="Namnlös_övertoning_367-7" x1="715.16" y1="1224.1" x2="764.47" y2="1224.1" xlink:href="#Namnlös_övertoning_367"/><linearGradient id="Namnlös_övertoning_194" x1="267.46" y1="1124.44" x2="316.59" y2="1134.63" gradientTransform="matrix(0.89, -0.46, 0.46, 0.89, -499.05, -621.63)" gradientUnits="userSpaceOnUse"><stop offset="0" stop-color="#f908c0"/><stop offset="1" stop-color="#ff94f0"/></linearGradient><linearGradient id="Namnlös_övertoning_367-8" x1="267.46" y1="1124.44" x2="316.59" y2="1134.63" gradientTransform="matrix(0.89, -0.46, 0.46, 0.89, -499.05, -621.63)" xlink:href="#Namnlös_övertoning_367"/><linearGradient id="Namnlös_övertoning_12-2" x1="915.45" y1="1301.25" x2="964.76" y2="1301.25" gradientTransform="matrix(0.88, 0.47, -0.47, 0.88, -194.42, -1345.06)" xlink:href="#Namnlös_övertoning_12"/><linearGradient id="Namnlös_övertoning_367-9" x1="100.08" y1="773.88" x2="127.91" y2="814.59" gradientTransform="translate(-445.26 -405.67) rotate(-27.6)" xlink:href="#Namnlös_övertoning_367"/></defs><title>Namnlöst-13</title><path class="cls-1" d="M369.65,616.33c136.31,90,572.69-45.09,650.42-191.65" transform="translate(-369.37 -424.45)"/><polygon class="cls-2" points="166.31 218.28 216.56 214.03 198.87 304.1 166.31 218.28"/><polygon class="cls-3" points="166.31 218.28 216.56 214.03 198.87 304.1 166.31 218.28"/><polygon class="cls-4" points="601.58 56.94 636.75 20.8 682.41 100.42 601.58 56.94"/><polygon class="cls-5" points="601.58 56.94 636.75 20.8 682.41 100.42 601.58 56.94"/><polygon class="cls-6" points="89.94 217.11 140.3 219.7 110.59 306.55 89.94 217.11"/><polygon class="cls-7" points="89.94 217.11 140.3 219.7 110.59 306.55 89.94 217.11"/><polygon class="cls-8" points="541.35 101.88 583.12 73.62 611.69 160.85 541.35 101.88"/><polygon class="cls-9" points="541.35 101.88 583.12 73.62 611.69 160.85 541.35 101.88"/><polygon class="cls-10" points="320.67 192.5 369.18 178.7 369.08 270.49 320.67 192.5"/><polygon class="cls-11" points="320.67 192.5 369.18 178.7 369.08 270.49 320.67 192.5"/><polygon class="cls-12" points="393.96 170.06 440.91 151.65 449.65 243.02 393.96 170.06"/><polygon class="cls-13" points="393.96 170.06 440.91 151.65 449.65 243.02 393.96 170.06"/><polygon class="cls-14" points="465.41 140.94 509.95 117.28 529.09 207.05 465.41 140.94"/><polygon class="cls-15" points="465.41 140.94 509.95 117.28 529.09 207.05 465.41 140.94"/><polygon class="cls-16" points="246.51 207.52 296.18 198.76 286.66 290.06 246.51 207.52"/><polygon class="cls-17" points="246.51 207.52 296.18 198.76 286.66 290.06 246.51 207.52"/><polygon class="cls-18" points="18.52 202.69 67.01 216.54 18.52 294.48 18.52 202.69"/><polygon class="cls-19" points="18.52 202.69 67.01 216.54 18.52 294.48 18.52 202.69"/></svg>