<svg id="Lager_1" data-name="Lager 1" xmlns="http://www.w3.org/2000/svg" xmlns:xlink="http://www.w3.org/1999/xlink" viewBox="0 0 60.92 61.3"><defs><style>.cls-1{fill:url(#Namnlös_övertoning_61);}.cls-2,.cls-3{fill:none;stroke-miterlimit:10;}.cls-2{stroke:#ff94f0;}.cls-3{stroke:#ff3ef0;}</style><linearGradient id="Namnlös_övertoning_61" x1="-4.8" y1="23.15" x2="61.89" y2="36.97" gradientUnits="userSpaceOnUse"><stop offset="0" stop-color="#f908c0"/><stop offset="1" stop-color="#ff94f0"/></linearGradient></defs><title>Namnlöst-13</title><polygon class="cls-1" points="37.97 60.92 0 60.92 0 0 60.92 0 60.92 41.67 37.97 60.92"/><path class="cls-2" d="M667.88,663.77c2.43-2,5.75-9.72,5.75-21.72" transform="translate(-629.9 -602.86)"/><path class="cls-3" d="M673.63,642.05c0,1.36,7.68,2.47,17.19,2.47" transform="translate(-629.9 -602.86)"/><path d="M645.3,625a22.57,22.57,0,0,0,1.35,8.73.75.75,0,0,0,.92.52c2.07-.77,2.31-3,2.23-4.91,0-.79-1.36-1.08-1.48-.2a4.19,4.19,0,0,0,1.46,3.88,2.91,2.91,0,0,0,2.1.74,2.28,2.28,0,0,0,1.74-1.35,8.29,8.29,0,0,0,.53-2.67,12.22,12.22,0,0,0,0-2.77,6.29,6.29,0,0,0-2-4.15c-.74-.61-1.81.45-1.06,1.06,2,1.65,1.8,4.43,1.49,6.74a2.38,2.38,0,0,1-.51,1.49c-.38.34-.88.07-1.23-.19a2.66,2.66,0,0,1-1-2.38l-1.47-.2c.05,1.1.18,3-1.13,3.47l.93.52a21.1,21.1,0,0,1-1.3-8.33c0-1-1.46-1-1.5,0Z" transform="translate(-629.9 -602.86)"/><path d="M654.94,625.43c0,2.47.14,4.94.38,7.4a.75.75,0,0,0,1.5,0,3.32,3.32,0,0,1,.23-1.71c.18-.33.53-.72.94-.67l-.38-.11c-.11,0-.09-.3-.12-.11a.43.43,0,0,0,0,.12l0,.44c0,.33,0,.66.08,1a2.81,2.81,0,0,0,.79,1.71c.7.67,1.76-.39,1.06-1.06-.91-.87.22-3.59-1.68-3.48a2.66,2.66,0,0,0-1.95,1.28,4.45,4.45,0,0,0-.52,2.61h1.5c-.24-2.46-.36-4.93-.38-7.4a.75.75,0,0,0-1.5,0Z" transform="translate(-629.9 -602.86)"/><path d="M663,629.44a2.25,2.25,0,0,0-2.2.69,3,3,0,0,0-.5,1.93,2.15,2.15,0,0,0,.78,1.92,1.27,1.27,0,0,0,1.33,0,1.92,1.92,0,0,0,.71-.86,11.1,11.1,0,0,0,.83-2.58h-1.44a8.6,8.6,0,0,0,.29,1.24,5.55,5.55,0,0,0,.51,1.2,1.24,1.24,0,0,0,1.38.61,1,1,0,0,0,.65-1.5.75.75,0,0,0-1-.27.77.77,0,0,0-.27,1,.53.53,0,0,1,.08-.61l.05,0a.28.28,0,0,1,.15,0,.25.25,0,0,1,.17,0c.1,0,.12,0,.07,0s0,0,.06.05l-.06-.05s0,0,0,.05l-.06-.09-.07-.14s-.08-.19,0-.05a1.07,1.07,0,0,1-.07-.19,8.08,8.08,0,0,1-.44-1.62.75.75,0,0,0-.72-.55.76.76,0,0,0-.72.55,11.2,11.2,0,0,1-.51,1.8c0,.06,0,.12-.07.19a.61.61,0,0,0-.05.12s0,.11,0,0,0,0,0,0l0,.09a1.62,1.62,0,0,1-.1.18s-.07.08-.09.13.11-.12,0,0l0,.05c-.05.06,0-.05.06,0s-.08.06-.08,0l.08,0c-.09,0,.16,0,.06,0s.16,0,.07,0,.09,0,.08,0-.08-.06,0,0,0,0,0,0l.05.07,0,0c-.06-.16,0,.14,0,0a1.24,1.24,0,0,1,0-.16s0-.22,0-.09,0,0,0-.06a1.21,1.21,0,0,0,0-.19,5.61,5.61,0,0,1,0-.71v.08l0-.1a.89.89,0,0,1,0-.14c0-.05,0-.1,0-.16s0,.07,0,.07,0-.08.05-.1A.42.42,0,0,0,662,631c0,.07-.11.12,0,0l.06-.06c.08-.09,0,0,0,0l.08-.06s.1-.06,0,0,.06,0,.08,0l.09,0c.09,0-.17,0,0,0h.21a3.15,3.15,0,0,1,.52.05.75.75,0,0,0,0-1.5Z" transform="translate(-629.9 -602.86)"/><path d="M665.82,622.74v4.88a12.5,12.5,0,0,0,.4,4.44c.47,1.21,1.83,2.26,3.15,1.57s1.39-2.36.88-3.6a.77.77,0,0,0-.92-.52.74.74,0,0,0-.52.92,2.17,2.17,0,0,1,.22,1.41.56.56,0,0,1-.75.45c-.89-.32-.92-1.76-.94-2.52-.08-2.34,0-4.69,0-7a.75.75,0,0,0-1.5,0Z" transform="translate(-629.9 -602.86)"/><path d="M666.11,630.66c-.16.13,0,0,.07,0l.18-.13.37-.24c.25-.14.5-.28.76-.4l.18-.08h0l.11,0a2.86,2.86,0,0,1,.41-.15,6.42,6.42,0,0,1,.86-.23.75.75,0,0,0-.4-1.45,8.87,8.87,0,0,0-3.57,1.7.75.75,0,0,0-.22.53.73.73,0,0,0,.22.53.75.75,0,0,0,.53.22.89.89,0,0,0,.53-.22Z" transform="translate(-629.9 -602.86)"/><path d="M674.18,624.89a2.37,2.37,0,0,0-.27-.93l-.2-.42s0,.13-.07.11a1.24,1.24,0,0,1,.2-.1,1.51,1.51,0,0,1,.51-.08,2.78,2.78,0,0,1,1.59.21,1.24,1.24,0,0,1,.52.9,2.09,2.09,0,0,1-1.46,2,8,8,0,0,0-.77.29,1,1,0,0,0-.47.94c0,.7.18,1.41.27,2.1a.78.78,0,0,0,.75.75.76.76,0,0,0,.75-.75l-.15-1.16-.07-.55a1.76,1.76,0,0,1,0-.42l-.19.33c-.05,0-.15.05,0,.05a.88.88,0,0,0,.15-.05l.3-.12a5.79,5.79,0,0,0,.71-.34,4.11,4.11,0,0,0,1.11-1,3.15,3.15,0,0,0,.56-2.67,2.64,2.64,0,0,0-2-1.94,4.53,4.53,0,0,0-2.84.21,1.45,1.45,0,0,0-.81,1.32,2,2,0,0,0,.24.82,2.29,2.29,0,0,1,.23.48.76.76,0,0,0,.75.75.75.75,0,0,0,.75-.75Z" transform="translate(-629.9 -602.86)"/><path d="M675.06,633.6a.75.75,0,0,0,0-1.5.75.75,0,0,0,0,1.5Z" transform="translate(-629.9 -602.86)"/><path d="M653,619.32a.75.75,0,0,0,0-1.5.75.75,0,0,0,0,1.5Z" transform="translate(-629.9 -602.86)"/><path d="M653.67,618.15l-2.36-3.5a.75.75,0,0,0-1.3.76l2.36,3.5a.76.76,0,0,0,1,.27.77.77,0,0,0,.27-1Z" transform="translate(-629.9 -602.86)"/><path d="M660.27,618.34v-4a.75.75,0,1,0-1.5,0v4a.75.75,0,1,0,1.5,0Z" transform="translate(-629.9 -602.86)"/><path d="M669,618.86a17.69,17.69,0,0,0,2.49-2.7.76.76,0,0,0-.85-1.11.89.89,0,0,0-.44.35l-.14.18,0,0-.07.09-.26.32c-.19.22-.38.44-.58.65-.39.42-.81.82-1.24,1.2a.75.75,0,0,0,0,1.06.77.77,0,0,0,1.06,0Z" transform="translate(-629.9 -602.86)"/><path d="M654.27,639.78a15.58,15.58,0,0,1-.87,1.54c-.16.24-.32.47-.49.7l-.13.17s-.11.15,0,.06,0,0,0,0l-.29.36a.79.79,0,0,0-.22.53.75.75,0,0,0,1.28.53,16.52,16.52,0,0,0,2.08-3.15.78.78,0,0,0-.27-1,.77.77,0,0,0-1,.27Z" transform="translate(-629.9 -602.86)"/><path d="M662.3,639.65a10.61,10.61,0,0,0,.73,5.11.78.78,0,0,0,.92.53.76.76,0,0,0,.53-.92,9.54,9.54,0,0,1-.68-4.72.75.75,0,1,0-1.5,0Z" transform="translate(-629.9 -602.86)"/><path d="M670.35,638.64a8.62,8.62,0,0,1,1.24.3l.32.11.15.05.08,0,.56.27a6.76,6.76,0,0,1,1.08.68c.1.07-.07-.06,0,0l.12.09.26.23c.16.15.33.31.48.47a.75.75,0,1,0,1.06-1.06,8.81,8.81,0,0,0-5-2.64.78.78,0,0,0-.93.52.75.75,0,0,0,.53.92Z" transform="translate(-629.9 -602.86)"/></svg>