<svg id="Lager_1" data-name="Lager 1" xmlns="http://www.w3.org/2000/svg" xmlns:xlink="http://www.w3.org/1999/xlink" viewBox="0 0 60.38 60.77"><defs><style>.cls-1{fill:url(#Namnlös_övertoning_114);}.cls-2,.cls-3{fill:none;stroke-miterlimit:10;}.cls-2{stroke:#c5ffb9;}.cls-3{stroke:#53ff00;}</style><linearGradient id="Namnlös_övertoning_114" x1="-4.75" y1="22.95" x2="61.35" y2="36.64" gradientUnits="userSpaceOnUse"><stop offset="0" stop-color="#4ce900"/><stop offset="1" stop-color="#d2ffbf"/></linearGradient></defs><title>Namnlöst-13</title><polygon class="cls-1" points="37.64 60.38 0 60.38 0 0 60.38 0 60.38 41.3 37.64 60.38"/><path class="cls-2" d="M667.81,663.5c2.42-2,5.7-9.63,5.7-21.53" transform="translate(-630.17 -603.12)"/><path class="cls-3" d="M673.51,642c0,1.36,7.62,2.45,17,2.45" transform="translate(-630.17 -603.12)"/><path d="M648.23,625.2a30,30,0,0,0,1,8.54.75.75,0,0,0,1.44-.39,29.1,29.1,0,0,1-.91-8.15c0-1-1.47-1-1.5,0Z" transform="translate(-630.17 -603.12)"/><path d="M652.2,625.52a28.86,28.86,0,0,0,.74,9.07c.22.93,1.67.54,1.44-.4a27.5,27.5,0,0,1-.68-8.67c.07-1-1.43-1-1.5,0Z" transform="translate(-630.17 -603.12)"/><path d="M649.5,631.78l2.75-.12,1.29-.06a1.24,1.24,0,0,0,1.2-.83.76.76,0,0,0-.52-.93.77.77,0,0,0-.93.53.57.57,0,0,1,.2-.26l0,0-.09,0c.11,0,.12,0,0,0s-.35,0-.53,0l-1.15.06-2.3.1a.75.75,0,0,0,0,1.5Z" transform="translate(-630.17 -603.12)"/><path d="M655.16,629.63a4.11,4.11,0,0,0,.93,3.46,2.36,2.36,0,0,0,1.63.66,2.05,2.05,0,0,0,1.63-.81,2.46,2.46,0,0,0,.39-1.73,3.41,3.41,0,0,0-.71-1.72,2.79,2.79,0,0,0-3.29-.84,2.08,2.08,0,0,0-.65,3.22.75.75,0,0,0,1.06,0,.76.76,0,0,0,0-1.06l0,0c0-.06,0,0,0,.05l-.07-.1c-.08-.13,0,.17,0,0a.19.19,0,0,1,0-.08c0-.08,0-.15,0,0a.57.57,0,0,0,0-.13v-.17c0,.13,0,.15,0,.07s0-.15.07-.23-.09.17,0,0a.41.41,0,0,1,.07-.11l0,0c0-.06,0,0,0,.05s0-.05.06-.07.08-.06.09-.09l-.05,0,.09-.05.12-.06c.09-.05-.18,0,0,0l.15-.05h0s.23,0,.26,0h0c.09,0,.07,0,0,0l.16,0a.76.76,0,0,1,.3.1l-.08,0,.1,0,.09.05.13.09c.15.09-.12-.11,0,0l.22.22s.09.08.1.11l0-.07a.43.43,0,0,0,0,.07,1.58,1.58,0,0,1,.15.24s.08.11.07.14,0-.13,0,0a2.3,2.3,0,0,1,.1.35l0,.13c0,.11,0-.19,0,0a1.58,1.58,0,0,1,0,.31.34.34,0,0,1,0,.1c0,.19,0-.15,0,0a.94.94,0,0,0,0,.16s0,.08,0,.11l0-.07s-.06.11-.08.14.1-.08,0,0a1.09,1.09,0,0,0-.11.1s.15-.1,0,0l-.12.06.09,0-.09,0-.09,0-.09,0h-.19c-.11,0,.19,0,0,0l-.13,0c-.08,0-.14-.09,0,0l-.09-.05-.13-.08q-.11-.08,0,0l-.08-.07a.92.92,0,0,1-.22-.22l.06.07-.06-.09-.08-.13-.08-.14,0-.09c0,.09.05.11,0,0s-.07-.21-.1-.31,0-.13,0-.19h0a.28.28,0,0,1,0-.09,3,3,0,0,1,0-.42,6,6,0,0,1,0-.85.75.75,0,0,0-.75-.75.77.77,0,0,0-.75.75Z" transform="translate(-630.17 -603.12)"/><path d="M660.43,629.13a4.15,4.15,0,0,0,1.65,4c.64.47,1.78,1,2.28.05a5.34,5.34,0,0,0,.55-2.75l-1.47.2a5.41,5.41,0,0,0,1.68,2.47,1.82,1.82,0,0,0,1.73.48,2.42,2.42,0,0,0,1.2-1,3.87,3.87,0,0,0-.44-4.83c-.68-.68-1.75.38-1.06,1.06a2.37,2.37,0,0,1,.38,2.74,1.18,1.18,0,0,1-.49.57c-.13.07-.35-.15-.48-.28a4,4,0,0,1-1.08-1.62.75.75,0,0,0-.82-.53.74.74,0,0,0-.65.73,4.15,4.15,0,0,1-.07,1.11,3.07,3.07,0,0,1-.14.52,1.55,1.55,0,0,1-.08.23l0,.1c0,.08,0,.09,0,0l.34-.19c.19,0,.23,0,.09,0l-.12,0s0,0,0,0l-.11-.06A2,2,0,0,1,663,632l-.12-.08a2.66,2.66,0,0,1-.62-.69,2.42,2.42,0,0,1-.36-.86c0-.08,0-.17,0-.25,0,.11,0-.11,0-.13a1,1,0,0,1,0-.25.86.86,0,0,1,0-.16c0,.06,0,0,0-.05a.79.79,0,0,0-.53-.93.76.76,0,0,0-.92.53Z" transform="translate(-630.17 -603.12)"/><path d="M671.38,624c-.16-.49,1.77-.54,2.09-.48a1.49,1.49,0,0,1,1.35,1.43.9.9,0,0,1-.5.73c-.5.31-1,.56-1.56.83a1.7,1.7,0,0,0-.75.6,1.79,1.79,0,0,0-.09,1l.16,1.88a.75.75,0,0,0,1.5,0l-.14-1.74a1.79,1.79,0,0,0,0-.47c-.12-.21,0,.22-.13.16a.81.81,0,0,0,.18-.1l.87-.45c1-.51,1.86-1.08,2-2.26a2.79,2.79,0,0,0-1.09-2.44,4,4,0,0,0-3.08-.64,3.46,3.46,0,0,0-1.6.6,1.61,1.61,0,0,0-.59,1.75c.3.92,1.75.52,1.44-.4Z" transform="translate(-630.17 -603.12)"/><path d="M672.78,634.09a.75.75,0,0,0,0-1.5.75.75,0,0,0,0,1.5Z" transform="translate(-630.17 -603.12)"/><path d="M660.41,618.27l-.17-4.26a.76.76,0,0,0-.75-.75.77.77,0,0,0-.75.75l.17,4.26a.76.76,0,0,0,.75.75.77.77,0,0,0,.75-.75Z" transform="translate(-630.17 -603.12)"/><path d="M668.59,619.27a16.94,16.94,0,0,0,1.62-2.84.83.83,0,0,0,.07-.58.75.75,0,0,0-1.37-.18,16.73,16.73,0,0,1-1.62,2.85.74.74,0,0,0,.27,1,.76.76,0,0,0,1-.27Z" transform="translate(-630.17 -603.12)"/><path d="M651.9,619.2l-.34-.41-.09-.11s-.12-.15-.06-.08l0-.06a.76.76,0,0,0-.08-.11c-.22-.29-.43-.6-.63-.91a15.87,15.87,0,0,1-1.1-1.92.75.75,0,0,0-1.3.76,19.16,19.16,0,0,0,2.59,3.9.75.75,0,0,0,1.06,0,.77.77,0,0,0,0-1.06Z" transform="translate(-630.17 -603.12)"/><path d="M653.2,639.24q-1.55,2.44-3.23,4.81a.75.75,0,0,0,.27,1,.76.76,0,0,0,1-.27c1.12-1.57,2.19-3.18,3.23-4.81a.75.75,0,0,0-.27-1,.76.76,0,0,0-1,.27Z" transform="translate(-630.17 -603.12)"/><path d="M660.87,641.56A29.27,29.27,0,0,0,661,646a.78.78,0,0,0,.75.75c.37,0,.8-.34.75-.75a29.27,29.27,0,0,1-.12-4.39.75.75,0,0,0-.75-.75.77.77,0,0,0-.75.75Z" transform="translate(-630.17 -603.12)"/><path d="M669.23,639.93a15.22,15.22,0,0,0,2.62,3.1.75.75,0,0,0,1.06-1.06,14.44,14.44,0,0,1-1.34-1.37l-.29-.36-.07-.08c-.1-.14.07.09,0,0l-.14-.19c-.19-.26-.38-.53-.55-.81a.75.75,0,0,0-1.3.76Z" transform="translate(-630.17 -603.12)"/></svg>