<svg id="Lager_1" data-name="Lager 1" xmlns="http://www.w3.org/2000/svg" xmlns:xlink="http://www.w3.org/1999/xlink" viewBox="0 0 69.72 70.11"><defs><style>.cls-1{fill:url(#Namnlös_övertoning_99);}.cls-2,.cls-3{fill:none;stroke-miterlimit:10;}.cls-2{stroke:#ffcd97;}.cls-3{stroke:#ffa017;}</style><linearGradient id="Namnlös_övertoning_99" x1="-5.49" y1="26.51" x2="70.84" y2="42.31" gradientUnits="userSpaceOnUse"><stop offset="0" stop-color="#ff8000"/><stop offset="1" stop-color="#ffca9d"/></linearGradient></defs><title>Namnlöst-13</title><polygon class="cls-1" points="43.46 69.72 0 69.72 0 0 69.72 0 69.72 47.69 43.46 69.72"/><path class="cls-2" d="M669,668.17c2.79-2.34,6.58-11.12,6.58-24.86" transform="translate(-625.5 -598.45)"/><path class="cls-3" d="M675.54,643.31c0,1.56,8.8,2.83,19.68,2.83" transform="translate(-625.5 -598.45)"/><path d="M649.07,617.27V624a.75.75,0,0,0,1.5,0v-6.77a.75.75,0,0,0-1.5,0Z" transform="translate(-625.5 -598.45)"/><path d="M647.05,618.77a9.26,9.26,0,0,1,5.4-.92.76.76,0,0,0,.75-.75.77.77,0,0,0-.75-.75,10.49,10.49,0,0,0-6.15,1.13.75.75,0,1,0,.75,1.29Z" transform="translate(-625.5 -598.45)"/><path d="M652.45,620.46a9.41,9.41,0,0,0,.5,3.61l1.37-.58a.48.48,0,0,1-.08-.16c0,.18,0,0,0,0a2.14,2.14,0,0,1-.09-.34c0-.06-.07-.2,0,0a.76.76,0,0,1,0-.15,1.71,1.71,0,0,1,0-.32s0-.08,0-.12v.09a1.13,1.13,0,0,1,0-.18,2.07,2.07,0,0,1,.1-.33c0-.06,0-.2,0,0a.31.31,0,0,1,.06-.13,3,3,0,0,1,.19-.3c0-.07-.09.1,0,0l.12-.12.12-.12,0,0a1.12,1.12,0,0,1,.29-.19l.12-.06s.19-.09.09-.05l.07,0,.16,0a1.21,1.21,0,0,0,.33-.07h.33c.05,0,.26,0,.05,0a.77.77,0,0,0,.92-.53.74.74,0,0,0-.52-.92,3.38,3.38,0,0,0-3.59,4.94.77.77,0,0,0,.94.31.75.75,0,0,0,.43-.89A9.31,9.31,0,0,1,654,622c0-.06,0,0,0,0V622c0-.08,0-.15,0-.22l0-.43a8.42,8.42,0,0,1,0-.87.75.75,0,0,0-1.5,0Z" transform="translate(-625.5 -598.45)"/><path d="M655.94,620.47a4.21,4.21,0,0,0,.58,3.58,1.79,1.79,0,0,0,.92.73,1.35,1.35,0,0,0,1.21-.26,3.85,3.85,0,0,0,1.09-1.73,4.8,4.8,0,0,0,.28-2.09h-1.5l.45,3.72a.76.76,0,0,0,.75.75c.36,0,.8-.33.75-.75L660,620.7a.77.77,0,0,0-.75-.75.75.75,0,0,0-.75.75c0,.17,0,.33,0,.5s0,.13,0,.19,0,.31,0,.12a4.06,4.06,0,0,1-.21.85s-.12.28,0,.12c0,.07-.07.15-.11.23l-.22.38s-.19.24-.07.1l-.12.13c-.06,0,0,0,0,0a.21.21,0,0,1-.1.06.33.33,0,0,1,.17,0c-.08,0-.08,0,0,0s.06,0,0,0,.1,0,0,0c.15.11,0-.05-.06-.08s.07.13,0,0l-.13-.21c0-.06-.07-.14-.11-.21s-.09-.2,0,0a3.45,3.45,0,0,1-.14-.42,1.6,1.6,0,0,1-.05-.21s-.08-.29,0-.09a1.5,1.5,0,0,1,0-.42,1.93,1.93,0,0,1,0-.24s0-.23,0,0a2.46,2.46,0,0,1,.1-.47.75.75,0,1,0-1.44-.4Z" transform="translate(-625.5 -598.45)"/><path d="M663.52,619.5a2.16,2.16,0,0,0-2.91,1.16c-.43.93-.76,2.6.58,3a1.48,1.48,0,0,0,1.43-.56c.15-.16.28-.33.43-.49s.24-.23.09-.11a.31.31,0,0,1,.09-.07l.09,0h0l.1,0h.06c.08,0,.07,0,0,0a.66.66,0,0,1,.28,0h-.09l.11,0,.11,0c.17,0-.12-.08,0,0l.14.08c.15.09-.08-.1,0,0l.07.08c-.11-.11,0,0,0,0l0,.07c-.06-.1,0,.06,0,.07s0,.1,0,.14,0-.18,0,0a1.34,1.34,0,0,1,0,.2s0,.18,0,0l0,.2s-.07.16,0,0a.77.77,0,0,1-.1.18s-.11.13,0,0l-.15.14c-.07.08.15-.08,0,0l-.18.1c-.09.06.17,0,0,0l-.2,0s-.18,0,0,0h-.35c.19,0,0,0-.06,0l-.15,0h0l-.11,0a.76.76,0,0,0-1,.27.75.75,0,0,0,.27,1,2.51,2.51,0,0,0,3-.42,2.34,2.34,0,0,0,.09-3.06,2.19,2.19,0,0,0-2.82-.37,9.35,9.35,0,0,0-.93,1l0,0c-.07.06-.06.05,0,0l-.09.06c0,.09.15-.13,0,0l.12,0c.11,0,.14,0,.08,0s.12.07.14.09c-.13-.11.07.1,0,0s.08.17,0,0,0-.07,0,0v-.08a.71.71,0,0,0,0-.14c0-.16,0,.14,0-.06s.06-.26.09-.39a1,1,0,0,0,0-.16s0-.09,0-.13,0,.08,0,0,.13-.24.2-.35-.11.11,0,0,.19-.16.11-.11.08,0,.08,0a.34.34,0,0,1,.12-.06c-.08,0-.09,0,0,0l.15,0h.08c.06,0,.16,0,0,0a.23.23,0,0,1,.11,0c-.08,0-.09,0,0,0a.75.75,0,0,0,.76-1.3Z" transform="translate(-625.5 -598.45)"/><path d="M666.39,617.45q-.1,3.39.1,6.75a.77.77,0,0,0,.55.73,2.67,2.67,0,0,0,2.16-.37.75.75,0,1,0-.75-1.29,1.22,1.22,0,0,1-1,.21l.55.72q-.21-3.36-.1-6.75c0-1-1.47-1-1.5,0Z" transform="translate(-625.5 -598.45)"/><path d="M666.13,621.72c-.18.14,0,0,0,0l.15-.09.32-.18.09,0-.06,0a.5.5,0,0,0,.13,0,2.35,2.35,0,0,1,.35-.11l.36-.07c-.18,0-.09,0,0,0H668l.18,0h-.06l.09,0a.84.84,0,0,0,.58-.08.77.77,0,0,0,.34-.45.76.76,0,0,0-.52-.92,4.68,4.68,0,0,0-1.9,0,4.56,4.56,0,0,0-1.67.85.75.75,0,0,0-.22.53.73.73,0,0,0,.22.53.75.75,0,0,0,.53.22.89.89,0,0,0,.53-.22Z" transform="translate(-625.5 -598.45)"/><path d="M650.55,632.66c1.26-1,2.77-1.81,3.76-3.13.48-.64,1.65-2.85.62-3.45-2.15-1.25-3.31,6.52-3.48,7.59,0,.28.26.65.55.43a2.91,2.91,0,0,0,1.28-2.66,1.47,1.47,0,0,0-1.72-1.39.38.38,0,0,0-.09.68c2.86,1.51,4.79-1.87,6.7-3.32l-.51-.51-2.51,5c-.15.3.19.76.52.51.61-.46,1.22-.92,1.84-1.37.4-.29.72-.43,1.13.07.09.11.13.3.23.42A1.86,1.86,0,0,0,661,632c.63-.24,1.58-1,1.62-1.75a.79.79,0,0,0-1-.78.93.93,0,0,0-.55,1.37c.41.86,1.53.87,2.34.91a15.08,15.08,0,0,0,3.67-.28c.74-.15,1.5-.46,1.37-1.33-.07-.48-.79-.27-.72.2s-3.39.68-3.83.67-.65,0-1,0a3.42,3.42,0,0,1-.63-.09l-.5-.47s-.77.76-.82.79a1.29,1.29,0,0,1-1.25,0c-.65-.45-.45-1.5-1.5-1.41a2.49,2.49,0,0,0-1.2.63c-.57.41-1.13.84-1.7,1.26l.51.52,2.5-5c.16-.3-.18-.76-.51-.51-1.59,1.2-3.55,4.57-5.94,3.32l-.09.68c.73-.17.83,1,.75,1.36a2.39,2.39,0,0,1-.88,1.32l.55.42a30.81,30.81,0,0,1,.74-3.56c.16-.59.34-1.17.54-1.75.09-.27.57-2,1-1.55.25.25-.4,1.47-.52,1.66a6,6,0,0,1-1.29,1.45c-.85.72-1.81,1.3-2.68,2-.37.31.16.84.53.53Z" transform="translate(-625.5 -598.45)"/><path d="M644.56,637.21c0,2,0,4,.06,6.07a.75.75,0,0,0,1.5,0l-.06-3.59,0-1.66a2,2,0,0,0,0-.49v-.1c.05,0,0,.1-.13.16l.11,0h.39a9.06,9.06,0,0,1,1.38,0c.11,0,.11,0,.18,0s-.05,0,0-.06,0-.07,0,0c0-.07,0-.06,0,0,0-.07-.08.13-.08.13a2.46,2.46,0,0,1-2.33.45.75.75,0,0,0-.4,1.44,4.2,4.2,0,0,0,3.29-.41c.88-.6,1.49-1.85.58-2.71a2.12,2.12,0,0,0-1.48-.46,11,11,0,0,0-1.72,0,1.34,1.34,0,0,0-1.23,1.23,13.94,13.94,0,0,0,0,1.71l.07,4.23h1.5c-.08-2-.1-4-.06-6.07a.75.75,0,0,0-1.5,0Z" transform="translate(-625.5 -598.45)"/><path d="M648.87,640.59l0,3.16a.78.78,0,0,0,.55.73.77.77,0,0,0,.85-.35,3.21,3.21,0,0,0,.26-1.81,2.81,2.81,0,0,1,0-.41s0-.11,0-.15,0,.13,0,0a.44.44,0,0,0,0-.1l0-.1c0-.08,0-.06,0,0a.91.91,0,0,0,.07-.14l.05-.07c0-.06,0,0-.05.06l.09-.09s.16-.1,0,0l.12-.09.14-.07c.11-.06-.19.07,0,0l.28-.08.16,0c.21,0-.13,0,0,0a4.85,4.85,0,0,1,.66,0l.34,0,.17,0c.22,0-.12,0,0,0a.83.83,0,0,0,.58-.08.75.75,0,0,0,.35-.45.76.76,0,0,0-.53-.92,5,5,0,0,0-2.5.12,2.33,2.33,0,0,0-1.12.86,2.48,2.48,0,0,0-.34,1.48c0,.25,0,.5,0,.75v.18s0,0,0,.07,0-.16,0-.05a1.8,1.8,0,0,1-.05.19s0,.1,0,0,0,0,0,0l1.39.37,0-3.16a.75.75,0,0,0-1.5,0Z" transform="translate(-625.5 -598.45)"/><path d="M653.45,640a3.73,3.73,0,0,0-.57,1.55,2.23,2.23,0,0,0,.39,1.5,2.44,2.44,0,0,0,1.23.91,2.53,2.53,0,0,0,1.39,0,2.37,2.37,0,0,0,1.74-1.93,2.64,2.64,0,0,0-.16-1.47,2.57,2.57,0,0,0-.91-1.1,2.68,2.68,0,0,0-2.88,0,.75.75,0,1,0,.76,1.29l.2-.11c.13-.07-.17.06,0,0l.07,0,.23-.05c.07,0,.15,0,0,0h.35s.16,0,0,0,0,0,0,0l.23.06.09,0c.16.06-.14-.07,0,0l.2.11.07,0c.12.08-.14-.12,0,0a1.29,1.29,0,0,1,.17.16l0,.06c-.16-.17,0,0,0,0a1.24,1.24,0,0,1,.1.2c0,.08-.07-.19,0-.05a.76.76,0,0,0,0,.11c0,.06,0,.13,0,.19s0-.19,0,0v.36c0,.16,0-.19,0,0s0,.08,0,.12l-.06.19c-.05.14.08-.16,0,0l-.07.14a.56.56,0,0,1,0,.08c-.05.07-.09.07,0,0-.06,0-.1.12-.16.18a.15.15,0,0,0-.06,0c.12-.14.09-.07,0,0l-.1.06c-.06,0-.21.07,0,0l-.18.07-.12,0c-.07,0-.18,0,.05,0H655c.22,0,.12,0,.05,0l-.12,0-.11,0c-.11,0,.06,0,.07,0l-.2-.11c-.06,0-.14-.12,0,0l-.09-.08-.09-.09,0,0-.05-.08a.56.56,0,0,1,0-.08.2.2,0,0,1,0-.08c0-.07,0-.05,0,.06a.78.78,0,0,0-.05-.14.83.83,0,0,1,0-.15c0-.12,0,0,0,0a.6.6,0,0,0,0-.19.61.61,0,0,1,0-.14c0,.1,0,.13,0,.07s0,0,0-.07,0-.1,0-.15,0-.17.07-.19-.06.12,0,0a1.63,1.63,0,0,1,.09-.19l.17-.31a.74.74,0,0,0-.27-1,.75.75,0,0,0-1,.27Z" transform="translate(-625.5 -598.45)"/><path d="M660.54,639.07a2.32,2.32,0,0,0-2.06,2.57,2.41,2.41,0,0,0,.73,1.57,2.68,2.68,0,0,0,1.63.68,2.5,2.5,0,0,0,.9-.1,2.63,2.63,0,0,0,1-.5.75.75,0,0,0,.22-.53.73.73,0,0,0-.22-.53.75.75,0,0,0-.53-.22.89.89,0,0,0-.53.22s.16-.11.06-.05l-.05,0-.12.07s-.18.08,0,0-.05,0-.07,0l-.25.06c-.12,0,.19,0,0,0h-.3s-.19,0,0,0h-.06l-.15,0-.12,0,.09,0-.07,0-.24-.13c-.09-.07.13.11,0,0l-.1-.1s-.12-.14,0,0,0,0,0-.06l-.06-.11s0,0,0-.07.06.17,0,.1-.06-.18-.08-.27,0-.2,0,0,0,0,0-.05a2.35,2.35,0,0,1,0-.26c0-.12,0,.19,0,0l0-.12s0-.09,0-.13l0,0c0-.13-.07.12,0,.06s.09-.17.15-.26-.11.12,0,0l.11-.11,0,0c.09-.09-.12.06-.05,0l.15-.09.07,0-.06,0h0l.08,0c.16-.05-.17,0,0,0a.76.76,0,0,0,.75-.75.75.75,0,0,0-.75-.75Z" transform="translate(-625.5 -598.45)"/><path d="M663.82,641.19a4.31,4.31,0,0,0,1.47.19,1.87,1.87,0,0,0,1.42-.78,1.48,1.48,0,0,0-.72-2.3,1.6,1.6,0,0,0-1.56.54,3.72,3.72,0,0,0-.66,1.46,2.88,2.88,0,0,0,0,1.62,1.9,1.9,0,0,0,.87,1.06,3.75,3.75,0,0,0,2.7.13.75.75,0,0,0-.4-1.45l-.38.08c-.06,0-.31,0-.06,0l-.22,0a2.67,2.67,0,0,1-.4,0h-.17c-.15,0,.15,0,.05,0l-.12,0-.17,0-.08,0c.17,0,.12.06,0,0l-.14-.09c-.1-.06,0,0,.06,0a.73.73,0,0,0-.09-.08s-.09-.12,0,0,0,0,0,0a.16.16,0,0,0,0-.07c-.06-.11,0,0,0,0s0-.1,0-.13v0c0-.08,0-.07,0,0,0,0,0-.22,0-.28s0-.08,0-.11c0,.17,0,0,0,0a2.44,2.44,0,0,1,.06-.26c0-.18.1-.36.15-.54a1.11,1.11,0,0,0,.08-.21s-.07.13,0,0a.75.75,0,0,1,.07-.12s0-.09.07-.11-.11.11,0,0l.07-.07q-.14.11,0,0l0,0c.13-.09-.12,0,0,0l.12,0s-.2,0-.06,0,0,0-.06,0c.15,0-.11-.07,0,0s0,.06-.05-.05,0,.05.05.05-.11-.14-.05,0,0-.08,0-.09a.24.24,0,0,0,0,.08c0,.09,0-.21,0-.08v.08c0,.18,0-.16,0,0l0,.09c0,.12.09-.16,0,0a.16.16,0,0,1,0,.07c-.05.08-.08.06,0,0l-.05.06c-.09.09,0,0,0,0s0,0-.06,0l-.08,0,.08,0a.31.31,0,0,1-.13,0s-.2,0-.09,0h-.34c-.19,0,.16,0,0,0a6,6,0,0,1-.61-.14.75.75,0,0,0-.4,1.45Z" transform="translate(-625.5 -598.45)"/><path d="M670.71,638a2.1,2.1,0,0,0-2.29.75,1.78,1.78,0,0,0,.49,2.22,2.32,2.32,0,0,0,1.07.54,5,5,0,0,0,1.39,0l.61,0h.43c.15,0-.13,0,0,0l.11,0s-.16-.09,0,0a.35.35,0,0,1-.18-.29s0-.14,0-.16-.05.08-.07.1,0,0,0,0l-.14.12h0l-.15.1-.25.14-.11.06s0,0,0,0l-.09,0-.27.09-.31.06c.16,0,0,0,0,0l-.18,0h-.44c.13,0,0,0,0,0a.75.75,0,1,0-.4,1.44,4,4,0,0,0,2.51-.32c.8-.38,1.79-1.29,1.19-2.24s-1.74-.6-2.56-.54a3.12,3.12,0,0,1-.61,0h-.15s.13,0,0,0l-.1,0-.05,0c-.08,0-.07,0,0,0-.05,0-.15-.08-.19-.11l-.09-.06s.13.12,0,0-.14-.11-.15-.15.07.11,0,0a1,1,0,0,0-.08-.14c-.06-.1,0,0,0,0s0-.14,0-.14,0,.2,0,.06,0-.17,0,0,0,0,0,0,0,0,0,.06l0-.06c.06-.08-.08.1,0,0l0,0-.07,0,.09,0c.12-.09-.13,0,0,0l.11,0,.08,0h-.07s.23,0,.28,0h.11l-.09,0,.11,0a.77.77,0,0,0,.92-.52.76.76,0,0,0-.52-.92Z" transform="translate(-625.5 -598.45)"/><path d="M677.05,638.33a2.32,2.32,0,0,0-2.73.42,2.42,2.42,0,0,0-.62,1.39,1.8,1.8,0,0,0,.41,1.42,1.35,1.35,0,0,0,1.66.13,2,2,0,0,0,.5-.45s.38-.48.42-.46-.16.11,0,0,.15-.07,0,0,0,0,0,0l.12,0c.07,0,0,0-.08,0h.2c.13,0-.2,0,0,0a1.52,1.52,0,0,0,.2.06c-.17,0-.11,0,0,0l.07,0c.09.06,0,.08,0,0l.06.06.08.09c-.14-.11-.07-.1,0,0s0,.1,0,0a.84.84,0,0,0,0,.12c0,.15,0-.18,0,0v0s0,.1,0,.13.08-.14,0,0l-.07.11c-.08.13.1-.1,0,0l-.09.09c-.1.1.14-.07,0,0l-.1.05c-.12.07.17,0,0,0l-.11,0h0c-.12,0,0,0,.05,0l-.08,0c.11,0,.12.06.05,0a.75.75,0,0,0-.75,1.3,1.71,1.71,0,0,0,1.51,0,1.89,1.89,0,0,0,.88-.82,1.73,1.73,0,0,0-.7-2.34,2,2,0,0,0-2.38.31c-.15.15-.27.32-.41.47a.6.6,0,0,1-.08.08c-.13.13.14-.07,0,0,0,0-.08.05-.09,0s.12-.05,0,0-.06,0,.06,0h-.09c.05,0,.27.11.16,0s.17.2.11.07c0,0,0,.15,0,0a1,1,0,0,1,0-.15s0,.17,0,.05a.85.85,0,0,1,0-.16c0-.19,0,0,0,0s.05-.29.08-.29l0,.08,0-.09.08-.13c.08-.15-.11.11,0,0a.52.52,0,0,1,.1-.11l0,0c.06-.06,0-.05,0,0s.1-.07.13-.09l0,0c.07,0,.06,0,0,0s.14,0,.18,0a.31.31,0,0,1,.13,0h.16c.16,0-.16,0,0,0l.12,0,.1,0c-.1,0-.11,0,0,0a.75.75,0,0,0,.76-1.3Z" transform="translate(-625.5 -598.45)"/><path d="M661.11,647.93a14.33,14.33,0,0,0,.43,4.52.74.74,0,0,0,.92.52.75.75,0,0,0,.52-.92,12.59,12.59,0,0,1-.37-4.12.75.75,0,0,0-.75-.75.77.77,0,0,0-.75.75Z" transform="translate(-625.5 -598.45)"/><path d="M667,648a7.3,7.3,0,0,1,.6,1.1l-.08-.18a5.37,5.37,0,0,1,.21.56.77.77,0,0,0,.34.45.83.83,0,0,0,.58.08.79.79,0,0,0,.45-.35.73.73,0,0,0,.07-.58,6.77,6.77,0,0,0-.88-1.84.77.77,0,0,0-.45-.34.75.75,0,0,0-.57.07.78.78,0,0,0-.35.45.74.74,0,0,0,.08.58Z" transform="translate(-625.5 -598.45)"/><path d="M655.66,647.25a9.47,9.47,0,0,1-.73,1.27c-.06.1-.13.19-.19.28l-.12.16,0-.05-.06.07c-.15.19-.32.38-.49.57a.75.75,0,0,0,1.06,1.06A10.43,10.43,0,0,0,657,648a.75.75,0,0,0,.07-.57.71.71,0,0,0-.34-.45.76.76,0,0,0-1,.27Z" transform="translate(-625.5 -598.45)"/><path d="M660.18,613.17c0-.16,0-.32-.08-.48s0-.07,0-.11,0,.07,0,0l0-.22c0-.31-.06-.62-.07-.93a15.22,15.22,0,0,1,0-1.91.75.75,0,0,0-.75-.75.78.78,0,0,0-.75.75,15.86,15.86,0,0,0,.22,4.07.75.75,0,0,0,.92.53.78.78,0,0,0,.52-.93Z" transform="translate(-625.5 -598.45)"/><path d="M666,613.55l1.24-2.17a.75.75,0,1,0-1.29-.76l-1.25,2.17a.75.75,0,1,0,1.3.76Z" transform="translate(-625.5 -598.45)"/><path d="M654.83,613.15l-1.65-2.26a.81.81,0,0,0-.45-.34.78.78,0,0,0-.58.07.76.76,0,0,0-.34.45.73.73,0,0,0,.07.58l1.65,2.26a.81.81,0,0,0,.45.34.78.78,0,0,0,.58-.07.76.76,0,0,0,.34-.45.77.77,0,0,0-.07-.58Z" transform="translate(-625.5 -598.45)"/></svg>