<svg id="Lager_1" data-name="Lager 1" xmlns="http://www.w3.org/2000/svg" xmlns:xlink="http://www.w3.org/1999/xlink" viewBox="0 0 60.82 61.21"><defs><style>.cls-1{fill:url(#Namnlös_övertoning_99);}.cls-2,.cls-3{fill:none;stroke-miterlimit:10;}.cls-2{stroke:#ffcd97;}.cls-3{stroke:#ffa017;}</style><linearGradient id="Namnlös_övertoning_99" x1="-4.79" y1="23.12" x2="61.79" y2="36.91" gradientUnits="userSpaceOnUse"><stop offset="0" stop-color="#ff8000"/><stop offset="1" stop-color="#ffca9d"/></linearGradient></defs><title>Namnlöst-13</title><polygon class="cls-1" points="37.91 60.82 0 60.82 0 0 60.82 0 60.82 41.6 37.91 60.82"/><path class="cls-2" d="M667.86,663.72c2.44-2,5.74-9.7,5.74-21.69" transform="translate(-629.95 -602.9)"/><path class="cls-3" d="M673.6,642c0,1.37,7.68,2.47,17.17,2.47" transform="translate(-629.95 -602.9)"/><path d="M647.72,616.38a21.11,21.11,0,0,0-.15,4c0,.71.11,1.41.22,2.11a8.21,8.21,0,0,0,.38,1.77,2.06,2.06,0,0,0,3,1,5.28,5.28,0,0,0,2.23-2.81.76.76,0,0,0-.27-1,.75.75,0,0,0-1,.27,4.49,4.49,0,0,1-1.52,2.17c-.22.13-.67.32-.91.15s-.29-.9-.35-1.18a20.45,20.45,0,0,1-.13-6.39c.06-.41-.38-.75-.75-.75a.77.77,0,0,0-.75.75Z" transform="translate(-629.95 -602.9)"/><path d="M654.42,622.13a2.94,2.94,0,0,0,2.13-2.61,2,2,0,0,0-.78-1.73,2,2,0,0,0-1.68-.22,3,3,0,0,0-1.83,2.9c-.08,1.22.08,2.74,1.29,3.39a2.21,2.21,0,0,0,2.18-.1,4.79,4.79,0,0,0,1.48-1.62.76.76,0,0,0-.27-1,.77.77,0,0,0-1,.27,3.9,3.9,0,0,1-.74,1s-.14.11-.08.07-.07,0-.08.05l-.14.07c-.11.06.09,0,0,0a1.11,1.11,0,0,1-.26.07c.14,0-.26,0-.12,0l-.14,0s.11.07,0,0l-.12-.08h0s-.16-.16-.14-.13,0-.05,0-.07l-.09-.15v0a1,1,0,0,1,0-.16,2.09,2.09,0,0,1-.08-.34c0,.08,0-.06,0-.06s0-.12,0-.17V621c0-.21,0-.41,0-.62,0,0,0-.26,0-.14,0-.13,0-.25.07-.37a2.47,2.47,0,0,1,.1-.29c-.05.12.07-.13.08-.15l.06-.1c.06-.1-.06.06,0,0s.23-.21.11-.12a1.48,1.48,0,0,1,.21-.13c.13-.07,0,0,0,0l.12,0,.12,0s-.15,0,0,0h.12c.13,0-.06,0,0,0l.11,0h0c-.08,0-.09,0,0,0s.14.09,0,0,0,0,0,.05,0-.09,0,0a.41.41,0,0,0,0,.09c-.07-.14,0,.27,0,.1v.14s0,.2,0,.11,0,.05,0,.07l0,.16s0,.09,0,.13,0,0,0,0l-.16.26c.07-.11,0,0,0,0l-.14.14-.1.1c-.1.09,0,0,0,0l-.26.16s-.13,0,0,0l-.2.06a.75.75,0,0,0,.4,1.45Z" transform="translate(-629.95 -602.9)"/><path d="M660.4,617.63a2.91,2.91,0,0,0-2.62,1,5,5,0,0,0-1,2.89,5.34,5.34,0,0,0,0,1.44,1.16,1.16,0,0,0,1.13,1,2.09,2.09,0,0,0,1.39-.84,5.34,5.34,0,0,0,.81-1.12,5.45,5.45,0,0,0,.68-3,.75.75,0,0,0-1.48-.2,7.59,7.59,0,0,0-.12,3,1.62,1.62,0,0,0,.72,1.23,1.12,1.12,0,0,0,1.5-.39.75.75,0,1,0-1.29-.76.4.4,0,0,1,.5-.17s.13.07.11.11,0-.12,0-.14a3.5,3.5,0,0,1-.1-.8,5.78,5.78,0,0,1,.17-1.72l-1.47-.2c0,.16,0,.32,0,.49s0,.15,0,.22,0,.08,0,.11c0,.24,0-.07,0,.06a4.35,4.35,0,0,1-.25.94s-.06.16,0,.09l0,.05-.1.2c-.08.15-.17.3-.26.45l-.13.18,0,0-.08.09a4.27,4.27,0,0,1-.36.38l-.17.14c-.06.06,0,0,0,0l-.13.08c0-.06.25,0,.28,0a.28.28,0,0,1,.17.09s0,.07.07.1,0,0,0-.05v0c0,.09,0,.11,0,0v-.09a1.47,1.47,0,0,1,0-.21l0-.6a4.2,4.2,0,0,1,.5-1.9l.06-.09c.12-.19,0,0,0-.06l.17-.19.22-.19c-.09.07.09-.05.12-.07l.09-.06s.18-.08.1-.05,0,0,0,0l.14,0,.1,0c.12,0-.16,0,.05,0,0,0,.28,0,.15,0a.77.77,0,0,0,.92-.53.75.75,0,0,0-.52-.92Z" transform="translate(-629.95 -602.9)"/><path d="M665.07,619l-1.17-.2a4.93,4.93,0,0,0-1.09-.13,1.58,1.58,0,0,0-1.2.57,2.25,2.25,0,0,0-.4,1,4.26,4.26,0,0,0,.07,2.4,2.07,2.07,0,0,0,1.72,1.34,3,3,0,0,0,2.24-1.11.75.75,0,1,0-1.06-1.06l-.27.25-.15.12,0,0,0,0-.31.19,0,0-.11,0-.08,0s-.15,0,0,0-.08,0-.1,0,.06,0,0,0l-.08,0-.08,0s-.07,0,0,0l-.09-.06c-.11-.07.09.09,0,0s-.09-.12-.1-.11l0,0,0-.06a.65.65,0,0,1-.09-.16l0-.08s0,.14,0,.06a.88.88,0,0,1,0-.15,1.16,1.16,0,0,1,0-.18c0-.09,0,0,0,0a.61.61,0,0,1,0-.14,3.57,3.57,0,0,1,0-.46s0-.07,0-.1,0-.13,0,0,0,0,0,0a.78.78,0,0,0,0-.14c0-.13,0-.26.07-.38a.85.85,0,0,1,0-.17l0-.09c0-.09-.07.11,0,0l0-.08s.07-.05,0,0,0,0,0,0l0,0c.07,0,0,0-.06,0l.08,0,.08,0s-.15,0,0,0h.29l.48.09,1.06.18a.75.75,0,0,0,.4-1.45Z" transform="translate(-629.95 -602.9)"/><path d="M665.27,615.41c-.3,2.12-.67,4.24-.91,6.36a2.4,2.4,0,0,0,.88,2.4,2.1,2.1,0,0,0,2.32,0,.78.78,0,0,0,.27-1,.76.76,0,0,0-1-.27.59.59,0,0,1-.86-.08,1.31,1.31,0,0,1-.1-.83c0-.38.1-.77.15-1.15l.73-5a.77.77,0,0,0-.52-.92.76.76,0,0,0-.93.52Z" transform="translate(-629.95 -602.9)"/><path d="M649.47,631c1.29-.9,2.61-1.77,3.88-2.71a5.19,5.19,0,0,0,2.13-2.67.38.38,0,0,0-.46-.46c-1,.37-1.39,1.66-1.82,2.55-.59,1.25-1.14,2.52-1.66,3.8l.72.2c.22-.75.91-1.36.7-2.21a1.05,1.05,0,0,0-1.23-.87c-.38.06-.33.63,0,.72a4.41,4.41,0,0,0,5.19-2.29.38.38,0,0,0-.65-.38,24.5,24.5,0,0,0-2.34,4.41c-.12.29.3.62.55.43a24.29,24.29,0,0,1,2.42-1.62l-.51-.13c.11.25-.19.73-.12,1a1.26,1.26,0,0,0,.49.71,1.89,1.89,0,0,0,1.91,0c.62-.27,3.2-2.24,1.51-2.75-1.18-.36-1.64,1.33-1,2.08,1,1.21,3.25.73,4.51.28.45-.16.26-.89-.2-.73a6.28,6.28,0,0,1-2.39.42,2.17,2.17,0,0,1-1.12-.25c-.32-.22-.54-.7-.19-.94.15-.1-.18.31-.22.35a3.64,3.64,0,0,1-.5.46,3,3,0,0,1-1,.52c-.42.09-.59.11-.82-.26s-.13-.34-.08-.7a1,1,0,0,0-.1-.64.37.37,0,0,0-.52-.13,21.51,21.51,0,0,0-2.41,1.61l.55.42a22.61,22.61,0,0,1,2.26-4.23l-.65-.38a3.66,3.66,0,0,1-4.34,2v.72c.61-.1.14,1,0,1.23a4.12,4.12,0,0,0-.43.93c-.14.48.55.64.72.2.43-1.05.88-2.1,1.36-3.13.23-.49.46-1,.7-1.47s.42-1.06.9-1.22l-.47-.47a5.13,5.13,0,0,1-2.31,2.6l-3.35,2.33c-.39.28,0,.93.38.65Z" transform="translate(-629.95 -602.9)"/><path d="M648.27,634.73h-.16s.13,0,0,0l-.27-.09-.48-.23a2.27,2.27,0,0,0-1.5-.29c-1.18.27-1.49,1.76-1.68,2.77a4.9,4.9,0,0,0,.54,3.58,3.21,3.21,0,0,0,2.69,1.63,2.3,2.3,0,0,0,2.26-2.39.75.75,0,0,0-1.5,0,.85.85,0,0,1-1.24.81,2.51,2.51,0,0,1-1.37-2.24,5.35,5.35,0,0,1,.23-1.69,6.54,6.54,0,0,1,.24-.75,1.71,1.71,0,0,1,.12-.23l0-.05a.05.05,0,0,1,0,0c.09,0,.09,0,0,0h.08l.16,0,.2.08.31.15a2.78,2.78,0,0,0,1.4.38.77.77,0,0,0,.75-.75.75.75,0,0,0-.75-.75Z" transform="translate(-629.95 -602.9)"/><path d="M650,635.48a27.36,27.36,0,0,0-.07,6.2.75.75,0,0,0,1.5,0,27.36,27.36,0,0,1,.07-6.2.76.76,0,0,0-.75-.75.77.77,0,0,0-.75.75Z" transform="translate(-629.95 -602.9)"/><path d="M653.14,635.14a28.27,28.27,0,0,0-.41,6.23.75.75,0,0,0,1.5,0,27.08,27.08,0,0,1,.35-5.83.76.76,0,0,0-.52-.92.75.75,0,0,0-.92.52Z" transform="translate(-629.95 -602.9)"/><path d="M650.36,639.92c1.28,0,2.55-.14,3.83-.27a.75.75,0,0,0,0-1.5c-1.28.13-2.55.22-3.83.27a.75.75,0,0,0-.75.75.76.76,0,0,0,.75.75Z" transform="translate(-629.95 -602.9)"/><path d="M655.9,641.65a16.29,16.29,0,0,1,1.12-3,16.82,16.82,0,0,1,.83-1.5c.14-.23.29-.45.44-.67a.83.83,0,0,0,.12-.16c.09-.21.07,0,0-.06a.25.25,0,0,1-.23-.09s0-.06,0,0,0,0,0,0a.83.83,0,0,1,0,.15c0,.09,0,.1,0,0a.81.81,0,0,1,0,.16,1.77,1.77,0,0,1,0,.23c0,.62-.07,1.25-.05,1.87a18.09,18.09,0,0,0,.48,3.66c.22.94,1.67.54,1.45-.4a16.42,16.42,0,0,1-.43-3.2c0-.54,0-1.08,0-1.62a3.5,3.5,0,0,0-.07-1.29,1.37,1.37,0,0,0-.93-.94,1.41,1.41,0,0,0-1.42.56,14.13,14.13,0,0,0-1.59,2.64,17.54,17.54,0,0,0-1.21,3.29.75.75,0,0,0,1.44.4Z" transform="translate(-629.95 -602.9)"/><path d="M656.21,639.47a4.26,4.26,0,0,0,3.3-.23.76.76,0,0,0,.27-1,.78.78,0,0,0-1-.27l-.16.08,0,0-.07,0a1.59,1.59,0,0,1-.33.1l-.31.07c-.16,0,.16,0,0,0h-.68c-.1,0-.21,0-.31-.07a2,2,0,0,1-.35-.1.76.76,0,0,0-.93.52.77.77,0,0,0,.53.92Z" transform="translate(-629.95 -602.9)"/><path d="M661.86,641.86v-3.54a7.79,7.79,0,0,1,.07-1.29,1.41,1.41,0,0,1,.18-.51.86.86,0,0,1,.1-.16c0,.22-.22.18-.64-.12,0,0,.06.12.08.2.3,1,.27,2.09.47,3.13a4.37,4.37,0,0,0,1.35,2.56c.39.32,1.14.27,1.25-.33a21.79,21.79,0,0,0,.25-5.87.77.77,0,0,0-.75-.75.75.75,0,0,0-.75.75,20.07,20.07,0,0,1-.2,5.47l1.26-.33c-1.36-1.14-1-3.3-1.39-4.87a1.6,1.6,0,0,0-.79-1.18,1.2,1.2,0,0,0-1.47.62,4.73,4.73,0,0,0-.52,2.62v3.6a.75.75,0,0,0,1.5,0Z" transform="translate(-629.95 -602.9)"/><path d="M668,635.25a2,2,0,0,0-2.23,1.52,5.42,5.42,0,0,0-.25,3.16,3.9,3.9,0,0,0,1.54,2.32,1.36,1.36,0,0,0,1.73,0,3,3,0,0,0,.7-1.48,2.93,2.93,0,0,0,0-1.66,1.28,1.28,0,0,0-1.46-.88.75.75,0,0,0,.2,1.47,4,4,0,0,0,2.29-.7.75.75,0,1,0-.75-1.29,2.71,2.71,0,0,1-1.54.49l.2,1.48c-.21,0-.2,0-.34-.07s-.05-.06,0,0,0-.07,0,0,0,.22,0,.16a1.33,1.33,0,0,0,0,.17,3.09,3.09,0,0,1-.29,1.11l0,.08c-.12.16,0,.14.24-.07h0l-.08,0a1.92,1.92,0,0,1-.32-.26,2.29,2.29,0,0,1-.52-.76,3.56,3.56,0,0,1-.11-2.17,2.53,2.53,0,0,1,.34-.91c.07-.12,0,0,.07-.11l.08-.08.12-.08c-.06,0-.06,0,0,0s0,0,0,0h0a.76.76,0,0,0,.92-.52.74.74,0,0,0-.52-.92Z" transform="translate(-629.95 -602.9)"/><path d="M669.59,635.25a10.45,10.45,0,0,0-.39,3,8.82,8.82,0,0,0,.52,2.93,1.85,1.85,0,0,0,.86,1.06,1.61,1.61,0,0,0,1.56-.11,2.88,2.88,0,0,0,1.35-2.48.75.75,0,0,0-1.5,0,1.46,1.46,0,0,1-.64,1.22c-.12.08-.11,0-.19-.11a2.52,2.52,0,0,1-.11-.31c0-.18-.1-.36-.14-.55a8.58,8.58,0,0,1,.13-4.24.75.75,0,0,0-1.45-.4Z" transform="translate(-629.95 -602.9)"/><path d="M670.56,638.6l.06-.05-.15.12a3.41,3.41,0,0,1,.78-.46l-.18.08a3,3,0,0,1,.7-.21.82.82,0,0,0,.45-.35.78.78,0,0,0,.07-.58.75.75,0,0,0-.34-.44.83.83,0,0,0-.58-.08,4.3,4.3,0,0,0-1.87.91.75.75,0,0,0-.22.53.77.77,0,0,0,.22.53.75.75,0,0,0,.53.22l.2,0a.73.73,0,0,0,.33-.19Z" transform="translate(-629.95 -602.9)"/><path d="M670.47,636.66c1,0,2,0,3,.1a.76.76,0,0,0,.75-.75.77.77,0,0,0-.75-.75c-1-.08-2-.11-3-.1a.75.75,0,0,0,0,1.5Z" transform="translate(-629.95 -602.9)"/><path d="M675.23,635a10.9,10.9,0,0,0-.37,2.54.75.75,0,0,0,.75.75.76.76,0,0,0,.75-.75c0-.36,0-.71.08-1.07l0,.2a10.58,10.58,0,0,1,.26-1.27.76.76,0,0,0-.52-.93.77.77,0,0,0-.93.53Z" transform="translate(-629.95 -602.9)"/><path d="M675.34,642.17a.75.75,0,0,0,0-1.5.75.75,0,0,0,0,1.5Z" transform="translate(-629.95 -602.9)"/><path d="M652.39,609.74l.12.14c0,.07,0,0,0,0l.06.07.21.3c.14.21.26.42.38.63s.11.22.16.33a1.3,1.3,0,0,1,.08.17l0,.08c0-.11-.06-.12,0,0q.14.35.24.69a.75.75,0,1,0,1.45-.4,8.74,8.74,0,0,0-1.62-3,.73.73,0,0,0-.53-.22.77.77,0,0,0-.53.22.75.75,0,0,0-.22.53.87.87,0,0,0,.22.53Z" transform="translate(-629.95 -602.9)"/><path d="M658.82,608.41a7.86,7.86,0,0,0-.26,3.94.74.74,0,0,0,.92.52A.77.77,0,0,0,660,612a1.7,1.7,0,0,1,0-.22.38.38,0,0,1,0-.1h0c0-.13,0-.26,0-.39a6.46,6.46,0,0,1,0-.88,1.79,1.79,0,0,0,0-.23s0-.23,0-.06c0-.14,0-.28.07-.42a6.76,6.76,0,0,1,.24-.85.76.76,0,0,0-.53-.92.77.77,0,0,0-.92.53Z" transform="translate(-629.95 -602.9)"/><path d="M666.24,609.32a22.14,22.14,0,0,0-2,2.82.75.75,0,1,0,1.29.76c.28-.46.57-.92.88-1.35.15-.22.31-.43.47-.64l0,0c-.07.09,0,0,0,0l.13-.15.26-.33a.81.81,0,0,0,.22-.53.73.73,0,0,0-.22-.53.75.75,0,0,0-1.06,0Z" transform="translate(-629.95 -602.9)"/><path d="M654,646.06a12.31,12.31,0,0,1-.59,1.9,1.12,1.12,0,0,0,0,.13c0-.08,0-.08,0,0a1.54,1.54,0,0,1-.08.19c-.07.16-.15.32-.23.48a9.25,9.25,0,0,1-.49.87.75.75,0,0,0,1.3.76,13.28,13.28,0,0,0,1.6-3.94.76.76,0,0,0-.52-.92.78.78,0,0,0-.93.53Z" transform="translate(-629.95 -602.9)"/><path d="M659.12,647.76l.51,2.93a.75.75,0,0,0,.92.52.77.77,0,0,0,.52-.92l-.5-2.93a.74.74,0,0,0-.92-.52.77.77,0,0,0-.53.92Z" transform="translate(-629.95 -602.9)"/><path d="M664.77,647.51l1.58,1.93a.77.77,0,0,0,.53.22.73.73,0,0,0,.53-.22.75.75,0,0,0,.22-.53.81.81,0,0,0-.22-.53l-1.58-1.93a.75.75,0,0,0-.53-.22.77.77,0,0,0-.53.22.75.75,0,0,0-.22.53.87.87,0,0,0,.22.53Z" transform="translate(-629.95 -602.9)"/></svg>