<svg id="Lager_1" data-name="Lager 1" xmlns="http://www.w3.org/2000/svg" xmlns:xlink="http://www.w3.org/1999/xlink" viewBox="0 0 63.71 64.09"><defs><style>.cls-1{fill:url(#Namnlös_övertoning_61);}.cls-2,.cls-3{fill:none;stroke-miterlimit:10;}.cls-2{stroke:#ff94f0;}.cls-3{stroke:#ff3ef0;}</style><linearGradient id="Namnlös_övertoning_61" x1="-5.02" y1="24.21" x2="64.73" y2="38.67" gradientUnits="userSpaceOnUse"><stop offset="0" stop-color="#f908c0"/><stop offset="1" stop-color="#ff94f0"/></linearGradient></defs><title>Namnlöst-13</title><polygon class="cls-1" points="39.72 63.71 0 63.71 0 0 63.71 0 63.71 43.58 39.72 63.71"/><path class="cls-2" d="M668.22,665.17c2.55-2.14,6-10.16,6-22.72" transform="translate(-628.51 -601.46)"/><path class="cls-3" d="M674.23,642.45c0,1.43,8,2.59,18,2.59" transform="translate(-628.51 -601.46)"/><path d="M647,626.57a15,15,0,0,0,.17,3.84,9.43,9.43,0,0,0,1.13,3.39A2.42,2.42,0,0,0,649.6,635a1.35,1.35,0,0,0,1.45-.81,6.56,6.56,0,0,0,.69-3.67l-1.47.2.42,1.9a5.08,5.08,0,0,0,.53,1.61,2.05,2.05,0,0,0,2.88.57,3.63,3.63,0,0,0,1.4-3A8.46,8.46,0,0,0,655,628a5.16,5.16,0,0,0-2.42-2.68c-.86-.43-1.62.87-.75,1.29,2,1,2.46,3.57,2.16,5.6a1.85,1.85,0,0,1-.59,1.26.7.7,0,0,1-.74.11c-.35-.25-.39-.93-.48-1.31l-.43-2c-.18-.81-1.56-.65-1.48.2a5.48,5.48,0,0,1-.34,2.6c0,.06-.26.43-.23.46l.35,0-.14-.15-.14-.16a4.47,4.47,0,0,1-.55-1.09,13.26,13.26,0,0,1-.65-5.55.75.75,0,0,0-1.5,0Z" transform="translate(-628.51 -601.46)"/><path d="M656.72,626.78v8.5a.75.75,0,0,0,1.5,0c.06-1.2.08-2.72.9-3.7,0-.06.19-.23.29-.24s-.08,0-.06,0,.14.44.16.59c.13.79.23,1.59.34,2.39a.75.75,0,0,0,.92.52.78.78,0,0,0,.53-.92l-.24-1.67a6.34,6.34,0,0,0-.24-1.3,1.52,1.52,0,0,0-2.23-.87,3.83,3.83,0,0,0-1.5,2.34,12.46,12.46,0,0,0-.37,2.86h1.5v-8.5a.75.75,0,0,0-1.5,0Z" transform="translate(-628.51 -601.46)"/><path d="M662.54,630.54a5.5,5.5,0,0,0,4,4.26.75.75,0,1,0,.4-1.45,2.12,2.12,0,0,1-.6-.2c.15.11,0,0,0,0l-.14-.07-.28-.16-.27-.17-.13-.1c-.14-.09.1.09,0,0a5.11,5.11,0,0,1-.48-.45,1.64,1.64,0,0,1-.21-.25l0-.06c0,.08.07.09,0,0l-.09-.13a6.16,6.16,0,0,1-.33-.55l-.07-.14s-.08-.19,0-.08,0-.07,0-.09,0-.1-.05-.15a5,5,0,0,1-.16-.64.76.76,0,0,0-.92-.53.78.78,0,0,0-.53.92Z" transform="translate(-628.51 -601.46)"/><path d="M666.74,630.22a10.26,10.26,0,0,1-1.36,6.52,9.65,9.65,0,0,1-2.12,2.55c-.37.31-1,.78-1.5.59s-.65-.78-.82-1.17a.77.77,0,0,0-1-.27.78.78,0,0,0-.27,1,3.44,3.44,0,0,0,1.27,1.66,2.33,2.33,0,0,0,2.09.06,8,8,0,0,0,3.25-3,12,12,0,0,0,1.94-8.36.76.76,0,0,0-.92-.52.77.77,0,0,0-.53.92Z" transform="translate(-628.51 -601.46)"/><path d="M671.84,625.43c-.11-.2.56-.46.67-.49a1.65,1.65,0,0,1,1.23.19,1.85,1.85,0,0,1,.62,2.33,2.34,2.34,0,0,1-.94,1c-.47.26-1,.27-1.49.57a2.05,2.05,0,0,0-.85,1.55c-.06.62.2,1.23.12,1.84a.77.77,0,0,0,.52.93.75.75,0,0,0,.92-.53,13.93,13.93,0,0,0-.07-1.94.83.83,0,0,1,.12-.54c.14-.16.46-.19.65-.24a3.79,3.79,0,0,0,2.43-2.11,3.25,3.25,0,0,0-3.23-4.55c-1.28.15-2.75,1.37-2,2.77.46.85,1.76.09,1.3-.76Z" transform="translate(-628.51 -601.46)"/><path d="M672,636.16a.75.75,0,0,0,0-1.5.75.75,0,0,0,0,1.5Z" transform="translate(-628.51 -601.46)"/><path d="M661.37,619.05v-4a.75.75,0,0,0-1.5,0v4a.76.76,0,0,0,.75.75.77.77,0,0,0,.75-.75Z" transform="translate(-628.51 -601.46)"/><path d="M668.91,620.37c.05-.17.11-.33.17-.49a2.44,2.44,0,0,1,.1-.24c0-.06,0-.06,0,0a.61.61,0,0,1,.05-.12,10.48,10.48,0,0,1,.47-.95c.17-.3.35-.59.55-.88a3.91,3.91,0,0,1,.3-.41s.09-.12,0-.06,0,0,0-.05l.19-.22a.77.77,0,0,0,0-1.06.75.75,0,0,0-1.06,0,12.69,12.69,0,0,0-2.29,4.07.75.75,0,0,0,1.45.4Z" transform="translate(-628.51 -601.46)"/><path d="M654.72,641.56c-.75,1.32-1.53,2.63-2.35,3.91a.75.75,0,0,0,.27,1,.76.76,0,0,0,1-.27q1.23-1.92,2.35-3.9a.75.75,0,0,0-1.3-.76Z" transform="translate(-628.51 -601.46)"/><path d="M661.6,645v2.36a.75.75,0,0,0,1.5,0V645a.76.76,0,0,0-.75-.75.77.77,0,0,0-.75.75Z" transform="translate(-628.51 -601.46)"/><path d="M669.28,642.16a6,6,0,0,1,.69.74l-.12-.15a5,5,0,0,1,.55.88.74.74,0,0,0,.45.34.78.78,0,0,0,.58-.07.76.76,0,0,0,.34-.45.78.78,0,0,0-.08-.58,6,6,0,0,0-1.35-1.77.81.81,0,0,0-.53-.22.73.73,0,0,0-.53.22.75.75,0,0,0,0,1.06Z" transform="translate(-628.51 -601.46)"/><path d="M653.85,619.64l-1.71-2.28a.91.91,0,0,0-.45-.35.77.77,0,0,0-.93.53.74.74,0,0,0,.08.58l1.72,2.28a.83.83,0,0,0,.44.34.78.78,0,0,0,.58-.07.82.82,0,0,0,.35-.45.73.73,0,0,0-.08-.58Z" transform="translate(-628.51 -601.46)"/></svg>