<svg id="Lager_1" data-name="Lager 1" xmlns="http://www.w3.org/2000/svg" xmlns:xlink="http://www.w3.org/1999/xlink" viewBox="0 0 66.31 66.7"><defs><style>.cls-1{fill:url(#Namnlös_övertoning_114);}.cls-2,.cls-3{fill:none;stroke-miterlimit:10;}.cls-2{stroke:#c5ffb9;}.cls-3{stroke:#53ff00;}</style><linearGradient id="Namnlös_övertoning_114" x1="-5.22" y1="25.21" x2="67.37" y2="40.24" gradientUnits="userSpaceOnUse"><stop offset="0" stop-color="#4ce900"/><stop offset="1" stop-color="#d2ffbf"/></linearGradient></defs><title>Namnlöst-13</title><polygon class="cls-1" points="41.34 66.31 0 66.31 0 0 66.31 0 66.31 45.36 41.34 66.31"/><path class="cls-2" d="M668.54,666.47c2.66-2.23,6.26-10.58,6.26-23.65" transform="translate(-627.2 -600.16)"/><path class="cls-3" d="M674.8,642.82c0,1.49,8.37,2.69,18.72,2.69" transform="translate(-627.2 -600.16)"/><path d="M649.47,614.85l-.2,2.65a.39.39,0,0,0,.38.38.38.38,0,0,0,.37-.38l.2-2.65a.37.37,0,0,0-.37-.37.38.38,0,0,0-.38.37Z" transform="translate(-627.2 -600.16)"/><path d="M650.05,613.86a.38.38,0,0,0,0-.75.38.38,0,0,0,0,.75Z" transform="translate(-627.2 -600.16)"/><path d="M653,611.65l-.23-.14a.73.73,0,0,0-.41-.06.77.77,0,0,0-.53.52,4.39,4.39,0,0,0-.13,1c0,.41-.07.82-.1,1.23-.13,1.64-.21,3.27-.25,4.91,0,.49.73.49.75,0,0-1.35.09-2.7.19-4,0-.68.09-1.35.15-2a2.66,2.66,0,0,1,.12-.89l-.08,0,.16.11a.83.83,0,0,0,.36.09c.47.06.47-.69,0-.75Z" transform="translate(-627.2 -600.16)"/><path d="M651.3,616.75c.31-.18.62-.34.94-.5s.59-.27.92-.4a.38.38,0,0,0,.26-.46.39.39,0,0,0-.46-.26,15.24,15.24,0,0,0-2,1,.39.39,0,0,0-.13.52.37.37,0,0,0,.51.13Z" transform="translate(-627.2 -600.16)"/><path d="M656.13,616.25l-.67,2c-.11.34.39.65.63.36a9,9,0,0,1,1.85-1.75,2.57,2.57,0,0,0,.44-.29q.23,0,.12-.15l-.07.39-.27,1.37a.38.38,0,0,0,.18.42c.5.27.84-.12,1.1-.52a2,2,0,0,1,1.58-1.19l-.32-.19c.06.14-.18.47-.23.59a1.33,1.33,0,0,0-.13.52.79.79,0,0,0,.64.76c1.07.18,1.25-1,1.14-1.76l-.26.46a7.47,7.47,0,0,0,3.44-3.07l-.68-.29-1.5,4.19a.38.38,0,0,0,.69.28c.32-.68.54-1.88-.52-2l-.1.74a10.43,10.43,0,0,0,3.32-.94c.43-.2,0-.85-.38-.64a9.7,9.7,0,0,1-2.94.83c-.38,0-.56.67-.1.74s.2.67.07.94l.68.28,1.5-4.18c.15-.43-.45-.61-.68-.29a6.82,6.82,0,0,1-3,2.73.39.39,0,0,0-.26.46,1.78,1.78,0,0,1,0,.46c0,.06-.15.48-.28.36s.08-.37.14-.49a1.15,1.15,0,0,0,.07-1,.38.38,0,0,0-.33-.18,2.13,2.13,0,0,0-1.36.52,3.3,3.3,0,0,0-.55.57c-.13.17-.36.7-.58.74l.29,0-.11-.06.18.43c.1-.55.94-3-.42-2.67a4.12,4.12,0,0,0-1.48.93,9.27,9.27,0,0,0-1.43,1.44l.62.36.67-2c.16-.46-.56-.66-.72-.2Z" transform="translate(-627.2 -600.16)"/><path d="M651.36,621.57l-.3,5.79a.75.75,0,0,0,.75.75.77.77,0,0,0,.75-.75l.3-5.79a.75.75,0,0,0-1.5,0Z" transform="translate(-627.2 -600.16)"/><path d="M651.51,621.84a44.16,44.16,0,0,1,2.75,5.34.75.75,0,0,0,1,.27.77.77,0,0,0,.27-1,46.41,46.41,0,0,0-2.75-5.34.76.76,0,0,0-1-.27.75.75,0,0,0-.27,1Z" transform="translate(-627.2 -600.16)"/><path d="M655,621.25a28.35,28.35,0,0,1-.17,6.51l1.37-.18-.57-1.18a.75.75,0,1,0-1.29.76l.56,1.18a.76.76,0,0,0,1.37-.18,30.14,30.14,0,0,0,.23-6.91.75.75,0,0,0-1.5,0Z" transform="translate(-627.2 -600.16)"/><path d="M657.59,621.83l-.24,2.26c-.08.71-.18,1.41-.19,2.12,0,1.22.47,3.17,2.06,3.07s1.64-1.95,1.79-3.1a7.6,7.6,0,0,0-.18-4,2,2,0,0,0-1.72-1.37,1.47,1.47,0,0,0-1.38,1.56.78.78,0,0,0,.75.75.76.76,0,0,0,.75-.75c0-.31,0,0-.05,0s.08-.09.06,0a.12.12,0,0,1-.15,0c0-.07.34.42.35.45a3.34,3.34,0,0,1,.24,1.44c0,.61-.08,1.22-.15,1.82a5.47,5.47,0,0,1-.31,1.59l-.08.12s-.06,0,0,0,0,0-.06,0a2.43,2.43,0,0,1-.2-.25,3,3,0,0,1-.2-1.59c.08-1.36.28-2.72.42-4.07a.75.75,0,0,0-.75-.75.78.78,0,0,0-.75.75Z" transform="translate(-627.2 -600.16)"/><path d="M660.92,622l.94,6.67a.76.76,0,0,0,.72.55.78.78,0,0,0,.73-.55l1.63-4.83h-1.45a28.73,28.73,0,0,0,1.5,5.39.75.75,0,0,0,1.47-.19c.36-2.68.62-5.38.78-8.07.06-1-1.44-1-1.5,0-.16,2.69-.42,5.39-.78,8.07l1.48-.2a28.29,28.29,0,0,1-1.5-5.4c-.14-.78-1.23-.64-1.45,0l-1.63,4.83h1.45l-.94-6.67a.75.75,0,0,0-.92-.52.78.78,0,0,0-.53.92Z" transform="translate(-627.2 -600.16)"/><path d="M654.75,629.54a45.06,45.06,0,0,0-2.33,4.4c-.19.43.4.8.65.38.38-.63.94-2.07.27-2.69-.51-.46-1.3.1-1.22.73.12.84,1.13.89,1.74.61a20.15,20.15,0,0,0,3.21-2.1l-.51-.52a20.41,20.41,0,0,0-1.84,3.49c-.14.34.4.65.62.36a6.59,6.59,0,0,1,2.47-1.9l-.55-.42c-.11.51-.5,1.4-.25,1.9s.63.4,1,.33a2.25,2.25,0,0,0,1.78-2.17.38.38,0,0,0-.47-.37,1.12,1.12,0,0,0-.43,2c1.06.8,2.19-.66,2.89-1.28l-.62-.37-.61,1.51c-.16.38.37.59.62.37a17.71,17.71,0,0,0,1.51-1.35c.34-.39,0,0,0,.24a.92.92,0,0,0,.05.52,1.35,1.35,0,0,0,1.88.64c.6-.29,1.41-1.12,1-1.85a.75.75,0,0,0-1.36.07c-.18.45.55.64.73.2a1.44,1.44,0,0,1-.82.95c-.62.2-.77-.3-.69-.77a.78.78,0,0,0-.32-.86.67.67,0,0,0-.8.16c-.59.46-1.14,1-1.7,1.52l.63.36.61-1.51c.15-.37-.38-.59-.63-.36l-.93.82a2.16,2.16,0,0,1-.44.37c-.59.29-.89-.43-.36-.61l-.48-.36a1.5,1.5,0,0,1-1,1.39,1.42,1.42,0,0,1-.42.07,1.26,1.26,0,0,0,.13-.43c.08-.29.13-.59.19-.89a.38.38,0,0,0-.55-.42,6.88,6.88,0,0,0-2.62,2l.63.37a19.15,19.15,0,0,1,1.77-3.31c.2-.3-.21-.73-.51-.51-.78.56-1.57,1.12-2.39,1.63-.19.12-.38.24-.58.34s-.55.12-.73.25-.21.09-.15.26a2.14,2.14,0,0,1-.08.44,2.71,2.71,0,0,1-.35.8l.65.38a43.15,43.15,0,0,1,2.33-4.41c.25-.41-.4-.79-.65-.37Z" transform="translate(-627.2 -600.16)"/><path d="M648.11,636.77a19.71,19.71,0,0,0,1,3.92l1.31,4.09a.76.76,0,0,0,1.45,0q.75-2.64,1.41-5.29l-1.25.34a2.74,2.74,0,0,1,.5.9l.57,1.37,1.11,2.67a.75.75,0,0,0,1.47-.2q.4-3.9.56-7.81c0-1-1.46-1-1.5,0q-.15,3.91-.56,7.81l1.47-.2-1.23-3a7.83,7.83,0,0,0-1.33-2.66.76.76,0,0,0-1.26.34q-.66,2.64-1.41,5.28h1.45l-1.26-3.94a18.06,18.06,0,0,1-1-3.67.75.75,0,0,0-1.5,0Z" transform="translate(-627.2 -600.16)"/><path d="M656.46,637a37.79,37.79,0,0,1,.31,7.81c-.06,1,1.44,1,1.5,0a41,41,0,0,0-.36-8.21.75.75,0,0,0-.92-.52.78.78,0,0,0-.53.92Z" transform="translate(-627.2 -600.16)"/><path d="M659,637.25a22.48,22.48,0,0,1,.3,7.54.76.76,0,0,0,.75.75.77.77,0,0,0,.75-.75,24.07,24.07,0,0,0-.35-7.94c-.2-.94-1.65-.54-1.45.4Z" transform="translate(-627.2 -600.16)"/><path d="M657.18,641.75a7,7,0,0,0,3.46-.17.76.76,0,0,0,.52-.92.75.75,0,0,0-.92-.52c-.23.07-.47.13-.71.18l-.22,0c-.16,0,.15,0,0,0l-.37,0a5.93,5.93,0,0,1-.73,0,1.54,1.54,0,0,1-.37,0c.2,0,0,0,0,0l-.22,0a.76.76,0,0,0-.92.53.75.75,0,0,0,.52.92Z" transform="translate(-627.2 -600.16)"/><path d="M660.88,637.52a32.15,32.15,0,0,1,.09,7.07.76.76,0,0,0,1.13.65,3.43,3.43,0,0,1,2.37-.68.75.75,0,0,0,0-1.5,4.67,4.67,0,0,0-3.13.88l1.13.65a32.15,32.15,0,0,0-.09-7.07.78.78,0,0,0-.75-.75.76.76,0,0,0-.75.75Z" transform="translate(-627.2 -600.16)"/><path d="M662.13,641.55l1.27.1a.77.77,0,0,0,.53-.22.73.73,0,0,0,.22-.53.69.69,0,0,0-.22-.53l-.15-.12a.7.7,0,0,0-.38-.1l-1.27-.1a.81.81,0,0,0-.53.22.77.77,0,0,0-.22.53.73.73,0,0,0,.22.53l.15.12a.72.72,0,0,0,.38.1Z" transform="translate(-627.2 -600.16)"/><path d="M662,638.32l2.27-.19a.77.77,0,0,0,.53-.22.75.75,0,0,0-.53-1.28l-2.27.19a.87.87,0,0,0-.53.22.77.77,0,0,0-.22.53.76.76,0,0,0,.75.75Z" transform="translate(-627.2 -600.16)"/><path d="M664.78,637l.33,7c0,1,1.54,1,1.5,0l-.33-7c0-1-1.54-1-1.5,0Z" transform="translate(-627.2 -600.16)"/><path d="M664.94,637.63a62.16,62.16,0,0,1,3,6.21.78.78,0,0,0,.92.53.77.77,0,0,0,.53-.93,64.87,64.87,0,0,0-3.15-6.57c-.46-.84-1.76-.09-1.29.76Z" transform="translate(-627.2 -600.16)"/><path d="M668.22,636.69a39.77,39.77,0,0,1,.24,7.4c-.06,1,1.44,1,1.5,0a39.77,39.77,0,0,0-.24-7.4.78.78,0,0,0-.75-.75.76.76,0,0,0-.75.75Z" transform="translate(-627.2 -600.16)"/><path d="M668.09,643.94l.27.41a.48.48,0,0,0,.19.21.62.62,0,0,0,.25.14.61.61,0,0,0,.3,0,.66.66,0,0,0,.28-.09l.15-.12a.7.7,0,0,0,.2-.33l0-.2a.75.75,0,0,0-.1-.38l-.26-.41a.51.51,0,0,0-.2-.21.56.56,0,0,0-.25-.14.61.61,0,0,0-.3,0,.71.71,0,0,0-.28.09l-.15.12a.69.69,0,0,0-.19.33l0,.2a.75.75,0,0,0,.1.38Z" transform="translate(-627.2 -600.16)"/><path d="M671.57,637.3a1.05,1.05,0,0,1,.06-.24c0,.12.12-.16.07-.1a1.85,1.85,0,0,1,.25-.24,2,2,0,0,1,.87-.35c-.11,0,.12,0,.13,0h.24a.87.87,0,0,1,.35,0,.71.71,0,0,1,.49.36,1.9,1.9,0,0,1,.06.87,2.15,2.15,0,0,1-.12.5c0-.09-.07.14-.06.13l-.08.11a.47.47,0,0,1-.28.18,4.34,4.34,0,0,1-.6.14q-.68.13-1.35.21a.78.78,0,0,0-.75.75l0,2a.75.75,0,0,0,1.5,0l0-2-.75.75c.51-.06,1-.13,1.53-.22a3.83,3.83,0,0,0,1.36-.41,2.78,2.78,0,0,0,1.11-2.29,2.35,2.35,0,0,0-1.09-2.29,3.12,3.12,0,0,0-2.36-.21,2.76,2.76,0,0,0-2,1.92.75.75,0,1,0,1.45.39Z" transform="translate(-627.2 -600.16)"/><path d="M671.68,644.43a.75.75,0,0,0,0-1.5.75.75,0,0,0,0,1.5Z" transform="translate(-627.2 -600.16)"/><path d="M643.88,619.72a15.24,15.24,0,0,1-1.79-1.05c-.29-.19-.56-.39-.83-.59h0l-.1-.08-.19-.15-.42-.36a.75.75,0,0,0-1.07,1.06,17.91,17.91,0,0,0,3.64,2.46.76.76,0,0,0,1-.27.75.75,0,0,0-.27-1Z" transform="translate(-627.2 -600.16)"/><path d="M642.61,626.44h-4.3a.75.75,0,0,0,0,1.5h4.3a.76.76,0,0,0,.75-.75.77.77,0,0,0-.75-.75Z" transform="translate(-627.2 -600.16)"/><path d="M643.16,636.06a11,11,0,0,0-3.79,3.29.74.74,0,0,0,.26,1,.78.78,0,0,0,1-.26l.09-.12c0-.08-.08.1,0,0l.18-.23.37-.42c.26-.27.53-.54.82-.79l.2-.16.12-.1c.11-.09-.07.05,0,0l.45-.33a10.18,10.18,0,0,1,1-.6.74.74,0,0,0,.27-1,.75.75,0,0,0-1-.27Z" transform="translate(-627.2 -600.16)"/><path d="M673.66,618.36a37.58,37.58,0,0,0,4.27-2.66.77.77,0,0,0,.27-1,.76.76,0,0,0-1-.27,35.49,35.49,0,0,1-4.27,2.67.75.75,0,1,0,.76,1.29Z" transform="translate(-627.2 -600.16)"/><path d="M676.83,637.87l3,1.7a.75.75,0,0,0,.75-1.3l-3-1.69a.75.75,0,1,0-.76,1.29Z" transform="translate(-627.2 -600.16)"/><path d="M676.83,627.79l.45-.09.25,0h.08c.29,0,.59,0,.88-.06a8.81,8.81,0,0,1,.89,0l.42,0,.21,0,.14,0h0a.78.78,0,0,0,.58-.08.73.73,0,0,0,.35-.44.77.77,0,0,0-.53-.93,11.7,11.7,0,0,0-4.13.12.75.75,0,0,0,.4,1.45Z" transform="translate(-627.2 -600.16)"/></svg>